<svg width="1815" height="450" viewBox="0 0 1815 450" fill="none" xmlns="http://www.w3.org/2000/svg">
<g clip-path="url(#clip0_809:431)">
<g clip-path="url(#clip1_809:431)">
<path d="M865.734 254.001C855.828 197.306 822.505 164.909 775.373 164.909C753.458 164.909 735.145 172.409 722.837 183.508L723.137 94.4164C723.137 89.0169 718.634 84.5174 713.23 84.5174H669.1C663.696 84.5174 659.193 89.0169 659.193 94.4164V93.5165L658.593 359.89L657.692 405.786V405.186C657.692 410.585 662.195 415.085 667.599 415.085H667.299H753.758C843.219 415.085 883.447 355.091 865.734 254.001ZM754.959 366.789H732.744H733.044C727.64 366.789 723.137 362.29 723.137 356.89V349.991L723.437 242.902C723.437 224.304 739.648 213.205 757.36 213.205C790.083 213.205 798.489 245.301 802.992 270.499C813.199 329.293 786.781 366.789 754.959 366.789Z" fill="#030D3F"/>
<path d="M1239.79 398.286C1239.79 403.686 1243.99 407.885 1249.4 408.185H1284.52C1289.92 407.885 1294.13 403.686 1294.13 398.286V361.09V227.603L1294.73 175.108C1294.73 169.709 1290.22 165.209 1284.82 165.209H1204.97C1110.4 165.209 1070.17 233.303 1086.99 328.993C1095.99 379.388 1125.41 414.785 1175.25 414.785C1204.67 414.785 1225.98 406.086 1239.79 384.488V398.286ZM1192.66 367.689C1166.24 367.689 1154.83 346.691 1150.63 321.494C1143.42 279.798 1147.93 214.705 1199.26 212.605H1220.88H1220.58C1225.98 212.605 1230.48 217.104 1230.48 222.504V224.604L1230.78 332.893C1229.88 351.191 1216.97 367.689 1192.66 367.689Z" fill="#030D3F"/>
<path d="M1444.23 224.004C1449.63 224.904 1454.44 223.404 1455.34 218.004L1461.94 182.908C1463.44 178.408 1461.34 173.609 1457.14 171.209C1447.83 167.309 1436.12 164.909 1424.42 164.909C1402.5 164.909 1380.59 177.508 1370.08 205.405L1363.17 175.408C1361.67 169.709 1358.37 164.609 1352.97 164.31H1327.15C1321.75 164.31 1317.54 168.809 1317.54 174.209L1316.94 212.605L1316.64 398.586C1316.94 403.686 1321.15 407.885 1326.25 408.185H1371.88C1377.28 407.885 1381.49 403.686 1381.49 398.286L1381.79 261.5C1382.39 233.603 1398.3 220.104 1421.41 220.104C1429.82 220.104 1437.92 221.604 1445.13 224.304L1444.23 224.004Z" fill="#030D3F"/>
<path d="M1796.37 224.004C1801.77 224.904 1806.58 223.404 1807.48 218.004L1814.08 182.908C1815.58 178.408 1813.48 173.609 1809.28 171.209C1799.97 167.309 1788.26 164.909 1776.56 164.909C1754.64 164.909 1732.73 177.508 1722.22 205.405L1715.31 175.408C1713.81 169.709 1710.51 164.609 1705.11 164.31H1679.29C1673.89 164.31 1669.68 168.809 1669.68 174.209L1669.08 212.605L1668.78 398.586C1669.08 403.686 1673.29 407.885 1678.39 408.185H1723.42C1728.82 407.885 1733.03 403.686 1733.03 398.286L1733.33 261.5C1733.93 233.603 1749.84 220.104 1772.95 220.104C1781.36 220.104 1789.47 221.604 1796.67 224.304L1796.37 224.004Z" fill="#030D3F"/>
<path d="M1648.37 393.487C1653.17 390.787 1654.37 385.388 1651.97 380.588L1636.96 353.891C1634.26 349.391 1628.56 348.491 1624.05 350.891C1611.74 358.39 1595.53 365.59 1575.42 365.59C1540.6 365.59 1527.09 341.892 1522.58 316.694C1577.82 314.895 1663.98 302.296 1649.87 222.204C1643.57 186.207 1613.54 164.909 1569.71 164.909C1482.66 164.909 1443.63 240.802 1457.74 320.594C1467.35 375.189 1501.87 415.085 1567.01 415.085C1606.64 415.085 1634.56 402.486 1648.37 393.487ZM1568.21 211.105C1579.92 211.105 1590.43 217.704 1592.53 230.303C1597.63 258.8 1558.61 268.099 1530.69 270.199C1525.28 270.199 1521.68 266.899 1521.68 260.3C1526.19 236.902 1538.79 211.105 1568.21 211.105Z" fill="#030D3F"/>
<path d="M1074.08 393.487C1078.88 390.787 1080.08 385.388 1077.68 380.588L1062.67 353.891C1059.97 349.391 1054.26 348.491 1049.76 350.891C1037.45 358.39 1021.24 365.59 1001.13 365.59C966.303 365.59 952.794 341.892 948.291 316.694C1003.53 314.895 1089.69 302.296 1075.58 222.204C1069.27 186.207 1039.25 164.909 995.423 164.909C908.364 164.909 869.337 240.802 883.447 320.594C893.053 375.189 927.577 415.085 992.721 415.085C1032.65 415.085 1060.27 402.486 1074.08 393.487ZM994.222 211.105C1005.93 211.105 1016.44 217.704 1018.54 230.303C1023.64 258.8 984.616 268.099 956.697 270.199C951.293 270.199 947.69 266.899 947.69 260.3C951.893 236.902 964.802 211.105 994.222 211.105Z" fill="#030D3F"/>
<path d="M78.4946 227.473L87.9891 237.143C89.7694 238.901 91.8463 239.78 94.2199 239.78C94.5166 239.78 94.8133 239.78 95.11 239.78C96.8902 239.487 98.6704 238.901 100.154 237.436C101.934 235.971 102.824 233.626 102.824 231.575C102.824 229.231 101.934 227.179 100.451 225.421L90.6595 215.458C87.099 220.147 82.9452 224.249 78.4946 227.473Z" fill="url(#paint0_linear_809:431)"/>
<path d="M203.935 121.389L213.726 148.175C214.913 151.413 218.176 153.768 221.737 153.768C222.627 153.768 223.814 153.473 224.704 153.179C229.154 151.707 231.528 146.703 229.748 142.288L219.957 115.797C214.913 118.446 209.572 120.212 203.935 121.389Z" fill="url(#paint1_linear_809:431)"/>
<path d="M355.595 113.571L344.206 145.022C342.708 149.473 344.806 154.517 349.301 156C350.2 156.297 351.399 156.593 352.298 156.593H352.598C356.194 156.593 359.191 154.22 360.39 150.956L371.779 119.802C368.182 118.912 364.586 118.022 360.99 116.539C359.191 115.352 357.393 114.462 355.595 113.571Z" fill="url(#paint2_linear_809:431)"/>
<path d="M463.549 269.58C464.143 269.58 464.44 269.58 465.033 269.58C467.703 269.58 470.077 268.382 471.857 266.284L482.242 253.397C477.198 250.4 472.747 246.504 469.187 241.708L458.209 255.195C455.242 258.791 455.835 264.486 459.396 267.483C460.582 268.681 462.066 269.281 463.549 269.58Z" fill="url(#paint3_linear_809:431)"/>
<path d="M466.619 311.484C456.126 307.574 444.734 306.07 433.641 306.972C422.549 307.875 411.456 311.484 401.263 316.898C400.064 317.5 398.565 317.199 397.966 315.996C397.366 314.793 397.666 313.59 398.565 312.687C402.762 309.379 407.259 306.672 412.056 304.265V290.73C412.056 219.746 354.496 161.996 283.744 161.996C224.385 161.996 173.42 202 159.03 259.148C163.227 260.652 167.424 262.457 171.322 264.562C179.116 268.472 186.311 273.586 192.907 279.601C199.202 285.617 204.898 292.234 209.395 299.754C210.595 301.859 209.995 304.265 207.896 305.468C206.098 306.672 203.699 306.07 202.5 304.566C197.404 298.25 192.007 292.836 185.712 288.023C179.716 283.211 172.82 279 165.925 275.992C151.835 269.675 136.246 266.668 120.956 267.871C105.667 268.773 90.6769 274.187 77.7858 282.308C71.4901 286.519 65.4943 291.633 60.3978 297.347C55.0015 303.062 50.8044 309.379 47.2068 316.297C33.1165 343.668 33.7161 378.258 50.2048 404.426C57.9994 417.66 69.3916 428.488 82.5825 436.309C95.7734 444.129 111.063 448.039 126.652 448.34L442.035 449.844C463.92 449.844 485.506 439.316 498.397 421.57C511.887 404.125 515.785 380.363 509.789 359.008C504.093 337.351 487.604 319.004 466.619 311.484Z" fill="url(#paint4_linear_809:431)"/>
<path d="M168.407 103.791C175.055 106.511 181.703 108.022 188.654 108.022C210.11 108.022 229.451 95.0275 237.912 75.3846C249.093 48.1868 236.401 17.0605 209.203 5.87915C202.857 3.15937 195.907 1.64838 188.956 1.64838C167.5 1.64838 148.159 14.6429 139.698 34.2857C134.258 47.2802 134.258 61.7857 139.698 75.0824C145.137 88.0769 155.412 98.3517 168.407 103.791Z" fill="#9DACE3"/>
<path d="M366.374 103.791C373.022 106.511 379.67 108.022 386.621 108.022C408.077 108.022 427.418 95.0275 435.879 75.3846C447.061 48.1868 434.368 17.0605 407.17 5.87915C400.522 3.15937 393.874 1.64838 386.923 1.64838C365.467 1.64838 346.127 14.6429 337.665 34.2857C326.484 61.4835 339.176 92.6099 366.374 103.791Z" fill="#9DACE3"/>
<path d="M536.401 192.253C531.566 184.396 524.011 178.654 514.945 176.236C512.225 175.632 509.203 175.028 506.484 175.028C490.467 175.028 476.566 185.907 472.638 201.319C468.105 220.055 479.286 238.791 498.022 243.626C500.742 244.231 503.764 244.835 506.484 244.835C522.5 244.835 536.401 233.956 540.33 218.544C542.747 209.78 541.236 200.412 536.401 192.253Z" fill="#9DACE3"/>
<path d="M87.1979 192.418C92.9397 169.148 78.7364 145.275 55.4671 139.533C51.8408 138.626 48.2144 138.324 44.8902 138.324C24.9452 138.324 7.41769 151.923 2.58253 171.264C-0.137254 182.445 1.67593 194.231 7.41769 204.203C13.4616 214.176 22.8298 221.429 34.3133 224.148C37.9397 225.055 41.566 225.357 44.8902 225.357C65.1375 225.659 82.3628 212.06 87.1979 192.418Z" fill="#9DACE3"/>
</g>
</g>
<defs>
<linearGradient id="paint0_linear_809:431" x1="78.3783" y1="227.779" x2="102.672" y2="227.779" gradientUnits="userSpaceOnUse">
<stop stop-color="#00A9E2"/>
<stop offset="0.1882" stop-color="#1981D7"/>
<stop offset="0.4572" stop-color="#394DC8"/>
<stop offset="0.6919" stop-color="#5027BE"/>
<stop offset="0.8802" stop-color="#5F10B7"/>
<stop offset="0.9987" stop-color="#6408B5"/>
</linearGradient>
<linearGradient id="paint1_linear_809:431" x1="203.83" y1="134.826" x2="230.394" y2="134.826" gradientUnits="userSpaceOnUse">
<stop stop-color="#00A9E2"/>
<stop offset="0.1882" stop-color="#1981D7"/>
<stop offset="0.4572" stop-color="#394DC8"/>
<stop offset="0.6919" stop-color="#5027BE"/>
<stop offset="0.8802" stop-color="#5F10B7"/>
<stop offset="0.9987" stop-color="#6408B5"/>
</linearGradient>
<linearGradient id="paint2_linear_809:431" x1="343.566" y1="135.003" x2="371.998" y2="135.003" gradientUnits="userSpaceOnUse">
<stop stop-color="#00A9E2"/>
<stop offset="0.1882" stop-color="#1981D7"/>
<stop offset="0.4572" stop-color="#394DC8"/>
<stop offset="0.6919" stop-color="#5027BE"/>
<stop offset="0.8802" stop-color="#5F10B7"/>
<stop offset="0.9987" stop-color="#6408B5"/>
</linearGradient>
<linearGradient id="paint3_linear_809:431" x1="456.338" y1="255.787" x2="482.18" y2="255.787" gradientUnits="userSpaceOnUse">
<stop stop-color="#00A9E2"/>
<stop offset="0.1882" stop-color="#1981D7"/>
<stop offset="0.4572" stop-color="#394DC8"/>
<stop offset="0.6919" stop-color="#5027BE"/>
<stop offset="0.8802" stop-color="#5F10B7"/>
<stop offset="0.9987" stop-color="#6408B5"/>
</linearGradient>
<linearGradient id="paint4_linear_809:431" x1="37.5909" y1="305.7" x2="512.877" y2="305.7" gradientUnits="userSpaceOnUse">
<stop stop-color="#00A9E2"/>
<stop offset="0.1882" stop-color="#1981D7"/>
<stop offset="0.4572" stop-color="#394DC8"/>
<stop offset="0.6919" stop-color="#5027BE"/>
<stop offset="0.8802" stop-color="#5F10B7"/>
<stop offset="0.9987" stop-color="#6408B5"/>
</linearGradient>
<clipPath id="clip0_809:431">
<rect width="1814.84" height="450" fill="white"/>
</clipPath>
<clipPath id="clip1_809:431">
<rect width="1814.84" height="450" fill="white"/>
</clipPath>
</defs>
</svg>
