<svg width="1797" height="450" viewBox="0 0 1797 450" fill="none" xmlns="http://www.w3.org/2000/svg">
<g clip-path="url(#clip0_809:581)">
<path d="M746.745 363.166H724.878L725.122 363.163C719.686 363.16 715.288 358.783 715.222 353.355V346.396H715.239L715.399 240.238C715.374 221.754 731.425 210.662 748.968 210.662C781.281 210.662 789.663 242.553 794.061 267.506C804.401 326.199 778.133 363.166 746.745 363.166ZM856.302 251.333C846.373 194.951 813.518 163.063 766.896 163.063C745.196 163.063 727.113 170.458 714.757 181.55L714.94 92.9872C714.909 87.5302 710.488 83.1158 705.028 83.1158H661.172C655.695 83.1158 651.257 87.5561 651.257 93.0389L651.24 92.048L650.761 356.483L649.808 401.956L649.825 401.298C649.825 406.781 654.263 411.221 659.737 411.227H659.531H745.055C834.148 411.227 873.966 351.614 856.302 251.333Z" fill="white"/>
<path d="M1180.28 364.091C1153.97 364.091 1142.92 343.295 1138.52 318.339C1131.24 276.981 1135.96 212.429 1186.62 210.301L1186.51 210.2H1208.03L1207.82 210.206C1213.22 210.206 1217.6 214.534 1217.72 219.913V222.096L1218.03 329.434C1217.13 347.919 1204.28 364.091 1180.28 364.091ZM1226.94 394.613C1227.05 399.863 1231.22 404.088 1236.44 404.298H1271.17C1276.42 404.085 1280.62 399.814 1280.68 394.518L1280.7 357.624L1280.8 225.189L1281.4 172.949C1281.39 167.521 1277.02 163.13 1271.61 163.061H1192.42C1098.71 163.061 1058.89 230.534 1075.66 325.735C1084.45 375.646 1113.72 410.768 1163.11 410.768C1192.19 410.768 1213.27 401.988 1227.07 380.729L1226.94 394.613Z" fill="white"/>
<path d="M1429.46 221.635C1434.87 222.456 1439.68 220.969 1440.5 215.555L1447.07 180.76L1447.05 180.834C1448.39 176.299 1446.33 171.526 1442.37 169.294C1433.19 165.477 1421.61 163.062 1410.11 163.062C1388.41 163.062 1366.6 175.541 1356.25 203.268L1349.01 173.266C1347.67 167.718 1344.22 162.473 1338.88 162.327H1313.2C1307.9 162.47 1303.66 166.75 1303.56 172.06L1303 210.201L1302.59 394.89C1302.84 400.011 1306.94 404.092 1312.06 404.299H1357.23C1362.51 404.083 1366.74 399.764 1366.75 394.425L1366.95 258.728C1367.6 230.998 1383.24 217.597 1406.32 217.597C1414.79 217.597 1422.61 219.228 1429.85 221.799L1429.46 221.635Z" fill="white"/>
<path d="M1778.35 221.635C1783.76 222.456 1788.57 220.969 1789.39 215.552L1795.96 180.76L1795.93 180.834C1797.27 176.299 1795.22 171.526 1791.26 169.294C1782.08 165.477 1770.5 163.062 1758.99 163.062C1737.3 163.062 1715.49 175.541 1705.14 203.268L1697.9 173.266C1696.56 167.718 1693.11 162.473 1687.77 162.327H1662.09C1656.79 162.47 1652.54 166.75 1652.45 172.06L1651.89 210.201L1651.48 394.893C1651.73 400.014 1655.82 404.092 1660.95 404.299H1706.12C1711.4 404.083 1715.63 399.767 1715.64 394.428L1715.84 258.728C1716.49 230.998 1732.13 217.597 1755.21 217.597C1763.68 217.597 1771.49 219.225 1778.74 221.796L1778.35 221.635Z" fill="white"/>
<path d="M1552.36 208.814C1563.89 208.814 1574.27 215.285 1576.47 227.764C1581.43 255.934 1542.74 265.345 1515.25 267.474C1509.81 267.459 1506.27 264.179 1506.4 257.579C1510.51 234.244 1523.1 208.814 1552.36 208.814ZM1631.53 389.91C1636.17 387.294 1637.43 381.773 1635.03 377.078L1620.2 350.623C1617.41 346.246 1611.91 345.152 1607.29 347.748L1607.34 347.716C1595.17 355.083 1579.09 362.24 1559.07 362.24C1524.44 362.24 1511.06 338.675 1506.67 313.717C1561.27 311.873 1646.78 299.391 1632.78 219.906C1626.52 184.321 1596.92 163.062 1553.53 163.062C1467.21 163.062 1428.77 238.391 1442.69 317.416C1452.22 371.486 1486.45 411.229 1551.08 411.229C1590.44 411.229 1617.86 398.733 1631.72 389.83L1631.53 389.91Z" fill="white"/>
<path d="M983.727 208.814C995.269 208.814 1005.64 215.285 1007.84 227.764C1012.8 255.934 974.114 265.345 946.618 267.474C941.179 267.459 937.644 264.179 937.771 257.579C941.885 234.244 954.47 208.814 983.727 208.814ZM1062.91 389.91C1067.54 387.294 1068.8 381.774 1066.4 377.081L1051.57 350.623C1048.78 346.246 1043.28 345.152 1038.67 347.748L1038.71 347.716C1026.54 355.086 1010.47 362.241 990.443 362.241C955.819 362.241 942.435 338.675 938.04 313.717C992.647 311.873 1078.16 299.391 1064.16 219.906C1057.89 184.321 1028.3 163.062 984.904 163.062C898.579 163.062 860.144 238.391 874.064 317.416C883.586 371.486 917.823 411.229 982.451 411.229C1021.81 411.229 1049.23 398.733 1063.09 389.83L1062.91 389.91Z" fill="white"/>
<path d="M98.8834 222.894L89.1866 212.603C85.7181 217.314 81.5726 221.432 76.8992 224.861L86.2718 234.805C87.9272 236.565 90.1678 237.533 92.5805 237.533C92.9076 237.533 93.2375 237.513 93.5588 237.478C95.435 237.266 97.1506 236.465 98.5248 235.161C100.212 233.575 101.176 231.421 101.245 229.103C101.313 226.783 100.476 224.583 98.8834 222.894Z" fill="white"/>
<path d="M216.698 112.276C211.549 114.861 206.055 116.791 200.32 117.983L210.12 144.952C211.362 148.372 214.638 150.676 218.268 150.676C219.275 150.676 220.273 150.498 221.234 150.147C225.724 148.51 228.05 143.521 226.418 139.021L216.698 112.276Z" fill="white"/>
<path d="M355.93 114.26C353.993 113.453 352.129 112.543 350.31 111.578L338.88 143.044C337.245 147.542 339.572 152.536 344.059 154.168C345.025 154.518 346.021 154.696 347.025 154.696L347.389 154.69C350.909 154.541 353.971 152.301 355.178 148.981L366.568 117.623C362.962 116.785 359.401 115.705 355.93 114.26Z" fill="white"/>
<path d="M463.297 238.088L452.378 251.408C449.346 255.108 449.882 260.587 453.572 263.62C454.739 264.577 456.073 265.194 457.542 265.453C458.05 265.548 458.563 265.594 459.074 265.594C461.685 265.594 464.129 264.439 465.779 262.42L476.313 249.573C471.255 246.529 466.889 242.605 463.297 238.088Z" fill="white"/>
<path d="M278.718 160.082C220.377 160.082 169.434 198.205 152.711 253.545C148.976 253.102 145.238 252.878 141.528 252.878C138.975 252.878 136.401 252.984 133.877 253.194C117.745 254.102 101.57 259.53 87.0795 268.899L86.8786 269.028L86.6807 269.163C79.0695 274.373 72.9789 279.652 68.0702 285.29C62.9751 290.781 58.3734 297.395 54.0184 305.497C38.3543 335.648 39.6108 373.138 57.0852 401.295C65.3935 415.225 77.5203 427.112 92.1689 435.683C106.315 443.871 122.791 448.354 139.89 448.693L140.329 448.702L140.487 448.699L418.944 450C444.147 450 468.722 437.69 483.425 417.853C498.532 398.406 503.593 371.15 496.63 346.637C489.645 322.104 470.572 301.497 446.852 292.852C437.787 289.394 427.906 287.596 417.73 287.596C415.28 287.596 412.801 287.705 410.354 287.92C408.231 217.066 349.996 160.082 278.718 160.082ZM278.718 178.357C341.269 178.357 392.16 229.304 392.16 291.924V303.869C387.94 305.879 383.952 308.315 380.343 311.201C379.528 311.862 379.258 313.042 379.78 313.999C380.182 314.74 380.942 315.159 381.731 315.159C382.09 315.159 382.451 315.073 382.79 314.889C391.824 310.053 401.547 307.045 411.453 306.169C413.542 305.971 415.636 305.871 417.73 305.871C425.554 305.871 433.345 307.255 440.607 310.021C459.18 316.79 473.742 332.914 479.073 351.634C484.389 370.352 480.86 391.51 468.891 406.793C457.427 422.382 438.429 431.728 419.216 431.728H419.067H419.035H419.03L140.286 430.424H140.257H140.254C126.661 430.151 113.123 426.702 101.381 419.906C89.6959 413.071 79.5917 403.441 72.6776 391.792C58.293 368.729 57.616 338.176 70.0928 314.157C73.2916 308.209 76.9982 302.465 81.6429 297.516C86.0725 292.372 91.3971 288.07 96.9829 284.25C108.355 276.9 121.529 272.147 135.139 271.426C137.265 271.242 139.396 271.153 141.528 271.153C153.004 271.153 164.465 273.758 174.991 278.48C181.251 281.257 187.181 284.859 192.589 289.17C198.074 293.397 202.974 298.392 207.378 303.852L207.401 303.88C208.115 304.768 209.182 305.25 210.269 305.25C210.929 305.25 211.595 305.072 212.197 304.702C213.93 303.636 214.47 301.365 213.402 299.633C209.397 293.116 204.365 287.217 198.714 281.967C192.982 276.8 186.57 272.342 179.67 268.764C176.144 266.957 172.483 265.395 168.734 264.082C181.434 213.514 226.37 178.357 278.718 178.357Z" fill="white"/>
<path d="M186.617 104.767C179.772 104.767 173.033 103.406 166.595 100.724C153.719 95.3672 143.692 85.2862 138.356 72.336C133.017 59.3916 133.026 45.1662 138.379 32.2792C146.515 12.6716 165.487 1.09719e-05 186.703 1.09719e-05C193.557 1.09719e-05 200.298 1.36137 206.745 4.04388C233.368 15.1243 246.02 45.8297 234.949 72.4882C226.807 92.0959 207.835 104.767 186.617 104.767Z" fill="#9DACE3"/>
<path d="M381.577 104.767C374.718 104.767 367.981 103.406 361.555 100.729C334.92 89.6403 322.26 58.9378 333.331 32.2792C341.473 12.6773 360.448 0.00287483 381.663 0.00287483C388.508 0.00287483 395.256 1.36711 401.714 4.04675C428.326 15.1243 440.975 45.8297 429.906 72.4882C421.762 92.0959 402.793 104.767 381.577 104.767Z" fill="#9DACE3"/>
<path d="M501.518 241.919C498.707 241.919 495.872 241.569 493.087 240.868C474.78 236.25 463.629 217.567 468.236 199.231C472.083 183.963 485.719 173.297 501.398 173.297C504.206 173.297 507.044 173.653 509.829 174.354C518.7 176.594 526.168 182.157 530.855 190.015C535.555 197.876 536.912 207.098 534.68 215.987C530.838 231.258 517.202 241.919 501.518 241.919Z" fill="#9DACE3"/>
<path d="M42.999 221.337C39.476 221.337 35.9272 220.892 32.4415 220.013C21.3303 217.216 11.9777 210.248 6.09362 200.394C0.215268 190.549 -1.48311 178.995 1.31692 167.857C6.12518 148.731 23.2123 135.373 42.8641 135.373C46.3814 135.373 49.9302 135.819 53.4188 136.695C76.3527 142.476 90.3155 165.878 84.5433 188.854C79.7293 207.982 62.648 221.337 42.999 221.337Z" fill="#9DACE3"/>
</g>
<defs>
<clipPath id="clip0_809:581">
<rect width="1796.34" height="450" fill="white"/>
</clipPath>
</defs>
</svg>
