<?xml version="1.0" encoding="UTF-8" standalone="no"?>
<svg width="395.45651" height="88.737396" viewBox="0 0 395.45651 88.737396" version="1.1" id="svg12" sodipodi:docname="logo-nobackground3.svg" inkscape:version="1.2 (1:1.2.1+202207142221+cd75a1ee6d)" xmlns:inkscape="http://www.inkscape.org/namespaces/inkscape" xmlns:sodipodi="http://sodipodi.sourceforge.net/DTD/sodipodi-0.dtd" xmlns="http://www.w3.org/2000/svg" xmlns:svg="http://www.w3.org/2000/svg">
  <defs id="defs16"/>
  <sodipodi:namedview id="namedview14" pagecolor="#ffffff" bordercolor="#000000" borderopacity="0.25" inkscape:showpageshadow="2" inkscape:pageopacity="0.0" inkscape:pagecheckerboard="0" inkscape:deskcolor="#d1d1d1" showgrid="false" inkscape:lockguides="false" inkscape:zoom="2.0058594" inkscape:cx="177.23077" inkscape:cy="256" inkscape:window-width="2488" inkscape:window-height="1376" inkscape:window-x="72" inkscape:window-y="27" inkscape:window-maximized="1" inkscape:current-layer="svg12"/>
  <g transform="matrix(0.96794307,0,0,0.96794307,-43.994649,-180.3053)" fill="rgba(0,0,0,0.56)" id="g4" inkscape:export-filename="g4.svg" inkscape:export-xdpi="28.725559" inkscape:export-ydpi="28.725559">
    <path d="M 270,80 C 223,80 181.125,104.875 158.25,144.25 156.187,144.062 154.094,144 152,144 110.625,144 75.812,172.75 66.437,211.313 26.406,230.125 0,270.406 0,316 0,379.969 52.031,432 116,432 H 382 C 453.688,432 512,373.687 512,302 512,234.437 460.187,178.75 394.187,172.562 378.156,118.75 328.531,80 270,80 Z" transform="matrix(0.26044387,0,0,0.26044387,45.451691,165.44125)" fill="rgba(0,0,0,0.56)" id="path2" style="fill:#3a3a3a;fill-opacity:1" inkscape:export-filename="path2.svg" inkscape:export-xdpi="34.618999" inkscape:export-ydpi="34.618999"/>
  </g>
  <g transform="matrix(0.69658793,0,0,0.69658793,30.403486,14.021469)" fill="#ffffff" id="g10">
    <path d="M 80,38 H 76 V 36 H 74 V 29 C 74,15.491 63.01,4.5 49.5,4.5 35.991,4.5 25,15.491 25,29 v 7 h -2 v 2 h -5 c -2.209,0 -4,1.791 -4,4 v 47 c 0,2.209 1.791,4 4,4 h 62 c 2.209,0 4,-1.791 4,-4 V 42 c 0,-2.209 -1.791,-4 -4,-4 z M 52.97,65.719 c 0.127,0.358 0.03,0.737 0.03,1.138 v 7.714 C 53,76.465 51.822,78 49.929,78 H 49.072 C 47.178,78 46,76.465 46,74.571 v -7.714 c 0,-0.401 -0.097,-0.781 0.03,-1.138 -1.678,-1.16 -2.959,-3.095 -2.959,-5.29 0,-3.55 2.878,-6.429 6.429,-6.429 3.551,0 6.429,2.878 6.429,6.429 0,2.194 -1.281,4.13 -2.959,5.29 z M 65,36 h -2 v 2 H 36 V 36 H 34 V 29 C 34,20.453 40.953,13.5 49.5,13.5 58.047,13.5 65,20.453 65,29 Z" fill="#ffffff" id="path8"/>
  </g>
  <text xml:space="preserve" style="font-style:normal;font-variant:normal;font-weight:bold;font-stretch:normal;font-size:37.3333px;font-family:Arial;-inkscape-font-specification:'Arial Bold';fill:#3a3a3a;fill-opacity:1" x="143.32913" y="62.292694" id="text1109"><tspan sodipodi:role="line" id="tspan1107" x="143.32913" y="62.292694">BETTERSCAN</tspan></text>
</svg>