<?xml version="1.0" encoding="UTF-8" standalone="no"?>
<!-- Created with Inkscape (http://www.inkscape.org/) -->

<svg
   version="1.1"
   id="svg9"
   width="881.42383"
   height="157.00508"
   viewBox="0 0 881.42385 157.00509"
   xmlns="http://www.w3.org/2000/svg"
   xmlns:svg="http://www.w3.org/2000/svg">
  <defs
     id="defs13">
    <clipPath
       clipPathUnits="userSpaceOnUse"
       id="clipPath367">
      <g
         id="g371"
         transform="translate(-1542.0851,-1059.6255)">
        <path
           d="M 0,2027.321 H 3000 V 0 H 0 Z"
           id="path369" />
      </g>
    </clipPath>
    <clipPath
       clipPathUnits="userSpaceOnUse"
       id="clipPath409">
      <g
         id="g413">
        <path
           d="M 0,2027.321 H 3000 V 0 H 0 Z"
           id="path411" />
      </g>
    </clipPath>
    <clipPath
       clipPathUnits="userSpaceOnUse"
       id="clipPath1036">
      <g
         id="g1042">
        <g
           id="g1040"
           transform="matrix(-1,0,0,1,3014.8522,-210)">
          <path
             d="M 0,2027.321 H 3000 V 0 H 0 Z"
             id="path1038" />
        </g>
      </g>
    </clipPath>
    <clipPath
       clipPathUnits="userSpaceOnUse"
       id="clipPath1053">
      <g
         id="g1059">
        <g
           id="g1057"
           transform="translate(-18,-210)">
          <path
             d="M 0,2027.321 H 3000 V 0 H 0 Z"
             id="path1055" />
        </g>
      </g>
    </clipPath>
    <clipPath
       clipPathUnits="userSpaceOnUse"
       id="clipPath1057">
      <g
         id="g1063">
        <g
           id="g1061"
           transform="matrix(0.0882324,0,0,0.0882324,758.25338,622.34539)">
          <path
             d="M 0,2027.321 H 3000 V 0 H 0 Z"
             id="path1059" />
        </g>
      </g>
    </clipPath>
    <clipPath
       clipPathUnits="userSpaceOnUse"
       id="clipPath1072">
      <g
         id="g1078">
        <g
           id="g1076"
           transform="matrix(0.0882324,0,0,0.0882324,760.50331,622.34539)">
          <path
             d="M 0,2027.321 H 3000 V 0 H 0 Z"
             id="path1074" />
        </g>
      </g>
    </clipPath>
    <clipPath
       clipPathUnits="userSpaceOnUse"
       id="clipPath1087">
      <g
         id="g1093">
        <g
           id="g1091"
           transform="matrix(0.0882324,0,0,0.0882324,758.25338,622.34539)">
          <path
             d="M 0,2027.321 H 3000 V 0 H 0 Z"
             id="path1089" />
        </g>
      </g>
    </clipPath>
    <clipPath
       clipPathUnits="userSpaceOnUse"
       id="clipPath1102">
      <g
         id="g1108">
        <g
           id="g1106"
           transform="matrix(0.0882324,0,0,0.0882324,760.50331,622.34539)">
          <path
             d="M 0,2027.321 H 3000 V 0 H 0 Z"
             id="path1104" />
        </g>
      </g>
    </clipPath>
    <clipPath
       clipPathUnits="userSpaceOnUse"
       id="clipPath1117">
      <g
         id="g1123">
        <g
           id="g1121"
           transform="matrix(0.0882324,0,0,0.0882324,759.31217,622.3454)">
          <path
             d="M 0,2027.321 H 3000 V 0 H 0 Z"
             id="path1119" />
        </g>
      </g>
    </clipPath>
    <clipPath
       clipPathUnits="userSpaceOnUse"
       id="clipPath1132">
      <g
         id="g1138">
        <g
           id="g1136"
           transform="matrix(0.0882324,0,0,0.0882324,759.31216,622.3454)">
          <path
             d="M 0,2027.321 H 3000 V 0 H 0 Z"
             id="path1134" />
        </g>
      </g>
    </clipPath>
    <clipPath
       clipPathUnits="userSpaceOnUse"
       id="clipPath1147">
      <g
         id="g1153">
        <g
           id="g1151"
           transform="matrix(0.0882324,0,0,0.0882324,760.50331,622.34539)">
          <path
             d="M 0,2027.321 H 3000 V 0 H 0 Z"
             id="path1149" />
        </g>
      </g>
    </clipPath>
    <clipPath
       clipPathUnits="userSpaceOnUse"
       id="clipPath1162">
      <g
         id="g1168">
        <g
           id="g1166"
           transform="matrix(0.0882324,0,0,0.0882324,758.25338,622.34539)">
          <path
             d="M 0,2027.321 H 3000 V 0 H 0 Z"
             id="path1164" />
        </g>
      </g>
    </clipPath>
    <clipPath
       clipPathUnits="userSpaceOnUse"
       id="clipPath1177">
      <g
         id="g1183">
        <g
           id="g1181"
           transform="matrix(0.0882324,0,0,0.0882324,760.50331,622.3454)">
          <path
             d="M 0,2027.321 H 3000 V 0 H 0 Z"
             id="path1179" />
        </g>
      </g>
    </clipPath>
    <clipPath
       clipPathUnits="userSpaceOnUse"
       id="clipPath1192">
      <g
         id="g1198">
        <g
           id="g1196"
           transform="matrix(0.0882324,0,0,0.0882324,758.25338,622.34539)">
          <path
             d="M 0,2027.321 H 3000 V 0 H 0 Z"
             id="path1194" />
        </g>
      </g>
    </clipPath>
    <clipPath
       clipPathUnits="userSpaceOnUse"
       id="clipPath1207">
      <g
         id="g1213">
        <g
           id="g1211"
           transform="matrix(0.0882324,0,0,0.0882324,760.5033,622.34539)">
          <path
             d="M 0,2027.321 H 3000 V 0 H 0 Z"
             id="path1209" />
        </g>
      </g>
    </clipPath>
    <clipPath
       clipPathUnits="userSpaceOnUse"
       id="clipPath1222">
      <g
         id="g1228">
        <g
           id="g1226"
           transform="matrix(0.0882324,0,0,0.0882324,758.25338,622.34539)">
          <path
             d="M 0,2027.321 H 3000 V 0 H 0 Z"
             id="path1224" />
        </g>
      </g>
    </clipPath>
    <clipPath
       clipPathUnits="userSpaceOnUse"
       id="clipPath1237">
      <g
         id="g1243">
        <g
           id="g1241"
           transform="matrix(0.0882324,0,0,0.0882324,758.25338,622.3454)">
          <path
             d="M 0,2027.321 H 3000 V 0 H 0 Z"
             id="path1239" />
        </g>
      </g>
    </clipPath>
  </defs>
  <g
     id="g7986"
     transform="translate(176.58104,-702.25709)">
    <g
       id="g7868">
      <path
         id="path7763"
         clip-path="none"
         style="display:inline;fill:#ffffff;fill-opacity:0.913725;fill-rule:evenodd;stroke:none;stroke-width:0.488446"
         d="m -100.51953,702.26953 c -1.64111,0.0253 -3.27928,0.12729 -4.91797,0.21485 -1.30806,4.18355 -2.61587,8.36719 -3.92383,12.55078 -2.15486,0.36633 -4.29103,0.83997 -6.39844,1.41992 -2.88654,-3.35757 -5.77478,-6.71369 -8.66015,-10.07227 -6.68863,2.30771 -13.06824,5.49034 -18.9212,9.46679 -0.64983,0.28915 0.0216,1.11501 0.002,1.6601 0.88661,3.96943 1.77323,7.93885 2.65984,11.90827 -1.62157,1.34376 -3.18099,2.76248 -4.66797,4.25391 -4.33915,-1.40637 -8.67868,-2.8116 -13.01757,-4.21876 -4.49173,5.42468 -8.30026,11.41464 -11.21623,17.82858 -0.51325,0.6029 0.46351,0.96304 0.75334,1.4351 2.7513,2.85351 5.5026,5.70703 8.2539,8.56054 -0.77238,2.04258 -1.43963,4.12417 -2.00781,6.23243 -4.28845,0.91518 -8.57653,1.83209 -12.86524,2.74609 -1.16636,6.97486 -1.45103,14.0946 -0.77076,21.13556 -0.0584,0.71032 0.98906,0.5173 1.45866,0.79639 3.58385,1.03114 7.16771,2.06229 10.75156,3.09344 0.37551,2.35053 0.87546,4.681 1.49804,6.97852 -3.11396,2.80791 -6.22762,5.61614 -9.34179,8.42382 2.46911,6.59262 5.78435,12.86132 9.86095,18.60135 0.26484,0.75325 1.06809,0.0866 1.62538,0.0686 3.47591,-0.86589 6.95182,-1.73178 10.42773,-2.59766 1.60216,1.97076 3.31501,3.85107 5.12891,5.62891 -1.34066,3.817 -2.6797,7.63457 -4.02149,11.45117 5.32599,4.60619 11.21784,8.55952 17.55244,11.64192 0.59215,0.53321 0.97736,-0.43657 1.45733,-0.71809 2.74479,-2.52539 5.48958,-5.05079 8.23437,-7.57618 2.22781,0.8329 4.49962,1.54711 6.80274,2.14063 0.78773,4.1517 1.57576,8.30334 2.36328,12.45508 6.97443,1.35208 14.119751,1.78779 21.205843,1.27316 0.608434,-0.0533 0.473497,-1.06296 0.760183,-1.53043 1.151949,-3.67791 2.303898,-7.35583 3.455847,-11.03375 2.152779,-0.37013 4.288084,-0.84117 6.394531,-1.41992 2.885321,3.35685 5.771573,6.71291 8.65625,10.07031 6.602774,-2.27444 12.897567,-5.41349 18.69222,-9.31021 0.630746,-0.31547 1.148217,-0.65328 0.432609,-1.23434 -5.312502,-7.68408 -10.622063,-15.37019 -15.933422,-23.05506 1.180534,-1.0194 2.360911,-2.039 3.542968,-3.05664 -2.377565,-3.18004 -4.752822,-6.36181 -7.128906,-9.54297 -3.127328,2.6333 -6.499665,5.02091 -10.261565,6.66228 -9.912439,4.49838 -21.753728,4.41435 -31.614318,-0.18687 -10.36753,-4.72886 -18.33387,-14.36153 -21.01902,-25.43761 -2.63617,-10.45904 -0.56155,-21.99595 5.60483,-30.85279 5.89882,-8.61133 15.4585,-14.62199 25.80205,-16.09938 10.394061,-1.58739 21.391452,1.36027 29.553075,8.00233 5.246788,4.22454 9.35554,9.85131 11.753307,16.14837 0.136124,0.37223 0.408163,1.10654 0.574219,1.6211 1.599191,4.8452 2.200292,10.01146 1.785157,15.0957 -0.0366,0.36683 -0.105364,1.1245 -0.171876,1.63867 -0.973507,7.93998 -4.546184,15.51324 -10.014614,21.34654 -0.407458,0.46853 -1.122039,0.94611 -0.286426,1.37804 2.659908,2.67288 5.318035,5.34752 7.976822,8.02151 1.179828,-1.02012 2.360458,-2.03931 3.541015,-3.05859 6.909924,6.45272 13.821905,12.90324 20.730469,19.35742 3.893747,-4.74326 7.398094,-9.82565 10.153559,-15.31851 0.581238,-1.13873 1.116303,-2.30009 1.668707,-3.45297 -3.075751,-3.18342 -6.148238,-6.36999 -9.222656,-9.55469 0.771198,-2.04504 1.442228,-4.12767 2.009765,-6.23828 4.285809,-0.91406 8.571603,-1.82818 12.857422,-2.74219 1.184779,-7.00785 1.455752,-14.16385 0.774593,-21.23915 -0.06805,-0.60708 -1.072737,-0.44891 -1.54687,-0.72437 -3.553121,-1.02257 -7.106242,-2.04515 -10.659364,-3.06773 -0.377685,-2.34945 -0.875855,-4.67959 -1.498046,-6.97656 3.115841,-2.80864 6.232117,-5.6168 9.347656,-8.42578 -2.441874,-6.49469 -5.68516,-12.6857 -9.692931,-18.35219 -0.247887,-0.80333 -0.878663,-0.59951 -1.513442,-0.38516 -3.571977,0.88843 -7.143645,1.77812 -10.715502,2.66703 -1.602584,-1.96847 -3.31212,-3.85007 -5.125,-5.62695 1.337965,-3.81703 2.675185,-7.63432 4.013672,-11.45117 -5.343168,-4.63442 -11.267379,-8.59746 -17.631832,-11.68916 -0.577625,-0.42224 -0.959596,0.57649 -1.443696,0.83306 -2.718965,2.50281 -5.43793,5.00563 -8.156894,7.50844 -2.230223,-0.83175 -4.503534,-1.54719 -6.808594,-2.14062 -0.785856,-4.15234 -1.571233,-8.30476 -2.357422,-12.45703 -5.462589,-1.0411 -11.021313,-1.57522 -16.583983,-1.47266 z" />
      <path
         id="path7765"
         style="fill:#ffffff;fill-opacity:0.913725;fill-rule:nonzero;stroke:none;stroke-width:0.488446"
         d="m -98.742188,748.99805 c -8.291332,0.12068 -16.472152,3.64074 -22.218442,9.62649 -6.22291,6.34399 -9.56606,15.3885 -8.91381,24.25598 0.51717,8.33424 4.50342,16.37424 10.8261,21.82917 6.57254,5.77928 15.60698,8.63224 24.305427,7.6265 8.629302,-0.88417 16.771062,-5.52902 21.948632,-12.4851 5.22937,-6.87571 7.425249,-15.94365 5.92155,-24.45043 -1.423657,-8.67436 -6.687379,-16.60206 -14.089199,-21.33238 -5.251205,-3.40741 -11.521053,-5.19772 -17.780258,-5.07023 z m -18.427732,31.88476 c 2.98932,6.25944 7.48041,11.81821 13.13023,15.86672 1.37083,0.99952 2.79859,1.92107 4.274065,2.75828 -4.291435,-0.26199 -8.394005,-2.21221 -11.492185,-5.16211 -0.19168,-0.19722 -0.76848,-0.74421 -1.07875,-1.11242 -3.0679,-3.40099 -4.96321,-7.91918 -4.91539,-12.52625 l 0.0423,0.0906 z" />
      <path
         id="path7767"
         style="font-size:19.7851px;line-height:1.25;font-family:Opentalk-750;-inkscape-font-specification:'Opentalk-750, Normal';fill:#ffffff;fill-opacity:0.913725;stroke-width:2.69595"
         d="m 440.17383,733.05859 c -2.92962,5.02609 -5.86133,10.05095 -8.78906,15.07813 8.90364,0 17.80729,0 26.71093,0 0,21.2806 0,42.5612 0,63.8418 5.86459,0 11.72917,0 17.59375,0 0,-21.2806 0,-42.5612 0,-63.8418 7.04753,0 14.09506,0 21.14258,0 3.12532,-5.35545 6.24773,-10.71259 9.36914,-16.07031 -21.81575,0 -43.63151,0 -65.44726,0 -0.19336,0.33073 -0.38672,0.66145 -0.58008,0.99218 z" />
      <path
         id="path7769"
         style="font-size:19.7851px;line-height:1.25;font-family:Opentalk-750;-inkscape-font-specification:'Opentalk-750, Normal';fill:#ffffff;fill-opacity:0.913725;stroke-width:2.69595"
         d="m 522.31641,751.38086 c -7.52585,0.15094 -15.07495,2.82775 -20.68839,7.90738 -5.27098,4.71832 -8.50165,11.46863 -9.35663,18.45172 -0.91469,7.40733 0.1275,15.28065 4.07397,21.72242 3.83425,6.33246 10.18018,11.04215 17.31962,12.96915 5.92467,1.62863 12.26729,1.68265 18.24518,0.29503 7.76263,-1.81876 14.72917,-6.92551 18.6029,-13.91951 3.93693,-6.85608 4.89791,-15.15179 3.52202,-22.86605 -1.07002,-5.72961 -3.79907,-11.16193 -7.80884,-15.39689 -3.67981,-3.81049 -8.44854,-6.52785 -13.53274,-7.96684 -3.36961,-0.94074 -6.88533,-1.28417 -10.37709,-1.19641 z m 1.75195,15.21875 c 3.58329,0.0881 7.12932,1.70102 9.3654,4.53644 3.07315,3.69159 3.74487,8.74208 3.42109,13.38938 -0.24208,3.92149 -1.59949,7.94687 -4.57377,10.64234 -3.08327,2.94741 -7.66956,3.65509 -11.74916,2.98604 -4.12925,-0.59847 -7.6846,-3.5469 -9.36396,-7.31911 -1.71791,-3.82497 -1.91952,-8.18536 -1.3043,-12.28573 0.6749,-4.58022 3.48476,-9.00557 7.81407,-10.89272 2.0058,-0.8688 4.21955,-1.14305 6.39063,-1.05664 z" />
      <path
         id="path7771"
         style="font-size:19.7851px;line-height:1.25;font-family:Opentalk-750;-inkscape-font-specification:'Opentalk-750, Normal';fill:#ffffff;fill-opacity:0.913725;stroke-width:2.69595"
         d="m 589.5,751.38086 c -7.55914,0.15021 -15.14172,2.85262 -20.76301,7.97395 -5.25457,4.73751 -8.45887,11.49914 -9.29491,18.48431 -0.91607,7.54383 0.21203,15.57171 4.35505,22.05889 3.85995,6.11479 10.07656,10.65013 17.05145,12.53352 5.9558,1.63496 12.33544,1.6874 18.34003,0.26998 7.77971,-1.84433 14.74069,-7.00347 18.58873,-14.03549 3.86983,-6.83051 4.80631,-15.06316 3.44133,-22.72502 -1.06343,-5.69836 -3.77031,-11.10057 -7.74171,-15.32654 -3.68947,-3.84722 -8.48546,-6.59088 -13.60182,-8.03719 -3.36906,-0.94065 -6.88402,-1.28433 -10.37514,-1.19641 z m 1.75,15.21875 c 3.52208,0.0878 7.01103,1.64136 9.2501,4.3953 3.07992,3.59474 3.83295,8.56027 3.56085,13.14759 -0.19014,4.0455 -1.51818,8.23859 -4.59373,11.02191 -3.083,2.94916 -7.67101,3.65855 -11.75173,2.9896 -4.16844,-0.60022 -7.74048,-3.60169 -9.41096,-7.4154 -1.71311,-3.91419 -1.8853,-8.36099 -1.20169,-12.53236 0.75934,-4.50878 3.61612,-8.82725 7.9227,-10.61647 1.95983,-0.82202 4.11358,-1.07136 6.22446,-0.99017 z" />
      <path
         id="path7773"
         style="font-size:19.7851px;line-height:1.25;font-family:Opentalk-750;-inkscape-font-specification:'Opentalk-750, Normal';fill:#ffffff;fill-opacity:0.913725;stroke-width:2.69595"
         d="m 629.23828,731.79883 c 0,26.72721 0,53.45443 0,80.18164 5.71875,0 11.4375,0 17.15625,0 0,-27.39388 0,-54.78776 0,-82.18164 -5.71875,0 -11.4375,0 -17.15625,0 0,0.66666 0,1.33333 0,2 z" />
      <path
         id="path7775"
         style="font-size:19.7851px;line-height:1.25;font-family:Opentalk-750;-inkscape-font-specification:'Opentalk-750, Normal';fill:#ffffff;fill-opacity:0.913725;stroke-width:2.69595"
         d="m 677.94727,751.375 c -5.65668,0.0784 -11.4459,1.50794 -16.05675,4.89048 -3.29555,2.41107 -5.70502,6.01322 -6.53128,10.02511 -0.77089,3.7702 -0.62597,7.81497 0.81696,11.41066 1.23838,2.93981 3.54483,5.35215 6.18708,7.08977 2.74774,1.74419 6.0179,2.28473 9.08128,3.23197 4.21498,1.16403 8.43769,2.30834 12.62058,3.5834 0.99982,0.387 2.14734,0.60948 2.95244,1.35259 0.78837,1.36294 0.21848,3.28742 -1.1543,4.05664 -2.65015,1.68237 -5.95279,1.69931 -8.98048,1.48043 -5.93353,-0.49962 -11.32355,-3.57054 -15.79029,-7.35451 -0.50349,-0.41111 -1.00699,-0.82222 -1.51048,-1.23334 -2.54293,4.40107 -5.08529,8.80246 -7.62891,13.20313 3.82653,3.30178 8.02703,6.29545 12.82053,8.01182 5.711,2.44578 12.08281,2.90101 18.21633,2.39643 5.47398,-0.49988 10.97991,-2.26504 15.2776,-5.77935 3.86983,-3.22274 6.35338,-8.07501 6.5433,-13.12379 0.19495,-3.9185 -0.46938,-8.08798 -2.93783,-11.25706 -2.03053,-2.78964 -5.1127,-4.64262 -8.29407,-5.84749 -3.36241,-1.05391 -6.78685,-1.89692 -10.15325,-2.94055 -3.3899,-1.00566 -6.85454,-1.76179 -10.20698,-2.89165 -0.79942,-0.48733 -1.55837,-1.38145 -1.18164,-2.37696 0.4354,-1.31753 1.91595,-1.80271 3.05814,-2.33412 3.03114,-1.12057 6.41172,-0.79105 9.46456,0.0705 2.93348,0.99399 5.6973,2.47802 8.2657,4.20069 0.81425,0.58097 1.6268,1.1643 2.44011,1.74657 2.56233,-4.38514 5.12572,-8.76966 7.68555,-13.15625 -4.22268,-2.77654 -8.65943,-5.29556 -13.43037,-7.00113 -3.72238,-1.21027 -7.68043,-1.50393 -11.57353,-1.45395 z" />
      <path
         id="path7777"
         style="font-size:19.7851px;font-family:Arcon;-inkscape-font-specification:'Opentalk-750, Normal';fill:#ffffff;fill-opacity:0.913725;stroke-width:2.69595"
         d="m 20.587891,733.51758 c -9.188939,24.14643 -18.3767793,48.29328 -27.5664066,72.43945 5.0235953,2.90633 10.043301,5.81938 15.0664062,8.72656 2.4111504,-6.52622 4.8271024,-13.05067 7.2402344,-19.57617 9.785807,0 19.571615,0 29.357422,0 2.451316,6.52208 4.901196,13.0447 7.353515,19.56641 5.161986,-2.97726 10.324356,-5.95385 15.488282,-8.92774 C 58.21221,781.24 48.896073,756.73428 39.580078,732.22852 c -6.167318,0 -12.334635,0 -18.501953,0 -0.163411,0.42968 -0.326823,0.85937 -0.490234,1.28906 z m 18.138671,45.51367 c -5.715494,0 -11.430989,0 -17.146484,0 2.817708,-7.43229 5.635417,-14.86458 8.453125,-22.29687 2.897787,7.43229 5.795573,14.86458 8.693359,22.29687 z" />
      <path
         id="path7779"
         style="font-size:19.7851px;font-family:Arcon;-inkscape-font-specification:'Opentalk-750, Normal';fill:#ffffff;fill-opacity:0.913725;stroke-width:2.69595"
         d="m 80.566406,751.79102 c -4.391369,2.48551 -8.781707,4.97284 -13.173828,7.45703 2.939241,5.17162 5.877548,10.34378 8.816406,15.51562 0,12.46094 0,24.92188 0,37.38281 5.790365,0 11.58073,0 17.371094,0 0.01614,-11.12089 -0.0324,-22.24258 0.02447,-33.36298 0.188777,-3.5469 1.294018,-7.38569 4.215809,-9.64411 1.950574,-1.41164 4.240833,-2.48835 6.693683,-2.49474 2.77385,-0.0683 5.90524,0.49817 7.71251,2.81043 2.17847,2.24965 2.47507,5.58335 2.48047,8.56172 0,11.37656 0,22.75312 0,34.12968 5.75456,0 11.50912,0 17.26367,0 -0.0155,-12.35799 0.0311,-24.7166 -0.0234,-37.07421 -0.17211,-5.66226 -1.64318,-11.51927 -5.37256,-15.91895 -3.37374,-4.14153 -8.50106,-6.6122 -13.75209,-7.2655 -4.20946,-0.55747 -8.59328,-0.58883 -12.65048,0.81898 -3.280018,1.06356 -6.375838,2.77809 -8.807417,5.24856 -1.064732,1.03959 -2.043664,2.16484 -2.956515,3.33956 -2.042326,-3.49218 -4.084537,-6.98443 -6.126953,-10.47656 -0.571615,0.32422 -1.143229,0.64844 -1.714844,0.97266 z" />
      <path
         id="path7781"
         style="font-size:19.7851px;font-family:Arcon;-inkscape-font-specification:'Opentalk-750, Normal';fill:#ffffff;fill-opacity:0.913725;stroke-width:2.69595"
         d="m 166.58594,751.54688 c -4.8531,0.1135 -9.73492,1.41481 -13.78158,4.14912 -5.62187,3.10819 -9.41606,8.7266 -11.60456,14.64239 -3.6283,9.65459 -2.78033,20.8727 2.23026,29.88212 2.34402,4.12041 5.85477,7.52609 9.97707,9.85194 5.6435,3.49731 12.62588,4.47618 19.11344,3.36421 5.82294,-1.05631 11.18076,-4.20297 15.14053,-8.57506 0.43774,-0.45535 0.86286,-0.92278 1.28031,-1.39676 2.1675,3.69977 4.33269,7.40088 6.50195,11.09961 5.01208,-2.76603 10.02576,-5.52916 15.03906,-8.29297 -2.98524,-5.10832 -5.97141,-10.21611 -8.95703,-15.32421 0,-12.56316 0,-25.12631 0,-37.68946 -5.79036,0 -11.58073,0 -17.37109,0 0,1.34375 0,2.6875 0,4.03125 -2.28045,-1.86412 -4.80007,-3.52978 -7.6536,-4.35879 -3.19011,-1.04184 -6.56294,-1.49147 -9.91476,-1.38339 z m 4.6289,15.65039 c 3.48681,0.0894 6.98417,1.51155 9.26954,4.19921 3.03226,3.26706 3.79427,7.94462 3.6495,12.24938 -0.0987,4.07721 -1.19574,8.39893 -4.23544,11.29945 -2.35215,2.33766 -5.67835,3.44368 -8.95071,3.48641 -3.01967,0.10137 -6.11709,-0.64368 -8.6642,-2.28735 -1.83973,-1.24699 -3.10192,-3.16751 -3.81487,-5.24719 -1.89879,-4.61312 -2.09502,-9.90284 -0.63309,-14.66351 1.06125,-3.30574 3.28123,-6.42641 6.59116,-7.75085 2.11569,-0.99555 4.45793,-1.40666 6.78811,-1.28555 z" />
      <path
         id="path7783"
         style="font-size:19.7851px;font-family:Arcon;-inkscape-font-specification:'Opentalk-750, Normal';fill:#ffffff;fill-opacity:0.913725;stroke-width:2.69595"
         d="m 215.53516,731.96484 c 0,26.72722 0,53.45443 0,80.18164 5.71875,0 11.4375,0 17.15625,0 0,-27.39388 0,-54.78776 0,-82.18164 -5.71875,0 -11.4375,0 -17.15625,0 0,0.66667 0,1.33334 0,2 z" />
      <path
         id="path7785"
         style="font-size:19.7851px;font-family:Arcon;-inkscape-font-specification:'Opentalk-750, Normal';fill:#ffffff;fill-opacity:0.913725;stroke-width:2.69595"
         d="m 239.56641,752.85352 c 0,3.95377 0,7.90755 0,11.86132 6.13592,14.92948 12.27074,29.85941 18.40625,44.78907 -1.33855,3.32356 -2.67709,6.64713 -4.01563,9.9707 -4.722,0 -9.44401,0 -14.16601,0 0,4.38867 0,8.77734 0,13.16601 8.88281,0 17.76562,10e-6 26.64843,0 9.21461,-22.64411 18.43302,-45.28669 27.65039,-67.92968 0,-4.61914 0,-9.23828 0,-13.85742 -5.80794,0 -11.61588,0 -17.42382,0 0,4.36458 0,8.72916 0,13.09375 -3.21022,8.4468 -6.47712,16.84277 -9.75391,25.27539 -3.30729,-8.42644 -6.61458,-16.85287 -9.92188,-25.2793 0,-4.36328 0,-8.72656 0,-13.08984 -5.80794,0 -11.61588,0 -17.42382,0 0,0.66666 0,1.33333 0,2 z" />
      <path
         id="path7787"
         style="font-size:19.7851px;font-family:Arcon;-inkscape-font-specification:'Opentalk-750, Normal';fill:#ffffff;fill-opacity:0.913725;stroke-width:2.69595"
         d="m 321.7168,751.54102 c -5.5593,0.0749 -11.23379,1.46113 -15.8125,4.71093 -3.35491,2.38198 -5.85152,5.97064 -6.72747,10.00763 -0.82135,3.79596 -0.68878,7.877 0.73333,11.51581 1.23584,2.99282 3.57645,5.44661 6.26172,7.20313 2.71237,1.70908 5.9285,2.25527 8.94959,3.18242 4.23654,1.17111 8.48082,2.32208 12.68599,3.6013 1.00951,0.39519 2.18154,0.60876 2.98942,1.37057 0.79207,1.38466 0.18956,3.32355 -1.21144,4.0789 -2.64382,1.65468 -5.92441,1.6652 -8.93499,1.4496 -5.89511,-0.50115 -11.26192,-3.53345 -15.70497,-7.29261 -0.52935,-0.43279 -1.05871,-0.86559 -1.58806,-1.29839 -2.5448,4.40232 -5.08781,8.80566 -7.63086,13.20899 3.82825,3.29789 8.02605,6.29007 12.81679,8.00948 5.74464,2.45257 12.15132,2.90981 18.31764,2.38716 5.45104,-0.51365 10.93165,-2.28359 15.20542,-5.79313 3.88363,-3.24118 6.35629,-8.12982 6.52328,-13.20021 0.18079,-3.90584 -0.50507,-8.05311 -2.97446,-11.20213 -2.03171,-2.76316 -5.09464,-4.60088 -8.25647,-5.80199 -3.33237,-1.04492 -6.72735,-1.87781 -10.06321,-2.91442 -3.42123,-1.01987 -6.91949,-1.78093 -10.30532,-2.91836 -0.79736,-0.48969 -1.55242,-1.38503 -1.17968,-2.3789 0.45805,-1.34342 1.9753,-1.83696 3.15173,-2.36738 3.00947,-1.07639 6.34893,-0.74843 9.37089,0.10593 2.93176,0.98779 5.68859,2.47586 8.25604,4.19258 0.81705,0.58316 1.63452,1.16572 2.45181,1.74855 2.56289,-4.38415 5.12456,-8.76902 7.68554,-13.15429 -4.25505,-2.78742 -8.71867,-5.32901 -13.52722,-7.03071 -3.69857,-1.18008 -7.62013,-1.47526 -11.48254,-1.42046 z" />
      <path
         id="path7789"
         style="font-size:19.7851px;font-family:Arcon;-inkscape-font-specification:'Opentalk-750, Normal';fill:#ffffff;fill-opacity:0.913725;stroke-width:2.69595"
         d="m 363.92383,728.89648 c -4.093,0.0895 -7.81827,2.97012 -9.31868,6.71264 -1.46781,3.71351 -0.65548,8.22898 2.13004,11.11799 2.392,2.67489 6.21994,3.79691 9.71012,3.1225 4.83965,-0.81917 8.60846,-5.48926 8.48242,-10.38086 0.0531,-3.08482 -1.40397,-6.08097 -3.74795,-8.06115 -1.96614,-1.76754 -4.62433,-2.64999 -7.25595,-2.51112 z m -8.20117,26.36133 c 0,18.96289 0,37.92578 0,56.88867 5.7552,0 11.51041,0 17.26562,0 0,-19.62955 0,-39.25911 0,-58.88867 -5.75521,0 -11.51042,0 -17.26562,0 0,0.66667 0,1.33334 0,2 z" />
      <path
         id="path7791"
         style="font-size:19.7851px;font-family:Arcon;-inkscape-font-specification:'Opentalk-750, Normal';fill:#ffffff;fill-opacity:0.913725;stroke-width:2.69595"
         d="m 404.9668,751.54102 c -5.55855,0.0754 -11.23324,1.46053 -15.81055,4.71093 -3.41358,2.41705 -5.92786,6.09024 -6.77134,10.20276 -0.77758,3.8022 -0.62797,7.88728 0.85421,11.50443 1.25601,2.90964 3.55176,5.29901 6.18276,7.01938 2.71237,1.70907 5.92849,2.25531 8.9496,3.18238 4.24703,1.17341 8.50152,2.32772 12.71722,3.60918 1.00013,0.38967 2.15077,0.6102 2.95427,1.35687 0.79695,1.38509 0.19718,3.32764 -1.20746,4.08487 -2.63118,1.64923 -5.89836,1.66378 -8.8961,1.45252 -5.94344,-0.49345 -11.34755,-3.56168 -15.81725,-7.35721 -0.50426,-0.41293 -1.00852,-0.82585 -1.51278,-1.23877 -2.54359,4.40339 -5.08813,8.80623 -7.63282,13.20898 3.81888,3.29235 8.00881,6.2799 12.78752,7.99966 5.753,2.46242 12.17156,2.92284 18.34886,2.39885 5.45037,-0.51389 10.93055,-2.28349 15.20347,-5.79304 3.9148,-3.26148 6.38729,-8.19939 6.52909,-13.306 0.15814,-3.85544 -0.52159,-7.94266 -2.95097,-11.05533 -2.02956,-2.78649 -5.10861,-4.63662 -8.28577,-5.843 -3.33237,-1.04492 -6.72735,-1.87781 -10.06321,-2.91442 -3.42143,-1.01925 -6.91902,-1.78197 -10.30532,-2.91836 -0.79648,-0.49166 -1.55763,-1.38803 -1.17578,-2.38281 0.45579,-1.33947 1.96881,-1.83037 3.14162,-2.36051 2.97534,-1.07036 6.279,-0.75584 9.2733,0.073 2.84045,0.92583 5.50283,2.36053 8.00501,3.98091 0.94743,0.64711 1.87062,1.32939 2.80859,1.99022 2.56289,-4.38415 5.12456,-8.76902 7.68555,-13.15429 -4.25691,-2.78551 -8.71935,-5.3301 -13.52918,-7.03071 -3.69827,-1.1808 -7.6203,-1.47496 -11.48254,-1.42046 z" />
      <path
         id="path7808"
         clip-path="none"
         style="display:inline;fill:#ffffff;fill-opacity:0.913725;fill-rule:evenodd;stroke:none;stroke-width:0.488446"
         d="m -100.51953,702.26953 c -1.64111,0.0253 -3.27928,0.12729 -4.91797,0.21485 -1.30806,4.18355 -2.61587,8.36719 -3.92383,12.55078 -2.15486,0.36633 -4.29103,0.83997 -6.39844,1.41992 -2.88654,-3.35757 -5.77478,-6.71369 -8.66015,-10.07227 -6.68863,2.30771 -13.06824,5.49034 -18.9212,9.46679 -0.64983,0.28915 0.0216,1.11501 0.002,1.6601 0.88661,3.96943 1.77323,7.93885 2.65984,11.90827 -1.62157,1.34376 -3.18099,2.76248 -4.66797,4.25391 -4.33915,-1.40637 -8.67868,-2.8116 -13.01757,-4.21876 -4.49173,5.42468 -8.30026,11.41464 -11.21623,17.82858 -0.51325,0.6029 0.46351,0.96304 0.75334,1.4351 2.7513,2.85351 5.5026,5.70703 8.2539,8.56054 -0.77238,2.04258 -1.43963,4.12417 -2.00781,6.23243 -4.28845,0.91518 -8.57653,1.83209 -12.86524,2.74609 -1.16636,6.97486 -1.45103,14.0946 -0.77076,21.13556 -0.0584,0.71032 0.98906,0.5173 1.45866,0.79639 3.58385,1.03114 7.16771,2.06229 10.75156,3.09344 0.37551,2.35053 0.87546,4.681 1.49804,6.97852 -3.11396,2.80791 -6.22762,5.61614 -9.34179,8.42382 2.46911,6.59262 5.78435,12.86132 9.86095,18.60135 0.26484,0.75325 1.06809,0.0866 1.62538,0.0686 3.47591,-0.86589 6.95182,-1.73178 10.42773,-2.59766 1.60216,1.97076 3.31501,3.85107 5.12891,5.62891 -1.34066,3.817 -2.6797,7.63457 -4.02149,11.45117 5.32599,4.60619 11.21784,8.55952 17.55244,11.64192 0.59215,0.53321 0.97736,-0.43657 1.45733,-0.71809 2.74479,-2.52539 5.48958,-5.05079 8.23437,-7.57618 2.22781,0.8329 4.49962,1.54711 6.80274,2.14063 0.78773,4.1517 1.57576,8.30334 2.36328,12.45508 6.97443,1.35208 14.119751,1.78779 21.205843,1.27316 0.608434,-0.0533 0.473497,-1.06296 0.760183,-1.53043 1.151949,-3.67791 2.303898,-7.35583 3.455847,-11.03375 2.152779,-0.37013 4.288084,-0.84117 6.394531,-1.41992 2.885321,3.35685 5.771573,6.71291 8.65625,10.07031 6.602774,-2.27444 12.897567,-5.41349 18.69222,-9.31021 0.630746,-0.31547 1.148217,-0.65328 0.432609,-1.23434 -5.312502,-7.68408 -10.622063,-15.37019 -15.933422,-23.05506 1.180534,-1.0194 2.360911,-2.039 3.542968,-3.05664 -2.377565,-3.18004 -4.752822,-6.36181 -7.128906,-9.54297 -3.127328,2.6333 -6.499665,5.02091 -10.261565,6.66228 -9.912439,4.49838 -21.753728,4.41435 -31.614318,-0.18687 -10.36753,-4.72886 -18.33387,-14.36153 -21.01902,-25.43761 -2.63617,-10.45904 -0.56155,-21.99595 5.60483,-30.85279 5.89882,-8.61133 15.4585,-14.62199 25.80205,-16.09938 10.394061,-1.58739 21.391452,1.36027 29.553075,8.00233 5.246788,4.22454 9.35554,9.85131 11.753307,16.14837 0.136124,0.37223 0.408163,1.10654 0.574219,1.6211 1.599191,4.8452 2.200292,10.01146 1.785157,15.0957 -0.0366,0.36683 -0.105364,1.1245 -0.171876,1.63867 -0.973507,7.93998 -4.546184,15.51324 -10.014614,21.34654 -0.407458,0.46853 -1.122039,0.94611 -0.286426,1.37804 2.659908,2.67288 5.318035,5.34752 7.976822,8.02151 1.179828,-1.02012 2.360458,-2.03931 3.541015,-3.05859 6.909924,6.45272 13.821905,12.90324 20.730469,19.35742 3.893747,-4.74326 7.398094,-9.82565 10.153559,-15.31851 0.581238,-1.13873 1.116303,-2.30009 1.668707,-3.45297 -3.075751,-3.18342 -6.148238,-6.36999 -9.222656,-9.55469 0.771198,-2.04504 1.442228,-4.12767 2.009765,-6.23828 4.285809,-0.91406 8.571603,-1.82818 12.857422,-2.74219 1.184779,-7.00785 1.455752,-14.16385 0.774593,-21.23915 -0.06805,-0.60708 -1.072737,-0.44891 -1.54687,-0.72437 -3.553121,-1.02257 -7.106242,-2.04515 -10.659364,-3.06773 -0.377685,-2.34945 -0.875855,-4.67959 -1.498046,-6.97656 3.115841,-2.80864 6.232117,-5.6168 9.347656,-8.42578 -2.441874,-6.49469 -5.68516,-12.6857 -9.692931,-18.35219 -0.247887,-0.80333 -0.878663,-0.59951 -1.513442,-0.38516 -3.571977,0.88843 -7.143645,1.77812 -10.715502,2.66703 -1.602584,-1.96847 -3.31212,-3.85007 -5.125,-5.62695 1.337965,-3.81703 2.675185,-7.63432 4.013672,-11.45117 -5.343168,-4.63442 -11.267379,-8.59746 -17.631832,-11.68916 -0.577625,-0.42224 -0.959596,0.57649 -1.443696,0.83306 -2.718965,2.50281 -5.43793,5.00563 -8.156894,7.50844 -2.230223,-0.83175 -4.503534,-1.54719 -6.808594,-2.14062 -0.785856,-4.15234 -1.571233,-8.30476 -2.357422,-12.45703 -5.462589,-1.0411 -11.021313,-1.57522 -16.583983,-1.47266 z" />
      <path
         id="path7810"
         style="fill:#ffffff;fill-opacity:0.913725;fill-rule:nonzero;stroke:none;stroke-width:0.488446"
         d="m -98.742188,748.99805 c -8.291332,0.12068 -16.472152,3.64074 -22.218442,9.62649 -6.22291,6.34399 -9.56606,15.3885 -8.91381,24.25598 0.51717,8.33424 4.50342,16.37424 10.8261,21.82917 6.57254,5.77928 15.60698,8.63224 24.305427,7.6265 8.629302,-0.88417 16.771062,-5.52902 21.948632,-12.4851 5.22937,-6.87571 7.425249,-15.94365 5.92155,-24.45043 -1.423657,-8.67436 -6.687379,-16.60206 -14.089199,-21.33238 -5.251205,-3.40741 -11.521053,-5.19772 -17.780258,-5.07023 z m -18.427732,31.88476 c 2.98932,6.25944 7.48041,11.81821 13.13023,15.86672 1.37083,0.99952 2.79859,1.92107 4.274065,2.75828 -4.291435,-0.26199 -8.394005,-2.21221 -11.492185,-5.16211 -0.19168,-0.19722 -0.76848,-0.74421 -1.07875,-1.11242 -3.0679,-3.40099 -4.96321,-7.91918 -4.91539,-12.52625 l 0.0423,0.0906 z" />
      <path
         id="path7812"
         style="font-size:19.7851px;line-height:1.25;font-family:Opentalk-750;-inkscape-font-specification:'Opentalk-750, Normal';fill:#ffffff;fill-opacity:0.913725;stroke-width:2.69595"
         d="m 440.17383,733.05859 c -2.92962,5.02609 -5.86133,10.05095 -8.78906,15.07813 8.90364,0 17.80729,0 26.71093,0 0,21.2806 0,42.5612 0,63.8418 5.86459,0 11.72917,0 17.59375,0 0,-21.2806 0,-42.5612 0,-63.8418 7.04753,0 14.09506,0 21.14258,0 3.12532,-5.35545 6.24773,-10.71259 9.36914,-16.07031 -21.81575,0 -43.63151,0 -65.44726,0 -0.19336,0.33073 -0.38672,0.66145 -0.58008,0.99218 z" />
      <path
         id="path7814"
         style="font-size:19.7851px;line-height:1.25;font-family:Opentalk-750;-inkscape-font-specification:'Opentalk-750, Normal';fill:#ffffff;fill-opacity:0.913725;stroke-width:2.69595"
         d="m 522.31641,751.38086 c -7.52585,0.15094 -15.07495,2.82775 -20.68839,7.90738 -5.27098,4.71832 -8.50165,11.46863 -9.35663,18.45172 -0.91469,7.40733 0.1275,15.28065 4.07397,21.72242 3.83425,6.33246 10.18018,11.04215 17.31962,12.96915 5.92467,1.62863 12.26729,1.68265 18.24518,0.29503 7.76263,-1.81876 14.72917,-6.92551 18.6029,-13.91951 3.93693,-6.85608 4.89791,-15.15179 3.52202,-22.86605 -1.07002,-5.72961 -3.79907,-11.16193 -7.80884,-15.39689 -3.67981,-3.81049 -8.44854,-6.52785 -13.53274,-7.96684 -3.36961,-0.94074 -6.88533,-1.28417 -10.37709,-1.19641 z m 1.75195,15.21875 c 3.58329,0.0881 7.12932,1.70102 9.3654,4.53644 3.07315,3.69159 3.74487,8.74208 3.42109,13.38938 -0.24208,3.92149 -1.59949,7.94687 -4.57377,10.64234 -3.08327,2.94741 -7.66956,3.65509 -11.74916,2.98604 -4.12925,-0.59847 -7.6846,-3.5469 -9.36396,-7.31911 -1.71791,-3.82497 -1.91952,-8.18536 -1.3043,-12.28573 0.6749,-4.58022 3.48476,-9.00557 7.81407,-10.89272 2.0058,-0.8688 4.21955,-1.14305 6.39063,-1.05664 z" />
      <path
         id="path7816"
         style="font-size:19.7851px;line-height:1.25;font-family:Opentalk-750;-inkscape-font-specification:'Opentalk-750, Normal';fill:#ffffff;fill-opacity:0.913725;stroke-width:2.69595"
         d="m 589.5,751.38086 c -7.55914,0.15021 -15.14172,2.85262 -20.76301,7.97395 -5.25457,4.73751 -8.45887,11.49914 -9.29491,18.48431 -0.91607,7.54383 0.21203,15.57171 4.35505,22.05889 3.85995,6.11479 10.07656,10.65013 17.05145,12.53352 5.9558,1.63496 12.33544,1.6874 18.34003,0.26998 7.77971,-1.84433 14.74069,-7.00347 18.58873,-14.03549 3.86983,-6.83051 4.80631,-15.06316 3.44133,-22.72502 -1.06343,-5.69836 -3.77031,-11.10057 -7.74171,-15.32654 -3.68947,-3.84722 -8.48546,-6.59088 -13.60182,-8.03719 -3.36906,-0.94065 -6.88402,-1.28433 -10.37514,-1.19641 z m 1.75,15.21875 c 3.52208,0.0878 7.01103,1.64136 9.2501,4.3953 3.07992,3.59474 3.83295,8.56027 3.56085,13.14759 -0.19014,4.0455 -1.51818,8.23859 -4.59373,11.02191 -3.083,2.94916 -7.67101,3.65855 -11.75173,2.9896 -4.16844,-0.60022 -7.74048,-3.60169 -9.41096,-7.4154 -1.71311,-3.91419 -1.8853,-8.36099 -1.20169,-12.53236 0.75934,-4.50878 3.61612,-8.82725 7.9227,-10.61647 1.95983,-0.82202 4.11358,-1.07136 6.22446,-0.99017 z" />
      <path
         id="path7818"
         style="font-size:19.7851px;line-height:1.25;font-family:Opentalk-750;-inkscape-font-specification:'Opentalk-750, Normal';fill:#ffffff;fill-opacity:0.913725;stroke-width:2.69595"
         d="m 629.23828,731.79883 c 0,26.72721 0,53.45443 0,80.18164 5.71875,0 11.4375,0 17.15625,0 0,-27.39388 0,-54.78776 0,-82.18164 -5.71875,0 -11.4375,0 -17.15625,0 0,0.66666 0,1.33333 0,2 z" />
      <path
         id="path7820"
         style="font-size:19.7851px;line-height:1.25;font-family:Opentalk-750;-inkscape-font-specification:'Opentalk-750, Normal';fill:#ffffff;fill-opacity:0.913725;stroke-width:2.69595"
         d="m 677.94727,751.375 c -5.65668,0.0784 -11.4459,1.50794 -16.05675,4.89048 -3.29555,2.41107 -5.70502,6.01322 -6.53128,10.02511 -0.77089,3.7702 -0.62597,7.81497 0.81696,11.41066 1.23838,2.93981 3.54483,5.35215 6.18708,7.08977 2.74774,1.74419 6.0179,2.28473 9.08128,3.23197 4.21498,1.16403 8.43769,2.30834 12.62058,3.5834 0.99982,0.387 2.14734,0.60948 2.95244,1.35259 0.78837,1.36294 0.21848,3.28742 -1.1543,4.05664 -2.65015,1.68237 -5.95279,1.69931 -8.98048,1.48043 -5.93353,-0.49962 -11.32355,-3.57054 -15.79029,-7.35451 -0.50349,-0.41111 -1.00699,-0.82222 -1.51048,-1.23334 -2.54293,4.40107 -5.08529,8.80246 -7.62891,13.20313 3.82653,3.30178 8.02703,6.29545 12.82053,8.01182 5.711,2.44578 12.08281,2.90101 18.21633,2.39643 5.47398,-0.49988 10.97991,-2.26504 15.2776,-5.77935 3.86983,-3.22274 6.35338,-8.07501 6.5433,-13.12379 0.19495,-3.9185 -0.46938,-8.08798 -2.93783,-11.25706 -2.03053,-2.78964 -5.1127,-4.64262 -8.29407,-5.84749 -3.36241,-1.05391 -6.78685,-1.89692 -10.15325,-2.94055 -3.3899,-1.00566 -6.85454,-1.76179 -10.20698,-2.89165 -0.79942,-0.48733 -1.55837,-1.38145 -1.18164,-2.37696 0.4354,-1.31753 1.91595,-1.80271 3.05814,-2.33412 3.03114,-1.12057 6.41172,-0.79105 9.46456,0.0705 2.93348,0.99399 5.6973,2.47802 8.2657,4.20069 0.81425,0.58097 1.6268,1.1643 2.44011,1.74657 2.56233,-4.38514 5.12572,-8.76966 7.68555,-13.15625 -4.22268,-2.77654 -8.65943,-5.29556 -13.43037,-7.00113 -3.72238,-1.21027 -7.68043,-1.50393 -11.57353,-1.45395 z" />
      <path
         id="path7822"
         style="font-size:19.7851px;font-family:Arcon;-inkscape-font-specification:'Opentalk-750, Normal';fill:#ffffff;fill-opacity:0.913725;stroke-width:2.69595"
         d="m 20.587891,733.51758 c -9.188939,24.14643 -18.3767793,48.29328 -27.5664066,72.43945 5.0235953,2.90633 10.043301,5.81938 15.0664062,8.72656 2.4111504,-6.52622 4.8271024,-13.05067 7.2402344,-19.57617 9.785807,0 19.571615,0 29.357422,0 2.451316,6.52208 4.901196,13.0447 7.353515,19.56641 5.161986,-2.97726 10.324356,-5.95385 15.488282,-8.92774 C 58.21221,781.24 48.896073,756.73428 39.580078,732.22852 c -6.167318,0 -12.334635,0 -18.501953,0 -0.163411,0.42968 -0.326823,0.85937 -0.490234,1.28906 z m 18.138671,45.51367 c -5.715494,0 -11.430989,0 -17.146484,0 2.817708,-7.43229 5.635417,-14.86458 8.453125,-22.29687 2.897787,7.43229 5.795573,14.86458 8.693359,22.29687 z" />
      <path
         id="path7824"
         style="font-size:19.7851px;font-family:Arcon;-inkscape-font-specification:'Opentalk-750, Normal';fill:#ffffff;fill-opacity:0.913725;stroke-width:2.69595"
         d="m 80.566406,751.79102 c -4.391369,2.48551 -8.781707,4.97284 -13.173828,7.45703 2.939241,5.17162 5.877548,10.34378 8.816406,15.51562 0,12.46094 0,24.92188 0,37.38281 5.790365,0 11.58073,0 17.371094,0 0.01614,-11.12089 -0.0324,-22.24258 0.02447,-33.36298 0.188777,-3.5469 1.294018,-7.38569 4.215809,-9.64411 1.950574,-1.41164 4.240833,-2.48835 6.693683,-2.49474 2.77385,-0.0683 5.90524,0.49817 7.71251,2.81043 2.17847,2.24965 2.47507,5.58335 2.48047,8.56172 0,11.37656 0,22.75312 0,34.12968 5.75456,0 11.50912,0 17.26367,0 -0.0155,-12.35799 0.0311,-24.7166 -0.0234,-37.07421 -0.17211,-5.66226 -1.64318,-11.51927 -5.37256,-15.91895 -3.37374,-4.14153 -8.50106,-6.6122 -13.75209,-7.2655 -4.20946,-0.55747 -8.59328,-0.58883 -12.65048,0.81898 -3.280018,1.06356 -6.375838,2.77809 -8.807417,5.24856 -1.064732,1.03959 -2.043664,2.16484 -2.956515,3.33956 -2.042326,-3.49218 -4.084537,-6.98443 -6.126953,-10.47656 -0.571615,0.32422 -1.143229,0.64844 -1.714844,0.97266 z" />
      <path
         id="path7826"
         style="font-size:19.7851px;font-family:Arcon;-inkscape-font-specification:'Opentalk-750, Normal';fill:#ffffff;fill-opacity:0.913725;stroke-width:2.69595"
         d="m 166.58594,751.54688 c -4.8531,0.1135 -9.73492,1.41481 -13.78158,4.14912 -5.62187,3.10819 -9.41606,8.7266 -11.60456,14.64239 -3.6283,9.65459 -2.78033,20.8727 2.23026,29.88212 2.34402,4.12041 5.85477,7.52609 9.97707,9.85194 5.6435,3.49731 12.62588,4.47618 19.11344,3.36421 5.82294,-1.05631 11.18076,-4.20297 15.14053,-8.57506 0.43774,-0.45535 0.86286,-0.92278 1.28031,-1.39676 2.1675,3.69977 4.33269,7.40088 6.50195,11.09961 5.01208,-2.76603 10.02576,-5.52916 15.03906,-8.29297 -2.98524,-5.10832 -5.97141,-10.21611 -8.95703,-15.32421 0,-12.56316 0,-25.12631 0,-37.68946 -5.79036,0 -11.58073,0 -17.37109,0 0,1.34375 0,2.6875 0,4.03125 -2.28045,-1.86412 -4.80007,-3.52978 -7.6536,-4.35879 -3.19011,-1.04184 -6.56294,-1.49147 -9.91476,-1.38339 z m 4.6289,15.65039 c 3.48681,0.0894 6.98417,1.51155 9.26954,4.19921 3.03226,3.26706 3.79427,7.94462 3.6495,12.24938 -0.0987,4.07721 -1.19574,8.39893 -4.23544,11.29945 -2.35215,2.33766 -5.67835,3.44368 -8.95071,3.48641 -3.01967,0.10137 -6.11709,-0.64368 -8.6642,-2.28735 -1.83973,-1.24699 -3.10192,-3.16751 -3.81487,-5.24719 -1.89879,-4.61312 -2.09502,-9.90284 -0.63309,-14.66351 1.06125,-3.30574 3.28123,-6.42641 6.59116,-7.75085 2.11569,-0.99555 4.45793,-1.40666 6.78811,-1.28555 z" />
      <path
         id="path7828"
         style="font-size:19.7851px;font-family:Arcon;-inkscape-font-specification:'Opentalk-750, Normal';fill:#ffffff;fill-opacity:0.913725;stroke-width:2.69595"
         d="m 215.53516,731.96484 c 0,26.72722 0,53.45443 0,80.18164 5.71875,0 11.4375,0 17.15625,0 0,-27.39388 0,-54.78776 0,-82.18164 -5.71875,0 -11.4375,0 -17.15625,0 0,0.66667 0,1.33334 0,2 z" />
      <path
         id="path7830"
         style="font-size:19.7851px;font-family:Arcon;-inkscape-font-specification:'Opentalk-750, Normal';fill:#ffffff;fill-opacity:0.913725;stroke-width:2.69595"
         d="m 239.56641,752.85352 c 0,3.95377 0,7.90755 0,11.86132 6.13592,14.92948 12.27074,29.85941 18.40625,44.78907 -1.33855,3.32356 -2.67709,6.64713 -4.01563,9.9707 -4.722,0 -9.44401,0 -14.16601,0 0,4.38867 0,8.77734 0,13.16601 8.88281,0 17.76562,10e-6 26.64843,0 9.21461,-22.64411 18.43302,-45.28669 27.65039,-67.92968 0,-4.61914 0,-9.23828 0,-13.85742 -5.80794,0 -11.61588,0 -17.42382,0 0,4.36458 0,8.72916 0,13.09375 -3.21022,8.4468 -6.47712,16.84277 -9.75391,25.27539 -3.30729,-8.42644 -6.61458,-16.85287 -9.92188,-25.2793 0,-4.36328 0,-8.72656 0,-13.08984 -5.80794,0 -11.61588,0 -17.42382,0 0,0.66666 0,1.33333 0,2 z" />
      <path
         id="path7832"
         style="font-size:19.7851px;font-family:Arcon;-inkscape-font-specification:'Opentalk-750, Normal';fill:#ffffff;fill-opacity:0.913725;stroke-width:2.69595"
         d="m 321.7168,751.54102 c -5.5593,0.0749 -11.23379,1.46113 -15.8125,4.71093 -3.35491,2.38198 -5.85152,5.97064 -6.72747,10.00763 -0.82135,3.79596 -0.68878,7.877 0.73333,11.51581 1.23584,2.99282 3.57645,5.44661 6.26172,7.20313 2.71237,1.70908 5.9285,2.25527 8.94959,3.18242 4.23654,1.17111 8.48082,2.32208 12.68599,3.6013 1.00951,0.39519 2.18154,0.60876 2.98942,1.37057 0.79207,1.38466 0.18956,3.32355 -1.21144,4.0789 -2.64382,1.65468 -5.92441,1.6652 -8.93499,1.4496 -5.89511,-0.50115 -11.26192,-3.53345 -15.70497,-7.29261 -0.52935,-0.43279 -1.05871,-0.86559 -1.58806,-1.29839 -2.5448,4.40232 -5.08781,8.80566 -7.63086,13.20899 3.82825,3.29789 8.02605,6.29007 12.81679,8.00948 5.74464,2.45257 12.15132,2.90981 18.31764,2.38716 5.45104,-0.51365 10.93165,-2.28359 15.20542,-5.79313 3.88363,-3.24118 6.35629,-8.12982 6.52328,-13.20021 0.18079,-3.90584 -0.50507,-8.05311 -2.97446,-11.20213 -2.03171,-2.76316 -5.09464,-4.60088 -8.25647,-5.80199 -3.33237,-1.04492 -6.72735,-1.87781 -10.06321,-2.91442 -3.42123,-1.01987 -6.91949,-1.78093 -10.30532,-2.91836 -0.79736,-0.48969 -1.55242,-1.38503 -1.17968,-2.3789 0.45805,-1.34342 1.9753,-1.83696 3.15173,-2.36738 3.00947,-1.07639 6.34893,-0.74843 9.37089,0.10593 2.93176,0.98779 5.68859,2.47586 8.25604,4.19258 0.81705,0.58316 1.63452,1.16572 2.45181,1.74855 2.56289,-4.38415 5.12456,-8.76902 7.68554,-13.15429 -4.25505,-2.78742 -8.71867,-5.32901 -13.52722,-7.03071 -3.69857,-1.18008 -7.62013,-1.47526 -11.48254,-1.42046 z" />
      <path
         id="path7834"
         style="font-size:19.7851px;font-family:Arcon;-inkscape-font-specification:'Opentalk-750, Normal';fill:#ffffff;fill-opacity:0.913725;stroke-width:2.69595"
         d="m 363.92383,728.89648 c -4.093,0.0895 -7.81827,2.97012 -9.31868,6.71264 -1.46781,3.71351 -0.65548,8.22898 2.13004,11.11799 2.392,2.67489 6.21994,3.79691 9.71012,3.1225 4.83965,-0.81917 8.60846,-5.48926 8.48242,-10.38086 0.0531,-3.08482 -1.40397,-6.08097 -3.74795,-8.06115 -1.96614,-1.76754 -4.62433,-2.64999 -7.25595,-2.51112 z m -8.20117,26.36133 c 0,18.96289 0,37.92578 0,56.88867 5.7552,0 11.51041,0 17.26562,0 0,-19.62955 0,-39.25911 0,-58.88867 -5.75521,0 -11.51042,0 -17.26562,0 0,0.66667 0,1.33334 0,2 z" />
      <path
         id="path7836"
         style="font-size:19.7851px;font-family:Arcon;-inkscape-font-specification:'Opentalk-750, Normal';fill:#ffffff;fill-opacity:0.913725;stroke-width:2.69595"
         d="m 404.9668,751.54102 c -5.55855,0.0754 -11.23324,1.46053 -15.81055,4.71093 -3.41358,2.41705 -5.92786,6.09024 -6.77134,10.20276 -0.77758,3.8022 -0.62797,7.88728 0.85421,11.50443 1.25601,2.90964 3.55176,5.29901 6.18276,7.01938 2.71237,1.70907 5.92849,2.25531 8.9496,3.18238 4.24703,1.17341 8.50152,2.32772 12.71722,3.60918 1.00013,0.38967 2.15077,0.6102 2.95427,1.35687 0.79695,1.38509 0.19718,3.32764 -1.20746,4.08487 -2.63118,1.64923 -5.89836,1.66378 -8.8961,1.45252 -5.94344,-0.49345 -11.34755,-3.56168 -15.81725,-7.35721 -0.50426,-0.41293 -1.00852,-0.82585 -1.51278,-1.23877 -2.54359,4.40339 -5.08813,8.80623 -7.63282,13.20898 3.81888,3.29235 8.00881,6.2799 12.78752,7.99966 5.753,2.46242 12.17156,2.92284 18.34886,2.39885 5.45037,-0.51389 10.93055,-2.28349 15.20347,-5.79304 3.9148,-3.26148 6.38729,-8.19939 6.52909,-13.306 0.15814,-3.85544 -0.52159,-7.94266 -2.95097,-11.05533 -2.02956,-2.78649 -5.10861,-4.63662 -8.28577,-5.843 -3.33237,-1.04492 -6.72735,-1.87781 -10.06321,-2.91442 -3.42143,-1.01925 -6.91902,-1.78197 -10.30532,-2.91836 -0.79648,-0.49166 -1.55763,-1.38803 -1.17578,-2.38281 0.45579,-1.33947 1.96881,-1.83037 3.14162,-2.36051 2.97534,-1.07036 6.279,-0.75584 9.2733,0.073 2.84045,0.92583 5.50283,2.36053 8.00501,3.98091 0.94743,0.64711 1.87062,1.32939 2.80859,1.99022 2.56289,-4.38415 5.12456,-8.76902 7.68555,-13.15429 -4.25691,-2.78551 -8.71935,-5.3301 -13.52918,-7.03071 -3.69827,-1.1808 -7.6203,-1.47496 -11.48254,-1.42046 z" />
    </g>
    <g
       id="g7885"
       transform="translate(38.469901,358.04618)">
      <path
         d="m -149.1817,498.00047 -2.34484,-12.36009 c -3.08349,-0.72548 -6.07697,-1.66996 -8.96649,-2.81611 l -9.149,8.41483 c -5.40337,-2.68994 -10.54228,-6.06678 -15.30835,-10.09841 l 3.98645,-11.35301 c -2.40994,-2.27027 -4.64262,-4.72106 -6.67878,-7.33163 l -11.67431,2.90862 c -3.56705,-5.11666 -6.45004,-10.5471 -8.63073,-16.17322 l 9.23154,-8.32715 c -0.8734,-2.98628 -1.53538,-6.05649 -1.97094,-9.197 l -12.0837,-3.47621 c -0.52923,-6.11368 -0.31111,-12.26549 0.63104,-18.31628 l 12.71833,-2.71419 c 0.71197,-2.88581 1.62323,-5.68741 2.70544,-8.40017 l -9.14086,-9.47966 c 2.56096,-5.48989 5.80405,-10.70011 9.72435,-15.54401 l 12.87709,4.17041 c 1.98108,-2.05897 4.0949,-3.98452 6.32941,-5.76547 l -2.95118,-13.21191 c 5.1827,-3.44808 10.6758,-6.19616 16.37622,-8.23946 l 8.58933,9.9888 c 2.80409,-0.82534 5.6796,-1.47315 8.62176,-1.9137 l 3.87856,-12.40594 c 6.11982,-0.38363 12.26599,-0.0221 18.30017,1.06699 l 2.33769,12.36016 c 3.08671,0.72575 6.08268,1.67178 8.97468,2.81937 l 9.14807,-8.41882 c 5.402591,2.69128 10.542171,6.06734 15.299821,10.09902 l -3.98019,11.3555 c 2.40811,2.2695 4.63891,4.71869 6.67457,7.32798 l 11.68073,-2.90746 c 3.5665,5.11534 6.45009,10.54654 8.63013,16.17262 l -9.23658,8.32543 c 0.87333,2.98617 1.53599,6.05649 1.97144,9.19761 l 12.08823,3.47726 c 0.5209,6.11428 0.31111,12.26682 -0.63995,18.32009 l -12.71351,2.71259 c -0.71208,2.88714 -1.62412,5.69007 -2.70716,8.4046 l 9.1469,9.47767 c -2.54203,5.44582 -5.76796,10.6169 -9.64153,15.43557 l -20.45674,-19.10055 -3.489711,3.01207 -5.83184,-5.86394 c 13.407651,-14.81638 13.988421,-37.64026 0.59505,-53.15416 -14.49507,-16.78948 -39.85611,-18.65009 -56.64636,-4.15496 -16.78954,14.49501 -18.6502,39.85677 -4.15441,56.64631 14.28033,16.54119 39.10056,18.58039 55.88805,4.77764 l 4.77427,6.38997 -3.48961,3.01268 16.237941,23.4971 c -5.12303,3.37175 -10.534751,6.07919 -16.149811,8.08888 l -8.58418,-9.98774 c -2.80282,0.82485 -5.67827,1.47254 -8.61844,1.9127 l -3.88642,12.40588 c -6.1119,0.38312 -12.25779,0.0224 -18.29158,-1.06726"
         style="display:inline;fill:#002b51;fill-opacity:0.913725;fill-rule:evenodd;stroke:none;stroke-width:0.488446"
         id="path15169"
         clip-path="none" />
      <path
         d="m -157.27247,426.9242 c 0.78787,3.63647 2.63814,7.07448 5.19959,9.84226 2.56411,2.76452 5.8567,4.86666 9.42541,5.92324 3.55515,1.05094 7.38212,1.15324 10.76997,-0.17272 -3.25648,-1.58404 -6.02122,-3.03439 -8.50667,-4.75981 -2.4756,-1.7101 -4.66881,-3.58112 -6.63189,-5.68603 -1.95893,-2.10801 -3.66337,-4.43536 -5.18719,-7.03164 -1.53831,-2.60718 -2.77708,-5.47511 -4.10741,-8.83977 -1.56466,3.28068 -1.74358,7.10155 -0.96164,10.72474 m 50.17075,-7.80239 c 1.98345,16.31881 -9.63793,31.1549 -25.95609,33.13841 -16.31876,1.98346 -31.15556,-9.63794 -33.1383,-25.95603 -1.98345,-16.31882 9.63788,-31.15552 25.95598,-33.13836 16.31876,-1.98346 31.15562,9.63788 33.13841,25.95598"
         style="fill:#ce0000;fill-opacity:0.913725;fill-rule:nonzero;stroke:none;stroke-width:0.488446"
         id="path15241" />
      <path
         id="path1974"
         style="font-size:19.7851px;line-height:1.25;font-family:Opentalk-750;-inkscape-font-specification:'Opentalk-750, Normal';fill:#ce0000;fill-opacity:0.913725;stroke-width:2.69595"
         d="m 403.43462,376.01833 -7.03661,12.07192 h 25.22965 v 63.84066 h 13.59421 v -63.84066 h 21.9935 l 7.03658,-12.07192 z" />
      <path
         d="m 484.82493,453.65947 c -5.53564,0 -10.53214,-1.18621 -14.98946,-3.55865 -4.4573,-2.44433 -7.97998,-5.8592 -10.56811,-10.24461 -2.51622,-4.38541 -3.7743,-9.48974 -3.7743,-15.31298 0,-5.60757 1.22217,-10.64001 3.66648,-15.09731 2.51621,-4.45731 6.00296,-7.90812 10.46025,-10.35245 4.52918,-2.51622 9.63353,-3.77433 15.31302,-3.77433 5.67943,0 10.7119,1.25811 15.09728,3.77433 4.45732,2.44433 7.90813,5.89514 10.35243,10.35245 2.51622,4.38541 3.77436,9.3819 3.77436,14.98947 0,5.67946 -1.25814,10.74785 -3.77436,15.20515 -2.4443,4.38541 -5.89511,7.83622 -10.35243,10.35244 -4.38538,2.44433 -9.45376,3.66649 -15.20516,3.66649 z m -15.74431,-29.22408 c 0,5.46379 1.43784,9.81325 4.3135,13.04839 2.87571,3.23514 6.68598,4.8527 11.43081,4.8527 4.74491,0 8.51923,-1.58162 11.32301,-4.74486 2.87566,-3.16325 4.3135,-7.54866 4.3135,-13.15623 0,-5.46379 -1.43784,-9.81325 -4.3135,-13.04839 -2.87572,-3.23514 -6.65005,-4.85271 -11.32301,-4.85271 -4.74483,0 -8.5551,1.65351 -11.43081,4.96054 -2.87566,3.23514 -4.3135,7.54867 -4.3135,12.94056 z"
         style="font-size:19.7851px;line-height:1.25;font-family:Opentalk-750;-inkscape-font-specification:'Opentalk-750, Normal';fill:#ce0000;fill-opacity:0.913725;stroke-width:2.69595"
         id="path1976" />
      <path
         d="m 552.00793,453.65947 c -5.5357,0 -10.5322,-1.18621 -14.98946,-3.55865 -4.45736,-2.44433 -7.98004,-5.8592 -10.56814,-10.24461 -2.51619,-4.38541 -3.77433,-9.48974 -3.77433,-15.31298 0,-5.60757 1.22217,-10.64001 3.66648,-15.09731 2.51619,-4.45731 6.00296,-7.90812 10.46031,-10.35245 4.52915,-2.51622 9.63353,-3.77433 15.31296,-3.77433 5.67943,0 10.7119,1.25811 15.09728,3.77433 4.45733,2.44433 7.90813,5.89514 10.35243,10.35245 2.51622,4.38541 3.77433,9.3819 3.77433,14.98947 0,5.67946 -1.25811,10.74785 -3.77433,15.20515 -2.4443,4.38541 -5.8951,7.83622 -10.35243,10.35244 -4.38538,2.44433 -9.45376,3.66649 -15.2051,3.66649 z m -15.74437,-29.22408 c 0,5.46379 1.43784,9.81325 4.3135,13.04839 2.87572,3.23514 6.68596,4.8527 11.43087,4.8527 4.74485,0 8.51917,-1.58162 11.32295,-4.74486 2.87566,-3.16325 4.3135,-7.54866 4.3135,-13.15623 0,-5.46379 -1.43784,-9.81325 -4.3135,-13.04839 -2.87566,-3.23514 -6.64999,-4.85271 -11.32295,-4.85271 -4.74491,0 -8.55515,1.65351 -11.43087,4.96054 -2.87566,3.23514 -4.3135,7.54867 -4.3135,12.94056 z"
         style="font-size:19.7851px;line-height:1.25;font-family:Opentalk-750;-inkscape-font-specification:'Opentalk-750, Normal';fill:#ce0000;fill-opacity:0.913725;stroke-width:2.69595"
         id="path1978" />
      <path
         d="m 592.77057,451.93406 v -78.1825 h 13.15621 v 78.1825 z"
         style="font-size:19.7851px;line-height:1.25;font-family:Opentalk-750;-inkscape-font-specification:'Opentalk-750, Normal';fill:#ce0000;fill-opacity:0.913725;stroke-width:2.69595"
         id="path1980" />
      <path
         d="m 662.0025,426.80782 c -1.29405,-2.01297 -3.55866,-3.73838 -6.79378,-5.17622 -0.86276,-0.35945 -2.80384,-0.93461 -5.82329,-1.72541 -2.94754,-0.8627 -5.03246,-1.47378 -6.2546,-1.83324 -5.75135,-1.50973 -8.87865,-2.40838 -9.38188,-2.69595 -1.50973,-1.00649 -2.26463,-2.15676 -2.26463,-3.45081 0,-1.72541 0.8627,-3.05541 2.58815,-3.99001 1.94108,-1.15027 4.13374,-1.7254 6.57811,-1.7254 3.01945,0 5.78731,0.57513 8.3035,1.7254 2.87566,1.29406 5.28406,2.66001 7.22513,4.09785 l 5.60761,-9.59758 c -3.09133,-2.01297 -6.36243,-3.73838 -9.81329,-5.17622 -3.01945,-1.29406 -6.9016,-1.94109 -11.64648,-1.94109 -4.45729,0 -8.3035,0.71893 -11.53863,2.15676 -3.30707,1.36595 -5.89517,3.37892 -7.76436,6.03893 -1.7254,2.58811 -2.5881,5.60757 -2.5881,9.05838 0,3.45082 0.75485,6.2546 2.26457,8.41136 1.86923,2.51623 4.02598,4.24163 6.47028,5.17623 0.8627,0.35945 4.09783,1.29406 9.70544,2.80378 0.71891,0.21568 2.62407,0.75489 5.7154,1.61757 3.16325,0.8627 5.28406,1.58162 6.36243,2.15676 1.29405,0.64703 1.94108,1.83324 1.94108,3.55865 0,1.94108 -0.89867,3.45081 -2.69595,4.52919 -1.8692,1.15027 -4.38539,1.72541 -7.54863,1.72541 -3.52268,0 -6.86566,-0.68297 -10.02897,-2.04892 -3.16321,-1.36594 -6.14675,-3.23514 -8.95052,-5.60758 l -5.60759,9.70542 c 3.66648,3.09136 7.29702,5.28407 10.89164,6.57812 3.73839,1.65351 8.23162,2.48027 13.47976,2.48027 4.96053,0 9.23809,-0.79081 12.83268,-2.37243 3.59463,-1.50973 6.32652,-3.63054 8.19569,-6.36244 1.94107,-2.7319 2.91165,-5.89514 2.91165,-9.48974 0,-3.66649 -0.79082,-6.54217 -2.37242,-8.62704 z"
         style="font-size:19.7851px;line-height:1.25;font-family:Opentalk-750;-inkscape-font-specification:'Opentalk-750, Normal';fill:#ce0000;fill-opacity:0.913725;stroke-width:2.69595"
         id="path1982" />
      <path
         d="M -0.26728944,376.1814 H -16.011629 l -26.95948,70.84953 11.53866,6.68595 6.90162,-18.65597 H 7.6048806 l 7.0094604,18.65597 11.97001,-6.90163 z m -8.19568996,16.93056 11.6465,29.8711 H -19.785949 Z"
         style="font-size:19.7851px;font-family:Arcon;-inkscape-font-specification:'Opentalk-750, Normal';fill:#002b51;fill-opacity:0.913725;stroke-width:2.69595"
         id="path1265" />
      <path
         d="m 91.502511,418.45387 q 0,-10.78379 -5.49976,-16.71488 -2.15675,-2.48027 -5.82324,-4.20568 -4.31352,-2.04892 -11.32298,-2.04892 -4.85271,0 -9.70541,2.37244 -4.85271,2.26459 -9.3819,9.05838 l -6.68595,-11.43082 -11.43083,6.47028 8.08785,14.2346 v 35.91004 h 13.3719 v -30.4103 q 0,-4.31352 1.61757,-7.87217 1.72541,-3.55866 4.74487,-5.17622 3.1273,-2.04892 6.90163,-2.04892 6.03892,0 8.84271,3.45081 3.01946,3.01946 3.01946,9.59758 v 32.45922 h 13.26408 z"
         style="font-size:19.7851px;font-family:Arcon;-inkscape-font-specification:'Opentalk-750, Normal';fill:#002b51;fill-opacity:0.913725;stroke-width:2.69595"
         id="path1267" />
      <path
         d="m 106.06053,409.61116 q -3.55866,7.22514 -3.55866,15.09731 0,7.98 3.55866,15.31298 3.34298,6.47028 9.48973,10.02894 5.82326,3.77433 13.58759,3.77433 5.7154,0 10.5681,-2.37244 3.88215,-1.83325 6.90164,-4.85271 3.01945,-3.01946 4.09782,-4.74487 l 7.00948,11.97002 11.53866,-6.36244 -8.19568,-14.01894 V 397.2098 h -13.37191 v 7.00946 q -2.91163,-3.88216 -7.98001,-6.57811 -5.06837,-2.15676 -10.5681,-2.15676 -7.98001,0 -13.58759,3.77433 -5.82326,3.1273 -9.48973,10.35244 z m 10.35243,15.09731 q 0,-7.76433 4.09786,-12.72488 2.04889,-2.37243 5.06837,-3.55865 2.91163,-1.29405 6.36243,-1.29405 7.22513,0 11.53866,4.8527 4.20568,4.5292 4.20568,12.72488 0,5.3919 -1.83325,9.3819 -1.94108,3.99 -5.49973,6.14677 -3.4508,2.15675 -8.51918,2.15675 -4.31353,0 -8.41136,-2.15675 -3.6665,-2.26461 -5.0684,-6.14677 -1.94108,-4.42135 -1.94108,-9.3819 z"
         style="font-size:19.7851px;font-family:Arcon;-inkscape-font-specification:'Opentalk-750, Normal';fill:#002b51;fill-opacity:0.913725;stroke-width:2.69595"
         id="path1269" />
      <path
         d="M 179.06667,452.09931 V 373.9168 h 13.1562 v 78.18251 z"
         style="font-size:19.7851px;font-family:Arcon;-inkscape-font-specification:'Opentalk-750, Normal';fill:#002b51;fill-opacity:0.913725;stroke-width:2.69595"
         id="path1271" />
      <path
         id="path1273"
         style="font-size:19.7851px;font-family:Arcon;-inkscape-font-specification:'Opentalk-750, Normal';fill:#002b51;fill-opacity:0.913725;stroke-width:2.69595"
         d="m 203.09766,394.80664 v 11.4668 l 18.5664,45.17773 -4.82422,11.97656 h -13.51757 v 9.16602 h 9.82617 13.0332 0.44336 l 26.99609,-66.32031 v -11.4668 h -13.42382 v 11.4668 c -3.80473,10.03665 -7.82578,20.29826 -11.74219,30.40234 l -11.9336,-30.40234 v -11.4668 z" />
      <path
         d="m 305.77589,426.97307 q -1.9411,-3.01947 -6.79381,-5.17623 -1.29405,-0.53916 -5.82322,-1.7254 -4.42136,-1.29406 -6.25461,-1.83325 -8.62703,-2.26459 -9.38191,-2.69595 -2.2646,-1.50973 -2.2646,-3.45081 0,-2.58811 2.58813,-3.99 2.91163,-1.72541 6.5781,-1.72541 4.52921,0 8.30354,1.72541 4.3135,1.94108 7.22513,4.09784 l 5.60758,-9.59758 q -4.63703,-3.01946 -9.81326,-5.17622 -4.52921,-1.94108 -11.64648,-1.94108 -6.68596,0 -11.53866,2.15676 -4.96056,2.04892 -7.76434,6.03892 -2.58813,3.88217 -2.58813,9.05839 0,5.17622 2.26461,8.41136 2.80377,3.77432 6.47028,5.17622 1.29405,0.53921 9.70541,2.80378 1.07837,0.32354 5.7154,1.61757 4.74488,1.29406 6.36246,2.15676 1.94107,0.97055 1.94107,3.55865 0,2.91163 -2.69595,4.52919 -2.80378,1.72541 -7.54866,1.72541 -5.28405,0 -10.02893,-2.04891 -4.74485,-2.04893 -8.95053,-5.60758 l -5.60758,9.70542 q 5.49973,4.63703 10.89163,6.57811 5.60755,2.48028 13.47974,2.48028 7.4408,0 12.83271,-2.37244 5.3919,-2.2646 8.19568,-6.36244 2.91163,-4.09785 2.91163,-9.48974 0,-5.49973 -2.37243,-8.62703 z"
         style="font-size:19.7851px;font-family:Arcon;-inkscape-font-specification:'Opentalk-750, Normal';fill:#002b51;fill-opacity:0.913725;stroke-width:2.69595"
         id="path1275" />
      <path
         d="M 319.25554,452.09931 V 397.2098 h 13.26406 v 54.88951 z m 6.68595,-62.11465 q -3.55865,0 -6.03893,-2.48028 -2.48027,-2.58811 -2.48027,-6.03892 0,-3.55865 2.48027,-6.03893 2.48028,-2.58811 6.03893,-2.58811 3.55866,0 6.03894,2.58811 2.48027,2.48028 2.48027,6.03893 0,3.45081 -2.48027,6.03892 -2.48028,2.48028 -6.03894,2.48028 z"
         style="font-size:19.7851px;font-family:Arcon;-inkscape-font-specification:'Opentalk-750, Normal';fill:#002b51;fill-opacity:0.913725;stroke-width:2.69595"
         id="path1277" />
      <path
         d="m 389.0267,426.97307 q -1.94114,-3.01947 -6.79384,-5.17623 -1.29405,-0.53916 -5.82323,-1.7254 -4.42135,-1.29406 -6.2546,-1.83325 -8.627,-2.26459 -9.38188,-2.69595 -2.2646,-1.50973 -2.2646,-3.45081 0,-2.58811 2.58813,-3.99 2.91159,-1.72541 6.5781,-1.72541 4.52918,0 8.3035,1.72541 4.3135,1.94108 7.22516,4.09784 l 5.60758,-9.59758 q -4.63703,-3.01946 -9.81329,-5.17622 -4.52914,-1.94108 -11.64648,-1.94108 -6.68598,0 -11.53863,2.15676 -4.96058,2.04892 -7.76433,6.03892 -2.5881,3.88217 -2.5881,9.05839 0,5.17622 2.26454,8.41136 2.80384,3.77432 6.47031,5.17622 1.29405,0.53921 9.70541,2.80378 1.07838,0.32354 5.7154,1.61757 4.74486,1.29406 6.36243,2.15676 1.94108,0.97055 1.94108,3.55865 0,2.91163 -2.69595,4.52919 -2.80378,1.72541 -7.54863,1.72541 -5.28405,0 -10.02893,-2.04891 -4.74486,-2.04893 -8.95053,-5.60758 l -5.60761,9.70542 q 5.49972,4.63703 10.89166,6.57811 5.60755,2.48028 13.47973,2.48028 7.44084,0 12.83268,-2.37244 5.39194,-2.2646 8.19572,-6.36244 2.91162,-4.09785 2.91162,-9.48974 0,-5.49973 -2.37242,-8.62703 z"
         style="font-size:19.7851px;font-family:Arcon;-inkscape-font-specification:'Opentalk-750, Normal';fill:#002b51;fill-opacity:0.913725;stroke-width:2.69595"
         id="path1279" />
    </g>
  </g>
</svg>
