<?xml version="1.0" encoding="UTF-8" standalone="no"?><svg xmlns="http://www.w3.org/2000/svg" xmlns:xlink="http://www.w3.org/1999/xlink" viewBox="0 0 676.7 269.99"><defs><path id="a" fill-rule="evenodd" d="M0 0h8640v3463.5H0Z"/><path id="b" fill-rule="evenodd" d="M0 0h8640v3456H0Z"/><path id="c" fill-rule="evenodd" d="M6207.74 345.62h2075.25v2064H6207.74Z"/></defs><defs><clipPath id="d"><use xlink:href="#a" fill-rule="evenodd"/></clipPath><clipPath id="e"><use xlink:href="#b" fill-rule="evenodd"/></clipPath><clipPath id="f"><use xlink:href="#b" fill-rule="evenodd"/></clipPath><clipPath id="g"><path fill-rule="evenodd" d="M5819.44 2483.45h1945.09V3456H5819.44Z"/></clipPath><clipPath id="h"><path fill-rule="evenodd" d="M6791.98 2483.45c537.12 0 972.55 435.43 972.55 972.55H5819.44c0-537.12 435.42-972.55 972.54-972.55z"/></clipPath><clipPath id="i"><use xlink:href="#a" fill-rule="evenodd"/></clipPath><clipPath id="j"><use xlink:href="#b" fill-rule="evenodd"/></clipPath><clipPath id="k"><use xlink:href="#b" fill-rule="evenodd"/></clipPath><clipPath id="l"><use xlink:href="#c" fill-rule="evenodd"/></clipPath><clipPath id="m"><use xlink:href="#c" fill-rule="evenodd"/></clipPath><clipPath id="n"><use xlink:href="#a" fill-rule="evenodd"/></clipPath><clipPath id="o"><use xlink:href="#b" fill-rule="evenodd"/></clipPath><clipPath id="p"><use xlink:href="#b" fill-rule="evenodd"/></clipPath><clipPath id="q"><path d="M2758.65-593.08h1186.14V593.06H2758.65z"/></clipPath><clipPath id="r"><path d="M2758.65 0c0 327.54 265.52 593.06 593.07 593.06 327.54 0 593.07-265.52 593.07-593.07 0-327.54-265.53-593.07-593.07-593.07-327.55 0-593.07 265.53-593.07 593.07"/></clipPath><clipPath id="s"><path fill-rule="evenodd" d="M367.5 445.5h3900v678h-3900z"/></clipPath><clipPath id="t"><use xlink:href="#a" fill-rule="evenodd"/></clipPath><clipPath id="u"><use xlink:href="#b" fill-rule="evenodd"/></clipPath><clipPath id="v"><use xlink:href="#b" fill-rule="evenodd"/></clipPath><clipPath id="w"><path fill-rule="evenodd" d="M6207.74 2812.19h2088.43v517.32H6207.74z"/></clipPath><clipPath id="x"><path fill-rule="evenodd" d="M6207.74 2974.19v192.61c0 89.47 72.53 162 162 162H8132.4c89.47 0 162-72.53 162-162v-192.61c0-89.47-72.53-162-162-162H6369.74c-89.47 0-162 72.53-162 162z"/></clipPath><clipPath id="y"><use xlink:href="#b" fill-rule="evenodd"/></clipPath></defs><rect width="676.7" height="269.99" fill="#026ced" rx="10" ry="10"/><g clip-path="url(#d)" transform="matrix(.08 0 0 .08 5.23 -1.15)"><g clip-path="url(#e)"><g clip-path="url(#f)"><g clip-path="url(#g)"><g clip-path="url(#h)"><path fill="#035ac4" d="M5819.44 4428.54V2483.45h1945.09v1945.09Z"/></g></g></g></g></g><g clip-path="url(#i)" transform="matrix(.08 0 0 .08 5.23 -.57)"><g clip-path="url(#j)"><g clip-path="url(#k)"><g clip-path="url(#l)"><g clip-path="url(#m)"><path fill="#fff" d="M7221.46 704.13c0 12.65 10.54 23.2 23.9 23.2 12.65 0 23.2-10.55 23.2-23.9 0-13.36-10.55-23.2-23.9-23.2-12.66 0-23.2 10.54-23.2 23.9zm338.84 0c0 12.65 10.55 23.2 23.9 23.2 12.66 0 23.2-10.55 23.2-23.9 0-13.36-10.54-23.2-23.9-23.2-12.65 0-23.2 10.54-23.2 23.9zm338.15 0c0 12.65 10.54 23.2 23.9 23.2 12.65 0 23.2-10.55 23.2-23.9 0-13.36-10.55-23.2-23.9-23.2-12.66 0-23.2 10.54-23.2 23.9zm341.65 0c0 11.25 9.14 19.68 20.39 19.68s19.68-9.14 19.68-20.38c0-11.25-9.14-19.69-20.38-19.69-11.25 0-19.69 9.14-19.69 20.39zm-1356.78 0a23.4 23.4 0 0 0 23.2 23.2 23.4 23.4 0 0 0 23.2-23.2 23.4 23.4 0 0 0-23.2-23.2c-12.66-.7-23.2 10.54-23.2 23.2Zm-672.77 0c0 11.25 9.14 19.68 20.38 19.68 11.25 0 19.69-9.14 19.69-20.38 0-11.25-9.14-19.69-20.39-19.69s-19.68 9.14-19.68 20.39zm1001.07 673.5c0 16.87 14.06 30.93 30.93 30.93 16.87 0 30.93-14.06 30.93-30.94 0-16.87-14.06-30.93-30.93-30.93-16.87 0-30.93 14.06-30.93 30.93Zm343.06 0c0 14.76 12.65 27.41 26.71 27.41 14.77 0 26.01-12.65 26.01-27.42 0-14.76-12.65-27.41-26-27.41-15.47 0-26.72 12.65-26.72 27.41-1.4 0-1.4 0 0 0zm340.25 0c0 13.35 11.25 23.9 23.9 23.9 13.36 0 23.9-11.25 23.9-23.9 0-12.66-11.24-23.9-23.9-23.9a23.7 23.7 0 0 0-23.9 23.9zm342.36 0a20.4 20.4 0 0 0 20.39 20.38 20.4 20.4 0 0 0 20.38-20.39 20.4 20.4 0 0 0-20.38-20.38 20.4 20.4 0 0 0-20.39 20.38zm-1359.6 0c0 14.76 12.66 26.7 27.42 26.7 14.76 0 26.71-12.65 26.71-27.4 0-14.77-12.65-26.72-26.71-26.72a27.45 27.45 0 0 0-27.42 27.41c-.7 0-.7 0 0 0zm-669.95 0a20.4 20.4 0 0 0 20.38 20.38 20.4 20.4 0 0 0 20.39-20.39 20.4 20.4 0 0 0-20.39-20.38 20.4 20.4 0 0 0-20.38 20.38zm1013.72 336.74c0 14.76 11.95 27.42 26.71 27.42 14.77 0 27.42-11.95 27.42-26.72 0-14.76-11.95-27.41-26.71-27.41-14.77 0-27.42 11.95-27.42 26.71zm338.14 0c0 14.76 11.95 27.42 26.71 27.42 14.77 0 27.42-11.95 27.42-26.72 0-14.76-11.95-27.41-26.71-27.41-14.77 0-27.42 11.95-27.42 26.71Zm341.66 0c0 12.66 10.54 23.9 23.2 23.9 12.65 0 23.9-10.54 23.9-23.2 0-12.65-10.55-23.9-23.2-23.9-13.36 0-23.9 10.55-23.9 23.2zm341.65 0c0 11.25 8.44 20.39 19.69 20.39 11.25 0 20.39-8.44 20.39-19.69 0-11.24-8.44-20.38-19.69-20.38-11.25 0-20.39 8.43-20.39 19.68zm-1359.6 0a26.7 26.7 0 0 0 26.72 26.72 26.7 26.7 0 0 0 26.71-26.72 26.7 26.7 0 0 0-26.7-26.71c-14.07 0-26.72 11.95-26.72 26.71zm341.66 336.75c0 12.65 10.55 23.9 23.2 23.9 12.66 0 23.9-10.54 23.9-23.2 0-12.65-10.54-23.9-23.2-23.9-13.35-.7-24.6 10.54-23.9 23.2-.7 0-.7 0 0 0zm338.15 0c0 12.65 10.54 23.9 23.2 23.9 12.65 0 23.9-10.54 23.9-23.2 0-12.65-10.55-23.9-23.2-23.9-13.36-.7-24.6 10.54-23.9 23.2-.7 0-.7 0 0 0zm338.14 0c0 12.65 10.54 23.9 23.2 23.9 12.65 0 23.9-10.54 23.9-23.2 0-12.65-10.55-23.9-23.2-23.9-13.36-.7-24.6 10.54-23.9 23.2-.7 0-.7 0 0 0zm341.65 0c0 11.25 8.44 20.39 19.69 20.39 11.25 0 20.39-8.44 20.39-19.69 0-11.25-8.44-20.39-19.69-20.39-11.95-.7-21.09 8.44-20.39 19.69-.7 0-.7 0 0 0zM6548.7 1040.17c0 12.66 10.54 23.9 23.2 23.9 12.65 0 23.9-10.54 23.9-23.2 0-12.65-10.54-23.9-23.2-23.9-13.36-.7-24.6 10.55-23.9 23.2-.7 0-.7 0 0 0zm-334.63 674.2c0 11.25 8.44 20.39 19.69 20.39 11.24 0 20.38-8.44 20.38-19.69 0-11.24-8.43-20.38-19.68-20.38-11.95-.7-21.09 8.43-20.39 19.68-.7 0-.7 0 0 0zm1013.73 673.5c0 11.24 8.43 20.38 19.68 20.38s20.39-8.43 20.39-19.68-8.44-20.39-19.69-20.39c-11.25 0-20.38 8.44-20.38 19.69Zm338.14 0c0 11.24 8.43 20.38 19.68 20.38s20.39-8.43 20.39-19.68-8.44-20.39-19.69-20.39c-11.24 0-20.38 8.44-20.38 19.69Zm338.14 0c0 11.24 8.44 20.38 19.68 20.38 11.25 0 20.39-8.43 20.39-19.68s-8.44-20.39-19.68-20.39c-11.25 0-20.39 8.44-20.39 19.69Zm338.14 0c0 11.24 8.44 20.38 19.69 20.38 11.24 0 20.38-8.43 20.38-19.68s-8.43-20.39-19.68-20.39-20.39 8.44-20.39 19.69Zm-1690 0c0 11.24 9.13 20.38 19.68 20.38 10.54 0 19.68-9.14 19.68-20.38 0-11.25-9.14-20.4-19.68-20.4-11.25 1.41-19.69 9.15-19.69 20.4zm338.14 0c0 11.24 9.14 20.38 19.68 20.38 10.55 0 19.68-9.14 19.68-20.38 0-11.25-9.13-20.4-19.68-20.4-11.25 1.41-19.68 9.15-19.68 20.4zm-676.99 0c0 11.24 8.44 20.38 19.68 20.38 11.25 0 20.4-8.43 20.4-19.68s-8.45-20.39-19.7-20.39c-11.24 0-20.38 8.44-20.38 19.69Zm1004.58-1347a27.45 27.45 0 0 0 27.42 27.42c15.47 0 27.42-11.95 27.42-27.41 0-15.47-11.95-27.42-27.42-27.42a27.45 27.45 0 0 0-27.42 27.42zm338.15 0c0 14.77 12.65 27.42 27.41 27.42 14.77 0 27.42-12.65 27.42-27.41 0-14.77-12.65-27.42-27.42-27.42-14.76 0-27.41 12.65-27.41 27.42Zm341.65 0c0 13.36 11.25 23.9 23.9 23.9 13.36 0 23.9-11.24 23.9-23.9 0-12.65-11.24-23.9-23.9-23.9-12.65 0-23.9 10.55-23.9 23.9zm342.36 0a20.4 20.4 0 0 0 20.39 20.4 20.4 20.4 0 0 0 20.39-20.4 20.4 20.4 0 0 0-20.39-20.38c-11.95 0-20.39 9.14-20.39 20.39zM6545.88 704.14c0 12.65 10.54 23.9 23.2 23.9 12.65 0 23.2-10.54 23.2-23.9s-10.55-23.9-23.2-23.9c-13.36 0-23.2 11.24-23.2 23.9zm333.92 336.75c0 14.76 12.66 26.71 27.42 26.71 14.76 0 26.71-12.65 26.71-27.42 0-14.76-12.65-26.71-27.41-26.71-14.77 0-26.72 12.65-26.72 27.42zm-669.96 0c0 11.24 9.14 20.38 19.69 20.38a20.4 20.4 0 0 0 20.39-20.38 20.4 20.4 0 0 0-20.4-20.4c-10.54 0-19.68 9.15-19.68 20.4Zm1015.84-673.5c0 11.25 9.14 19.69 20.38 19.69 11.25 0 19.69-9.14 19.69-20.4 0-11.24-9.14-19.68-20.39-19.68s-19.68 9.14-19.68 20.4Zm338.14 0c0 11.25 9.14 19.69 20.39 19.69 11.24 0 19.68-9.14 19.68-20.4 0-11.24-9.14-19.68-20.39-19.68s-19.68 9.14-19.68 20.4Zm338.14 0c0 11.25 9.14 19.69 20.39 19.69s19.68-9.14 19.68-20.4c0-11.24-9.14-19.68-20.39-19.68-11.24 0-19.68 9.14-19.68 20.4Zm338.14 0c0 11.25 9.14 19.69 20.39 19.69s19.68-9.14 19.68-20.4c0-11.24-9.14-19.68-20.38-19.68-11.25 0-19.69 9.14-19.69 20.4Zm-1690.7 0c0 10.55 9.13 19.69 19.68 19.69 10.54 0 19.68-9.14 19.68-19.69 0-10.54-9.14-19.68-19.68-19.68-11.25-.7-19.69 9.14-19.69 19.68Zm-338.85 0c0 11.25 9.14 19.69 20.38 19.69 11.25 0 19.69-9.14 19.69-20.4 0-11.24-9.14-19.68-20.39-19.68s-19.68 9.14-19.68 20.4Zm676.28 1683.74c0 13.36 10.55 23.2 23.2 23.2a23.4 23.4 0 0 0 23.2-23.2 23.4 23.4 0 0 0-23.2-23.2c-13.36-.7-23.2 10.54-23.2 23.2Zm-672.77 0c0 11.25 8.44 20.39 19.69 20.39 11.24 0 20.38-8.44 20.38-19.69 0-11.25-8.43-20.39-19.68-20.39-11.95-.7-21.09 8.44-20.39 19.69-.7 0-.7 0 0 0zm334.63-674.2c0 12.66 10.54 23.9 23.2 23.9 12.65 0 23.9-10.54 23.9-23.2 0-12.65-10.54-23.9-23.2-23.9-13.36-.7-24.6 10.55-23.9 23.2-.7 0-.7 0 0 0zm0 337.45c0 12.66 9.84 23.2 23.2 23.2 12.65 0 23.2-9.84 23.2-23.2s-9.84-23.2-23.2-23.2c-12.66-.7-23.2 9.84-23.2 23.2zm0 336.75c0 13.36 10.54 23.2 23.2 23.2a23.4 23.4 0 0 0 23.2-23.2 23.4 23.4 0 0 0-23.2-23.2c-13.36-.7-23.2 9.84-23.2 23.2Zm338.84-1683.74c0 10.55 9.14 19.69 19.69 19.69 10.54 0 19.68-9.14 19.68-19.69 0-10.54-9.14-19.68-19.68-19.68-11.25-.7-19.69 9.14-19.69 19.68Z"/></g></g></g></g></g><g clip-path="url(#n)" transform="translate(5.23) scale(.08)"><g clip-path="url(#o)"><g clip-path="url(#p)"><g clip-path="url(#q)"><g clip-path="url(#r)"><path fill="#035ac4" d="M2758.65 593.06V-593.08h1186.14V593.06Z"/></g></g></g></g></g><g fill="#fff" clip-path="url(#s)" transform="matrix(.08 0 0 .08 5.23 -.57)"><path fill-rule="evenodd" d="m655.8 1118.19-10.39-54.83a246.84 246.84 0 0 1-39.87-12.56l-40.6 37.44a341.72 341.72 0 0 1-67.65-44.69l17.64-50.48a291.45 291.45 0 0 1-29.72-32.37l-51.71 12.8a339.32 339.32 0 0 1-38.18-71.5l40.84-36.7a288.06 288.06 0 0 1-8.7-41.07l-53.64-15.21a336.8 336.8 0 0 1 2.9-81.16l56.3-12.08a278.57 278.57 0 0 1 12.08-37.2l-40.6-42.26a348.34 348.34 0 0 1 43.01-68.84l57.27 18.6a255.22 255.22 0 0 1 28.03-25.6l-13.05-58.7a332.27 332.27 0 0 1 72.5-36.23l38.17 43.96a282.3 282.3 0 0 1 38.18-8.46l17.15-54.83c27.07-1.69 54.37 0 81.2 4.84l10.38 54.58a251.83 251.83 0 0 1 39.63 12.56l40.6-37.44a337.07 337.07 0 0 1 67.65 44.93l-17.4 50.24a309.95 309.95 0 0 1 29.48 32.37l51.95-12.8a346.58 346.58 0 0 1 38.18 71.73l-41.08 36.96a246.63 246.63 0 0 1 8.94 40.58l53.4 15.46a336.81 336.81 0 0 1-2.65 81.15l-56.55 12.08a278.56 278.56 0 0 1-12.08 37.2l40.84 42.02a334.5 334.5 0 0 1-42.77 68.36l-90.85-84.54-15.47 13.29-25.85-26.1a177.99 177.99 0 0 0-143.9-296.4A178.07 178.07 0 0 0 539.56 834.4a177.92 177.92 0 0 0 82.2 104.81 178.12 178.12 0 0 0 202.45-17.15l21.26 28.26-15.46 13.52 72 103.87a337.14 337.14 0 0 1-71.76 35.98l-37.94-44.2a290.7 290.7 0 0 1-38.18 8.46l-17.4 54.83a337.2 337.2 0 0 1-80.94-4.83"/><path d="M619.8 802.98a94.15 94.15 0 0 0 65 70.04c15.7 4.83 32.62 5.08 47.6-.72-14.5-7.25-26.58-13.53-37.7-21.01a178.49 178.49 0 0 1-70.55-95.65c-7.01 14.49-7.74 31.4-4.35 47.58m222.3-34.54a131.66 131.66 0 0 1-5.73 65.64 131.68 131.68 0 0 1-36.78 54.67 131.73 131.73 0 0 1-58.65 30.06 132.04 132.04 0 0 1-112.7-26.74 131.95 131.95 0 0 1-47.83-91.99 131.83 131.83 0 0 1 90.34-139.34 131.97 131.97 0 0 1 170.57 101.37c.4 2.1.73 4.21 1.02 6.33"/><path fill-opacity=".73" d="M3105.46 577.62 3074.53 631h111.88v283.1h60.16V631h97.38l31.41-53.38Zm361 343.95a139.08 139.08 0 0 1-66.45-15.7 120.9 120.9 0 0 1-58.41-70.96 119.41 119.41 0 0 1-4.9-25.2 120.47 120.47 0 0 1-.23-17.12c0-24.88 5.32-47.1 16.2-66.9a116.47 116.47 0 0 1 46.38-45.9c20.06-11.1 42.77-16.66 67.9-16.66 25.13 0 47.6 5.55 66.94 16.9a113.4 113.4 0 0 1 45.9 45.9c11.12 19.32 16.92 41.3 16.92 66.18 0 25.12-5.8 47.58-16.91 67.63a117.5 117.5 0 0 1-45.91 45.9 137.63 137.63 0 0 1-67.42 15.93zm-69.83-129.46c0 24.15 6.52 43.48 19.33 57.97 12.56 14.25 29.48 21.5 50.5 21.5s37.7-7.25 50.26-21.02c12.8-14 19.09-33.57 19.09-58.45 0-24.16-6.29-43.48-19.33-57.97a64.18 64.18 0 0 0-29.24-18.58 64 64 0 0 0-20.78-2.68c-21.02 0-37.94 7.25-50.75 21.74-12.56 14.5-19.08 33.82-19.08 57.49zm367.76 129.46a139.09 139.09 0 0 1-66.45-15.7 120.56 120.56 0 0 1-43.97-40 120.33 120.33 0 0 1-16.87-39.2 120.08 120.08 0 0 1-2.95-34.08c0-24.88 5.55-47.1 16.43-66.9a116.54 116.54 0 0 1 46.39-45.9 136.9 136.9 0 0 1 67.66-16.66c25.37 0 47.6 5.55 67.17 16.9a113.45 113.45 0 0 1 45.91 45.9c11.12 19.32 16.67 41.3 16.67 66.18 0 25.12-5.55 47.58-16.91 67.63a117.46 117.46 0 0 1-45.91 45.9c-19.33 10.62-41.8 15.93-67.17 15.93zm-70.07-129.46c0 24.15 6.52 43.48 19.33 57.97a65.3 65.3 0 0 0 50.74 21.5c21.02 0 37.7-7.25 50.02-21.02 12.8-14 19.33-33.57 19.33-58.45 0-24.15-6.53-43.48-19.33-57.97a64.26 64.26 0 0 0-22.64-16.2 63.83 63.83 0 0 0-27.38-5.06c-21.02 0-37.94 7.25-50.74 21.74-12.81 14.5-19.33 33.82-19.33 57.49zm250.8 121.98V567.48h58v346.6ZM4252 802.74a66.32 66.32 0 0 0-13.43-13.67c-5.14-3.9-10.73-7-16.77-9.28-17.89-5.21-35.77-10.45-53.64-15.7a425.2 425.2 0 0 1-41.57-12.08c-6.52-4.34-9.9-9.66-9.9-15.21 0-7.73 3.86-13.53 11.35-17.88a59.12 59.12 0 0 1 29.24-7.49c13.3 0 25.61 2.42 36.73 7.5a185.46 185.46 0 0 1 32.14 18.35l24.89-42.51a266.91 266.91 0 0 0-43.5-22.95 131.87 131.87 0 0 0-51.7-8.7 122.93 122.93 0 0 0-51.23 9.67c-14.5 6.04-26.1 14.97-34.32 26.57a70.8 70.8 0 0 0-11.6 40.33c0 15.22 3.39 27.54 10.16 37.2 8.21 11.11 17.88 18.84 28.75 22.95 3.62 1.45 18.12 5.8 43.01 12.32l25.37 7.24c14.02 3.87 23.44 7 28.03 9.66 5.8 2.66 8.7 7.97 8.7 15.7 0 8.46-4.1 15.22-12.08 20.05-8.22 5.07-19.33 7.73-33.35 7.73a110.9 110.9 0 0 1-44.46-9.18 157.9 157.9 0 0 1-39.62-24.88l-24.9 43a159.8 159.8 0 0 0 78.69 37.76 159.93 159.93 0 0 0 29.33 2.33c21.99 0 41.07-3.38 56.78-10.38a80.11 80.11 0 0 0 36.25-28.26c8.7-12.08 13.04-26.09 13.04-42.03 0-16.18-3.38-28.99-10.39-38.16z"/><path d="M1315.94 578.35h-69.83l-119.37 314 50.98 29.46 30.7-82.6h142.55l30.93 82.6 53.16-30.43zm-36.25 74.87 51.47 132.6h-101.73zm443.16 112.32c0-31.72-8.14-56.36-24.4-73.91-6.45-7.4-15.07-13.6-25.86-18.6-12.9-6.12-29.64-9.18-50.26-9.18-14.34 0-28.68 3.54-43.01 10.63-14.34 6.6-28.2 19.97-41.56 40.1l-29.73-50.73-50.74 28.74 36 62.8v159.42h59.2V780.03c0-12.88 2.42-24.55 7.25-35.02 5.16-10.47 12.17-18.12 21.03-22.95a55.18 55.18 0 0 1 30.68-8.93c17.72 0 30.77 5.07 39.15 15.21 8.86 9.02 13.29 23.19 13.29 42.51v143.96h58.96Zm64.51-39.13c-10.47 21.42-15.7 43.72-15.7 66.9 0 23.68 5.23 46.3 15.7 67.88 9.83 19.16 23.84 33.98 42.04 44.44 17.24 11.27 37.38 16.9 60.41 16.9 16.76 0 32.3-3.53 46.64-10.62a110.75 110.75 0 0 0 30.68-21.74c8.86-8.85 14.9-15.78 18.13-20.77l31.17 53.14 50.98-28.26-36.24-62.32V671.58h-59.2v30.92c-8.7-11.27-20.54-20.94-35.52-28.99a117.48 117.48 0 0 0-46.88-9.66c-23.52 0-43.65 5.64-60.4 16.9-17.08 9.19-31.02 24.48-41.8 45.9zm45.91 66.9c0-22.86 6.04-41.62 18.12-56.27a57.4 57.4 0 0 1 22.48-15.94c8.53-3.7 17.96-5.56 28.27-5.56 21.26 0 38.25 7.17 50.98 21.5 12.56 13.36 18.85 32.12 18.85 56.28 0 16.1-2.74 29.95-8.22 41.54-5.8 11.92-13.93 21.01-24.4 27.3-10.15 6.44-22.72 9.66-37.7 9.66-12.88 0-25.37-3.22-37.45-9.67-10.8-6.6-18.28-15.7-22.47-27.29-5.64-12.88-8.46-26.73-8.46-41.54Zm277.64 121.5v-346.6h58.47v346.6Zm106.55-253.86v50.73l82.16 200.23-37.45 93.72h59.68l119.6-293.95v-50.73h-59.43v50.73c-16.92 44.44-34.8 89.85-52.2 134.77l-52.91-134.77v-50.73zm455.24 142.51c-5.8-9.02-15.87-16.67-30.2-22.95-3.71-1.6-12.25-4.18-25.62-7.72l-27.79-8.22c-25.6-6.6-39.46-10.54-41.56-11.83-6.76-4.51-10.15-9.58-10.15-15.22 0-7.73 3.87-13.6 11.6-17.63 8.54-5.15 18.2-7.73 29-7.73 13.37 0 25.7 2.58 36.97 7.73 12.72 5.63 23.36 11.67 31.9 18.11l24.88-42.5a254.64 254.64 0 0 0-43.5-22.95c-13.36-5.8-30.6-8.7-51.7-8.7-19.65 0-36.65 3.22-50.99 9.66-14.65 5.96-26.17 14.82-34.55 26.57-7.57 11.6-11.36 25.04-11.36 40.34 0 15.3 3.3 27.7 9.91 37.2 8.38 11.27 17.96 18.92 28.76 22.94 3.86 1.61 18.2 5.72 43 12.32l25.38 7.25c14.01 3.86 23.44 7.08 28.27 9.66 5.64 2.74 8.46 7.97 8.46 15.7 0 8.53-4.03 15.22-12.09 20.05-8.05 5.15-19.17 7.73-33.34 7.73-15.63 0-30.45-3.06-44.46-9.18a161.6 161.6 0 0 1-39.63-24.88l-24.89 43c16.27 13.68 32.38 23.34 48.33 28.98 16.6 7.4 36.49 11.1 59.68 11.1 22.07 0 41.08-3.45 57.03-10.38 15.95-6.76 28.03-16.18 36.24-28.26 8.7-12.08 13.05-26.08 13.05-42.03 0-16.1-3.54-28.82-10.63-38.16zm59.68 111.35V671.58h58.96v243.23Zm29.72-275.35c-10.47 0-19.33-3.63-26.58-10.87-7.4-7.73-11.11-16.67-11.11-26.81 0-10.47 3.62-19.4 10.87-26.82 7.41-7.56 16.35-11.35 26.82-11.35 10.47 0 19.33 3.79 26.58 11.35 7.41 7.41 11.12 16.27 11.12 26.57 0 10.31-3.63 19.33-10.88 27.06-7.4 7.24-16.35 10.87-26.82 10.87zm279.57 164c-5.64-9.02-15.63-16.67-29.96-22.95-3.87-1.6-12.49-4.18-25.86-7.72l-27.78-8.22c-25.46-6.6-39.31-10.54-41.57-11.83-6.76-4.51-10.14-9.58-10.14-15.22 0-7.73 3.86-13.6 11.6-17.63 8.53-5.15 18.2-7.73 28.99-7.73 13.53 0 25.85 2.58 36.97 7.73 12.89 5.63 23.6 11.67 32.14 18.11l24.64-42.5a254.65 254.65 0 0 0-43.5-22.95c-13.36-5.8-30.52-8.7-51.46-8.7-19.81 0-36.89 3.22-51.22 9.66-14.66 5.96-26.1 14.82-34.32 26.57-7.73 11.6-11.6 25.04-11.6 40.34 0 15.3 3.39 27.7 10.15 37.2 8.22 11.27 17.72 18.92 28.52 22.94 3.86 1.61 18.2 5.72 43 12.32l25.38 7.25c14.01 3.86 23.44 7.08 28.27 9.66 5.8 2.74 8.7 7.97 8.7 15.7 0 8.53-4.03 15.22-12.08 20.05-8.22 5.15-19.33 7.73-33.35 7.73-15.62 0-30.44-3.06-44.46-9.18a165.99 165.99 0 0 1-39.87-24.88l-24.64 43c16.1 13.68 32.21 23.34 48.32 28.98 16.43 7.4 36.33 11.1 59.69 11.1 21.9 0 40.83-3.45 56.78-10.38 16.1-6.76 28.19-16.18 36.24-28.26 8.7-12.08 13.05-26.08 13.05-42.03 0-16.1-3.54-28.82-10.63-38.16z"/><path d="M2218.67 964.8h101.25v40.83h-101.49Z"/></g><g clip-path="url(#t)" transform="matrix(.08 0 0 .08 5.23 -.57)"><g clip-path="url(#u)"><g clip-path="url(#v)"><g clip-path="url(#w)"><g clip-path="url(#x)"><path fill="#003070" d="M6207.74 2812.19h2088.43v517.32H6207.74Z"/></g></g></g></g></g><g fill="#fff" clip-path="url(#y)" transform="matrix(.08 0 0 .08 5.23 -.57)"><path d="M3696.97 1642.66a21.57 21.57 0 1 1-43.14 0 21.57 21.57 0 0 1 43.14 0Z"/><text xml:space="preserve" font-family="Montserrat" font-size="96" font-weight="bold" transform="matrix(1.4 0 0 1.4 3521.72 1509.83)"><tspan x="163.19 237.01 298.64 341.56 384.47 446.1 488.63 516.56 569.08 630.71 691 733.52 791.41 858.23 886.16 925.14 955.19 985.23 1028.15 1089.78 1132.31" y="126">Better search filters</tspan></text><path d="M3696.97 1901.36a21.57 21.57 0 1 1-43.14 0 21.57 21.57 0 0 1 43.14 0z"/><text xml:space="preserve" font-family="Montserrat" font-size="96" font-weight="bold" transform="matrix(1.4 0 0 1.4 3521.72 1509.83)"><tspan x="163.19 224.15 288.08 352.02 382.07 410 452.53 512.82 579.64 645.49 675.54 742.36 810.04 862.55 890.48 957.2 1017.49 1070 1131.63 1198.64 1226.58 1290.51 1357.33 1385.27 1444.79 1508.72 1551.63 1613.27" y="312">Tool rankings based on votes</tspan></text><path d="M3696.97 2160.07a21.57 21.57 0 1 1-43.14 0 21.57 21.57 0 0 1 43.14 0z"/><text xml:space="preserve" font-family="Montserrat" font-size="96" font-weight="bold" transform="matrix(1.4 0 0 1.4 3521.72 1509.83)"><tspan x="163.19 238.64 305.65 372.66 434.29 501.3 529.24 596.24 655.76 722.58 782.87 883.19 913.24 971.12 999.06 1059.35 1126.16 1186.45 1216.5 1276.02 1328.53 1358.58 1411.09 1439.03 1481.94 1545.88 1609.81 1639.86" y="498">Added dynamic analysis tools</tspan></text><path d="M3696.97 2418.77a21.57 21.57 0 1 1-43.14 0 21.57 21.57 0 0 1 43.14 0z"/><text xml:space="preserve" font-family="Montserrat" font-size="96" font-weight="bold" transform="matrix(1.4 0 0 1.4 3521.72 1509.83)"><tspan x="163.19 225.3 268.21 328.5 371.03 398.96 465.78 495.83 548.34 591.25 655.19 697.72 757.24 785.17 844.69 874.74 927.25 993.68 1053.97 1084.02 1114.07 1167.44 1227.73 1270.64 1300.69 1364.63" y="684">Star history visualization</tspan></text><path d="M3696.97 2677.48a21.57 21.57 0 0 1-38.23 13.67 21.53 21.53 0 0 1 1.42-28.92 21.54 21.54 0 0 1 34.26 5.08 21.56 21.56 0 0 1 2.55 10.17z"/><text xml:space="preserve" font-family="Montserrat" font-size="96" font-weight="bold" transform="matrix(1.4 0 0 1.4 3521.72 1509.83)"><tspan x="163.19 254.77 318.71 385.72 447.35 489.88 556.69 584.63 651.64 713.27 765.78 795.83 863.51" y="870">Modern design</tspan></text><text xml:space="preserve" font-family="Montserrat" font-size="233.33" font-weight="bold" transform="matrix(1.5 0 0 1.5 407.02 1935.27)"><tspan x="0 266.93 412.06 476.46 574.45 719.58 879.88 1025.01 1145.17 1212.61 1374.54 1534.37 1679.5" y="231">We redesigned</tspan></text><text xml:space="preserve" font-family="Montserrat" font-size="233.33" font-weight="bold" transform="matrix(1.5 0 0 1.5 407.02 1935.27)"><tspan x="0 150.5 309.39 407.39 471.79 686.22 831.35 991.41 1111.58 1179.01 1277.94" y="527">our website</tspan></text><text xml:space="preserve" font-family="Montserrat" font-size="192" transform="matrix(.84 0 0 .84 407.02 1584.41)"><tspan x="0 137.66 187.97 317.95 447.17 578.88 694.85 745.15 823.1 953.09 1066.37 1196.35 1311.74 1362.05 1466.11 1586.5 1715.71 1766.02 1843.97 1964.35 2014.66 2135.04 2264.25 2341.25 2391.55 2485.44 2615.61 2736 2865.98 2959.87 3080.25 3157.25" y="202">A huge thank you to our sponsors</tspan></text><text xml:space="preserve" font-family="Montserrat" font-size="192" font-weight="bold" transform="matrix(1.13 0 0 1.13 6455.59 2918.66)"><tspan x="0 161.66 293.38 412.8 544.32 597.31 773.76 893.18 1024.9 1123.78 1179.26 1260.67" y="202">Open website</tspan></text></g></svg>