<?xml version="1.0" encoding="UTF-8" standalone="no"?><svg xmlns="http://www.w3.org/2000/svg" xmlns:xlink="http://www.w3.org/1999/xlink" viewBox="0 0 676.7 269.99"><defs><path id="reuse-0" fill-rule="evenodd" d="M0 0h8640v3463.5H0Z"/><path id="reuse-1" fill-rule="evenodd" d="M0 0h8640v3456H0Z"/><path id="reuse-2" fill-rule="evenodd" d="M6207.74 345.62h2075.25v2064H6207.74Z"/></defs><defs><clipPath id="a"><use xlink:href="#reuse-0" fill-rule="evenodd"/></clipPath><clipPath id="b"><use xlink:href="#reuse-1" fill-rule="evenodd"/></clipPath><clipPath id="c"><use xlink:href="#reuse-1" fill-rule="evenodd"/></clipPath><clipPath id="d"><path fill-rule="evenodd" d="M5819.44 2483.45h1945.09V3456H5819.44Z"/></clipPath><clipPath id="e"><path fill-rule="evenodd" d="M6791.98 2483.45c537.12 0 972.55 435.43 972.55 972.55H5819.44c0-537.12 435.42-972.55 972.54-972.55z"/></clipPath><clipPath id="f"><use xlink:href="#reuse-0" fill-rule="evenodd"/></clipPath><clipPath id="g"><use xlink:href="#reuse-1" fill-rule="evenodd"/></clipPath><clipPath id="h"><use xlink:href="#reuse-1" fill-rule="evenodd"/></clipPath><clipPath id="i"><use xlink:href="#reuse-2" fill-rule="evenodd"/></clipPath><clipPath id="j"><use xlink:href="#reuse-2" fill-rule="evenodd"/></clipPath><clipPath id="k"><use xlink:href="#reuse-0" fill-rule="evenodd"/></clipPath><clipPath id="l"><use xlink:href="#reuse-1" fill-rule="evenodd"/></clipPath><clipPath id="m"><use xlink:href="#reuse-1" fill-rule="evenodd"/></clipPath><clipPath id="n"><path d="M2758.65-593.08h1186.14V593.06H2758.65z"/></clipPath><clipPath id="o"><path d="M2758.65 0c0 327.54 265.52 593.06 593.07 593.06 327.54 0 593.07-265.52 593.07-593.07 0-327.54-265.53-593.07-593.07-593.07-327.55 0-593.07 265.53-593.07 593.07"/></clipPath><clipPath id="p"><path fill-rule="evenodd" d="M367.5 445.5h3900v678h-3900z"/></clipPath><clipPath id="q"><use xlink:href="#reuse-0" fill-rule="evenodd"/></clipPath><clipPath id="r"><use xlink:href="#reuse-1" fill-rule="evenodd"/></clipPath><clipPath id="s"><use xlink:href="#reuse-1" fill-rule="evenodd"/></clipPath><clipPath id="t"><path fill-rule="evenodd" d="M6207.74 2812.19h2088.43v517.32H6207.74z"/></clipPath><clipPath id="u"><path fill-rule="evenodd" d="M6207.74 2974.19v192.61c0 89.47 72.53 162 162 162H8132.4c89.47 0 162-72.53 162-162v-192.61c0-89.47-72.53-162-162-162H6369.74c-89.47 0-162 72.53-162 162z"/></clipPath><clipPath id="z" clipPathUnits="userSpaceOnUse"/><clipPath id="y" clipPathUnits="userSpaceOnUse"/><clipPath id="x" clipPathUnits="userSpaceOnUse"/><clipPath id="w" clipPathUnits="userSpaceOnUse"/><clipPath id="v" clipPathUnits="userSpaceOnUse"/></defs><rect width="676.7" height="269.99" fill="#026ced" rx="10" ry="10"/><g clip-path="url(#a)" transform="matrix(.078454 0 0 .078454 5.23 -1.15)"><g clip-path="url(#b)"><g clip-path="url(#c)"><g clip-path="url(#d)"><g clip-path="url(#e)"><path fill="#035ac4" d="M5819.44 4428.54V2483.45h1945.09v1945.09Z"/></g></g></g></g></g><g clip-path="url(#f)" transform="matrix(.078454 0 0 .078454 5.23 -.57)"><g clip-path="url(#g)"><g clip-path="url(#h)"><g clip-path="url(#i)"><g clip-path="url(#j)"><path fill="#fff" d="M7221.46 704.13c0 12.65 10.54 23.2 23.9 23.2 12.65 0 23.2-10.55 23.2-23.9 0-13.36-10.55-23.2-23.9-23.2-12.66 0-23.2 10.54-23.2 23.9zm338.84 0c0 12.65 10.55 23.2 23.9 23.2 12.66 0 23.2-10.55 23.2-23.9 0-13.36-10.54-23.2-23.9-23.2-12.65 0-23.2 10.54-23.2 23.9zm338.15 0c0 12.65 10.54 23.2 23.9 23.2 12.65 0 23.2-10.55 23.2-23.9 0-13.36-10.55-23.2-23.9-23.2-12.66 0-23.2 10.54-23.2 23.9zm341.65 0c0 11.25 9.14 19.68 20.39 19.68s19.68-9.14 19.68-20.38c0-11.25-9.14-19.69-20.38-19.69-11.25 0-19.69 9.14-19.69 20.39zm-1356.78 0a23.4 23.4 0 0 0 23.2 23.2 23.4 23.4 0 0 0 23.2-23.2 23.4 23.4 0 0 0-23.2-23.2c-12.66-.7-23.2 10.54-23.2 23.2Zm-672.77 0c0 11.25 9.14 19.68 20.38 19.68 11.25 0 19.69-9.14 19.69-20.38 0-11.25-9.14-19.69-20.39-19.69s-19.68 9.14-19.68 20.39zm1001.07 673.5c0 16.87 14.06 30.93 30.93 30.93 16.87 0 30.93-14.06 30.93-30.94 0-16.87-14.06-30.93-30.93-30.93-16.87 0-30.93 14.06-30.93 30.93Zm343.06 0c0 14.76 12.65 27.41 26.71 27.41 14.77 0 26.01-12.65 26.01-27.42 0-14.76-12.65-27.41-26-27.41-15.47 0-26.72 12.65-26.72 27.41-1.4 0-1.4 0 0 0zm340.25 0c0 13.35 11.25 23.9 23.9 23.9 13.36 0 23.9-11.25 23.9-23.9 0-12.66-11.24-23.9-23.9-23.9a23.7 23.7 0 0 0-23.9 23.9zm342.36 0a20.4 20.4 0 0 0 20.39 20.38 20.4 20.4 0 0 0 20.38-20.39 20.4 20.4 0 0 0-20.38-20.38 20.4 20.4 0 0 0-20.39 20.38zm-1359.6 0c0 14.76 12.66 26.7 27.42 26.7 14.76 0 26.71-12.65 26.71-27.4 0-14.77-12.65-26.72-26.71-26.72a27.45 27.45 0 0 0-27.42 27.41c-.7 0-.7 0 0 0zm-669.95 0a20.4 20.4 0 0 0 20.38 20.38 20.4 20.4 0 0 0 20.39-20.39 20.4 20.4 0 0 0-20.39-20.38 20.4 20.4 0 0 0-20.38 20.38zm1013.72 336.74c0 14.76 11.95 27.42 26.71 27.42 14.77 0 27.42-11.95 27.42-26.72 0-14.76-11.95-27.41-26.71-27.41-14.77 0-27.42 11.95-27.42 26.71zm338.14 0c0 14.76 11.95 27.42 26.71 27.42 14.77 0 27.42-11.95 27.42-26.72 0-14.76-11.95-27.41-26.71-27.41-14.77 0-27.42 11.95-27.42 26.71Zm341.66 0c0 12.66 10.54 23.9 23.2 23.9 12.65 0 23.9-10.54 23.9-23.2 0-12.65-10.55-23.9-23.2-23.9-13.36 0-23.9 10.55-23.9 23.2zm341.65 0c0 11.25 8.44 20.39 19.69 20.39 11.25 0 20.39-8.44 20.39-19.69 0-11.24-8.44-20.38-19.69-20.38-11.25 0-20.39 8.43-20.39 19.68zm-1359.6 0a26.7 26.7 0 0 0 26.72 26.72 26.7 26.7 0 0 0 26.71-26.72 26.7 26.7 0 0 0-26.7-26.71c-14.07 0-26.72 11.95-26.72 26.71zm341.66 336.75c0 12.65 10.55 23.9 23.2 23.9 12.66 0 23.9-10.54 23.9-23.2 0-12.65-10.54-23.9-23.2-23.9-13.35-.7-24.6 10.54-23.9 23.2-.7 0-.7 0 0 0zm338.15 0c0 12.65 10.54 23.9 23.2 23.9 12.65 0 23.9-10.54 23.9-23.2 0-12.65-10.55-23.9-23.2-23.9-13.36-.7-24.6 10.54-23.9 23.2-.7 0-.7 0 0 0zm338.14 0c0 12.65 10.54 23.9 23.2 23.9 12.65 0 23.9-10.54 23.9-23.2 0-12.65-10.55-23.9-23.2-23.9-13.36-.7-24.6 10.54-23.9 23.2-.7 0-.7 0 0 0zm341.65 0c0 11.25 8.44 20.39 19.69 20.39 11.25 0 20.39-8.44 20.39-19.69 0-11.25-8.44-20.39-19.69-20.39-11.95-.7-21.09 8.44-20.39 19.69-.7 0-.7 0 0 0zM6548.7 1040.17c0 12.66 10.54 23.9 23.2 23.9 12.65 0 23.9-10.54 23.9-23.2 0-12.65-10.54-23.9-23.2-23.9-13.36-.7-24.6 10.55-23.9 23.2-.7 0-.7 0 0 0zm-334.63 674.2c0 11.25 8.44 20.39 19.69 20.39 11.24 0 20.38-8.44 20.38-19.69 0-11.24-8.43-20.38-19.68-20.38-11.95-.7-21.09 8.43-20.39 19.68-.7 0-.7 0 0 0zm1013.73 673.5c0 11.24 8.43 20.38 19.68 20.38s20.39-8.43 20.39-19.68-8.44-20.39-19.69-20.39c-11.25 0-20.38 8.44-20.38 19.69Zm338.14 0c0 11.24 8.43 20.38 19.68 20.38s20.39-8.43 20.39-19.68-8.44-20.39-19.69-20.39c-11.24 0-20.38 8.44-20.38 19.69Zm338.14 0c0 11.24 8.44 20.38 19.68 20.38 11.25 0 20.39-8.43 20.39-19.68s-8.44-20.39-19.68-20.39c-11.25 0-20.39 8.44-20.39 19.69Zm338.14 0c0 11.24 8.44 20.38 19.69 20.38 11.24 0 20.38-8.43 20.38-19.68s-8.43-20.39-19.68-20.39-20.39 8.44-20.39 19.69Zm-1690 0c0 11.24 9.13 20.38 19.68 20.38 10.54 0 19.68-9.14 19.68-20.38 0-11.25-9.14-20.4-19.68-20.4-11.25 1.41-19.69 9.15-19.69 20.4zm338.14 0c0 11.24 9.14 20.38 19.68 20.38 10.55 0 19.68-9.14 19.68-20.38 0-11.25-9.13-20.4-19.68-20.4-11.25 1.41-19.68 9.15-19.68 20.4zm-676.99 0c0 11.24 8.44 20.38 19.68 20.38 11.25 0 20.4-8.43 20.4-19.68s-8.45-20.39-19.7-20.39c-11.24 0-20.38 8.44-20.38 19.69Zm1004.58-1347a27.45 27.45 0 0 0 27.42 27.42c15.47 0 27.42-11.95 27.42-27.41 0-15.47-11.95-27.42-27.42-27.42a27.45 27.45 0 0 0-27.42 27.42zm338.15 0c0 14.77 12.65 27.42 27.41 27.42 14.77 0 27.42-12.65 27.42-27.41 0-14.77-12.65-27.42-27.42-27.42-14.76 0-27.41 12.65-27.41 27.42Zm341.65 0c0 13.36 11.25 23.9 23.9 23.9 13.36 0 23.9-11.24 23.9-23.9 0-12.65-11.24-23.9-23.9-23.9-12.65 0-23.9 10.55-23.9 23.9zm342.36 0a20.4 20.4 0 0 0 20.39 20.4 20.4 20.4 0 0 0 20.39-20.4 20.4 20.4 0 0 0-20.39-20.38c-11.95 0-20.39 9.14-20.39 20.39zM6545.88 704.14c0 12.65 10.54 23.9 23.2 23.9 12.65 0 23.2-10.54 23.2-23.9s-10.55-23.9-23.2-23.9c-13.36 0-23.2 11.24-23.2 23.9zm333.92 336.75c0 14.76 12.66 26.71 27.42 26.71 14.76 0 26.71-12.65 26.71-27.42 0-14.76-12.65-26.71-27.41-26.71-14.77 0-26.72 12.65-26.72 27.42zm-669.96 0c0 11.24 9.14 20.38 19.69 20.38a20.4 20.4 0 0 0 20.39-20.38 20.4 20.4 0 0 0-20.4-20.4c-10.54 0-19.68 9.15-19.68 20.4Zm1015.84-673.5c0 11.25 9.14 19.69 20.38 19.69 11.25 0 19.69-9.14 19.69-20.4 0-11.24-9.14-19.68-20.39-19.68s-19.68 9.14-19.68 20.4Zm338.14 0c0 11.25 9.14 19.69 20.39 19.69 11.24 0 19.68-9.14 19.68-20.4 0-11.24-9.14-19.68-20.39-19.68s-19.68 9.14-19.68 20.4Zm338.14 0c0 11.25 9.14 19.69 20.39 19.69s19.68-9.14 19.68-20.4c0-11.24-9.14-19.68-20.39-19.68-11.24 0-19.68 9.14-19.68 20.4Zm338.14 0c0 11.25 9.14 19.69 20.39 19.69s19.68-9.14 19.68-20.4c0-11.24-9.14-19.68-20.38-19.68-11.25 0-19.69 9.14-19.69 20.4Zm-1690.7 0c0 10.55 9.13 19.69 19.68 19.69 10.54 0 19.68-9.14 19.68-19.69 0-10.54-9.14-19.68-19.68-19.68-11.25-.7-19.69 9.14-19.69 19.68Zm-338.85 0c0 11.25 9.14 19.69 20.38 19.69 11.25 0 19.69-9.14 19.69-20.4 0-11.24-9.14-19.68-20.39-19.68s-19.68 9.14-19.68 20.4Zm676.28 1683.74c0 13.36 10.55 23.2 23.2 23.2a23.4 23.4 0 0 0 23.2-23.2 23.4 23.4 0 0 0-23.2-23.2c-13.36-.7-23.2 10.54-23.2 23.2Zm-672.77 0c0 11.25 8.44 20.39 19.69 20.39 11.24 0 20.38-8.44 20.38-19.69 0-11.25-8.43-20.39-19.68-20.39-11.95-.7-21.09 8.44-20.39 19.69-.7 0-.7 0 0 0zm334.63-674.2c0 12.66 10.54 23.9 23.2 23.9 12.65 0 23.9-10.54 23.9-23.2 0-12.65-10.54-23.9-23.2-23.9-13.36-.7-24.6 10.55-23.9 23.2-.7 0-.7 0 0 0zm0 337.45c0 12.66 9.84 23.2 23.2 23.2 12.65 0 23.2-9.84 23.2-23.2s-9.84-23.2-23.2-23.2c-12.66-.7-23.2 9.84-23.2 23.2zm0 336.75c0 13.36 10.54 23.2 23.2 23.2a23.4 23.4 0 0 0 23.2-23.2 23.4 23.4 0 0 0-23.2-23.2c-13.36-.7-23.2 9.84-23.2 23.2Zm338.84-1683.74c0 10.55 9.14 19.69 19.69 19.69 10.54 0 19.68-9.14 19.68-19.69 0-10.54-9.14-19.68-19.68-19.68-11.25-.7-19.69 9.14-19.69 19.68Z"/></g></g></g></g></g><g clip-path="url(#k)" transform="matrix(.078454 0 0 .078454 5.23 0)"><g clip-path="url(#l)"><g clip-path="url(#m)"><g clip-path="url(#n)"><g clip-path="url(#o)"><path fill="#035ac4" d="M2758.65 593.06V-593.08h1186.14V593.06Z"/></g></g></g></g></g><g fill="#fff" clip-path="url(#p)" transform="matrix(.078454 0 0 .078454 5.23 -.57)"><path fill-rule="evenodd" d="m655.8 1118.19-10.39-54.83a246.84 246.84 0 0 1-39.87-12.56l-40.6 37.44a341.72 341.72 0 0 1-67.65-44.69l17.64-50.48a291.45 291.45 0 0 1-29.72-32.37l-51.71 12.8a339.32 339.32 0 0 1-38.18-71.5l40.84-36.7a288.06 288.06 0 0 1-8.7-41.07l-53.64-15.21a336.8 336.8 0 0 1 2.9-81.16l56.3-12.08a278.57 278.57 0 0 1 12.08-37.2l-40.6-42.26a348.34 348.34 0 0 1 43.01-68.84l57.27 18.6a255.22 255.22 0 0 1 28.03-25.6l-13.05-58.7a332.27 332.27 0 0 1 72.5-36.23l38.17 43.96a282.3 282.3 0 0 1 38.18-8.46l17.15-54.83c27.07-1.69 54.37 0 81.2 4.84l10.38 54.58a251.83 251.83 0 0 1 39.63 12.56l40.6-37.44a337.07 337.07 0 0 1 67.65 44.93l-17.4 50.24a309.95 309.95 0 0 1 29.48 32.37l51.95-12.8a346.58 346.58 0 0 1 38.18 71.73l-41.08 36.96c4.11 13.04 7.01 26.57 8.94 40.58l53.4 15.46a336.81 336.81 0 0 1-2.65 81.15l-56.55 12.08a278.56 278.56 0 0 1-12.08 37.2l40.84 42.02a334.5 334.5 0 0 1-42.77 68.36l-90.85-84.54-15.47 13.29-25.85-26.1a177.99 177.99 0 0 0-143.9-296.4A178.07 178.07 0 0 0 539.56 834.4a177.92 177.92 0 0 0 82.2 104.81 178.12 178.12 0 0 0 202.45-17.15l21.26 28.26-15.46 13.52 72 103.87a337.14 337.14 0 0 1-71.76 35.98l-37.94-44.2a290.7 290.7 0 0 1-38.18 8.46l-17.4 54.83c-27.06 1.69-54.12 0-80.94-4.83"/><path d="M619.8 802.98a94.15 94.15 0 0 0 65 70.04c15.7 4.83 32.62 5.08 47.6-.72-14.5-7.25-26.58-13.53-37.7-21.01a178.49 178.49 0 0 1-70.55-95.65c-7.01 14.49-7.74 31.4-4.35 47.58m222.3-34.54a131.66 131.66 0 0 1-5.73 65.64 131.68 131.68 0 0 1-36.78 54.67 131.73 131.73 0 0 1-58.65 30.06 132.04 132.04 0 0 1-112.7-26.74 131.95 131.95 0 0 1-47.83-91.99 131.83 131.83 0 0 1 90.34-139.34 131.97 131.97 0 0 1 170.57 101.37c.4 2.1.73 4.21 1.02 6.33"/><path fill-opacity=".73" d="M3105.46 577.62 3074.53 631h111.88V914.1h60.16V631h97.38l31.41-53.38Zm361 343.95a139.08 139.08 0 0 1-66.45-15.7 120.9 120.9 0 0 1-58.41-70.96 119.41 119.41 0 0 1-4.9-25.2 120.47 120.47 0 0 1-.23-17.12c0-24.88 5.32-47.1 16.2-66.9a116.47 116.47 0 0 1 46.38-45.9c20.06-11.1 42.77-16.66 67.9-16.66 25.13 0 47.6 5.55 66.94 16.9a113.4 113.4 0 0 1 45.9 45.9c11.12 19.32 16.92 41.3 16.92 66.18 0 25.12-5.8 47.58-16.91 67.63a117.5 117.5 0 0 1-45.91 45.9 137.63 137.63 0 0 1-67.42 15.93zm-69.83-129.46c0 24.15 6.52 43.48 19.33 57.97 12.56 14.25 29.48 21.5 50.5 21.5s37.7-7.25 50.26-21.02c12.8-14 19.09-33.57 19.09-58.45 0-24.16-6.29-43.48-19.33-57.97a64.18 64.18 0 0 0-29.24-18.58 64 64 0 0 0-20.78-2.68c-21.02 0-37.94 7.25-50.75 21.74-12.56 14.5-19.08 33.82-19.08 57.49zm367.76 129.46a139.09 139.09 0 0 1-66.45-15.7 120.56 120.56 0 0 1-43.97-40 120.33 120.33 0 0 1-16.87-39.2 120.08 120.08 0 0 1-2.95-34.08c0-24.88 5.55-47.1 16.43-66.9a116.54 116.54 0 0 1 46.39-45.9 136.9 136.9 0 0 1 67.66-16.66c25.37 0 47.6 5.55 67.17 16.9a113.45 113.45 0 0 1 45.91 45.9c11.12 19.32 16.67 41.3 16.67 66.18 0 25.12-5.55 47.58-16.91 67.63a117.46 117.46 0 0 1-45.91 45.9c-19.33 10.62-41.8 15.93-67.17 15.93zm-70.07-129.46c0 24.15 6.52 43.48 19.33 57.97a65.3 65.3 0 0 0 50.74 21.5c21.02 0 37.7-7.25 50.02-21.02 12.8-14 19.33-33.57 19.33-58.45 0-24.15-6.53-43.48-19.33-57.97a64.26 64.26 0 0 0-22.64-16.2 63.83 63.83 0 0 0-27.38-5.06c-21.02 0-37.94 7.25-50.74 21.74-12.81 14.5-19.33 33.82-19.33 57.49zm250.8 121.98V567.48h58v346.6ZM4252 802.74a66.32 66.32 0 0 0-13.43-13.67c-5.14-3.9-10.73-7-16.77-9.28-17.89-5.21-35.77-10.45-53.64-15.7a425.2 425.2 0 0 1-41.57-12.08c-6.52-4.34-9.9-9.66-9.9-15.21 0-7.73 3.86-13.53 11.35-17.88a59.12 59.12 0 0 1 29.24-7.49c13.3 0 25.61 2.42 36.73 7.5a185.46 185.46 0 0 1 32.14 18.35l24.89-42.51a266.91 266.91 0 0 0-43.5-22.95 131.87 131.87 0 0 0-51.7-8.7 122.93 122.93 0 0 0-51.23 9.67c-14.5 6.04-26.1 14.97-34.32 26.57a70.8 70.8 0 0 0-11.6 40.33c0 15.22 3.39 27.54 10.16 37.2 8.21 11.11 17.88 18.84 28.75 22.95 3.62 1.45 18.12 5.8 43.01 12.32l25.37 7.24c14.02 3.87 23.44 7 28.03 9.66 5.8 2.66 8.7 7.97 8.7 15.7 0 8.46-4.1 15.22-12.08 20.05-8.22 5.07-19.33 7.73-33.35 7.73a110.9 110.9 0 0 1-44.46-9.18 157.9 157.9 0 0 1-39.62-24.88l-24.9 43a159.8 159.8 0 0 0 78.69 37.76 159.93 159.93 0 0 0 29.33 2.33c21.99 0 41.07-3.38 56.78-10.38a80.11 80.11 0 0 0 36.25-28.26c8.7-12.08 13.04-26.09 13.04-42.03 0-16.18-3.38-28.99-10.39-38.16z"/><path d="M1315.94 578.35h-69.83l-119.37 314 50.98 29.46 30.7-82.6h142.55l30.93 82.6 53.16-30.43zm-36.25 74.87 51.47 132.6h-101.73zm443.16 112.32c0-31.72-8.14-56.36-24.4-73.91-6.45-7.4-15.07-13.6-25.86-18.6-12.9-6.12-29.64-9.18-50.26-9.18-14.34 0-28.68 3.54-43.01 10.63-14.34 6.6-28.2 19.97-41.56 40.1l-29.73-50.73-50.74 28.74 36 62.8v159.42h59.2V780.03c0-12.88 2.42-24.55 7.25-35.02 5.16-10.47 12.17-18.12 21.03-22.95a55.18 55.18 0 0 1 30.68-8.93c17.72 0 30.77 5.07 39.15 15.21 8.86 9.02 13.29 23.19 13.29 42.51v143.96h58.96Zm64.51-39.13c-10.47 21.42-15.7 43.72-15.7 66.9 0 23.68 5.23 46.3 15.7 67.88 9.83 19.16 23.84 33.98 42.04 44.44 17.24 11.27 37.38 16.9 60.41 16.9 16.76 0 32.3-3.53 46.64-10.62a110.75 110.75 0 0 0 30.68-21.74c8.86-8.85 14.9-15.78 18.13-20.77l31.17 53.14 50.98-28.26-36.24-62.32V671.58h-59.2v30.92c-8.7-11.27-20.54-20.94-35.52-28.99a117.48 117.48 0 0 0-46.88-9.66c-23.52 0-43.65 5.64-60.4 16.9-17.08 9.19-31.02 24.48-41.8 45.9zm45.91 66.9c0-22.86 6.04-41.62 18.12-56.27a57.4 57.4 0 0 1 22.48-15.94c8.53-3.7 17.96-5.56 28.27-5.56 21.26 0 38.25 7.17 50.98 21.5 12.56 13.36 18.85 32.12 18.85 56.28 0 16.1-2.74 29.95-8.22 41.54-5.8 11.92-13.93 21.01-24.4 27.3-10.15 6.44-22.72 9.66-37.7 9.66-12.88 0-25.37-3.22-37.45-9.67-10.8-6.6-18.28-15.7-22.47-27.29-5.64-12.88-8.46-26.73-8.46-41.54Zm277.64 121.5v-346.6h58.47v346.6Zm106.55-253.86v50.73l82.16 200.23-37.45 93.72h59.68l119.6-293.95v-50.73h-59.43v50.73c-16.92 44.44-34.8 89.85-52.2 134.77l-52.91-134.77v-50.73zm455.24 142.51c-5.8-9.02-15.87-16.67-30.2-22.95-3.71-1.6-12.25-4.18-25.62-7.72l-27.79-8.22c-25.6-6.6-39.46-10.54-41.56-11.83-6.76-4.51-10.15-9.58-10.15-15.22 0-7.73 3.87-13.6 11.6-17.63 8.54-5.15 18.2-7.73 29-7.73 13.37 0 25.7 2.58 36.97 7.73 12.72 5.63 23.36 11.67 31.9 18.11l24.88-42.5a254.64 254.64 0 0 0-43.5-22.95c-13.36-5.8-30.6-8.7-51.7-8.7-19.65 0-36.65 3.22-50.99 9.66-14.65 5.96-26.17 14.82-34.55 26.57-7.57 11.6-11.36 25.04-11.36 40.34 0 15.3 3.3 27.7 9.91 37.2 8.38 11.27 17.96 18.92 28.76 22.94 3.86 1.61 18.2 5.72 43 12.32l25.38 7.25c14.01 3.86 23.44 7.08 28.27 9.66 5.64 2.74 8.46 7.97 8.46 15.7 0 8.53-4.03 15.22-12.09 20.05-8.05 5.15-19.17 7.73-33.34 7.73-15.63 0-30.45-3.06-44.46-9.18a161.6 161.6 0 0 1-39.63-24.88l-24.89 43c16.27 13.68 32.38 23.34 48.33 28.98 16.6 7.4 36.49 11.1 59.68 11.1 22.07 0 41.08-3.45 57.03-10.38 15.95-6.76 28.03-16.18 36.24-28.26 8.7-12.08 13.05-26.08 13.05-42.03 0-16.1-3.54-28.82-10.63-38.16zm59.68 111.35V671.58h58.96v243.23Zm29.72-275.35c-10.47 0-19.33-3.63-26.58-10.87-7.4-7.73-11.11-16.67-11.11-26.81 0-10.47 3.62-19.4 10.87-26.82 7.41-7.56 16.35-11.35 26.82-11.35 10.47 0 19.33 3.79 26.58 11.35 7.41 7.41 11.12 16.27 11.12 26.57 0 10.31-3.63 19.33-10.88 27.06-7.4 7.24-16.35 10.87-26.82 10.87zm279.57 164c-5.64-9.02-15.63-16.67-29.96-22.95-3.87-1.6-12.49-4.18-25.86-7.72l-27.78-8.22c-25.46-6.6-39.31-10.54-41.57-11.83-6.76-4.51-10.14-9.58-10.14-15.22 0-7.73 3.86-13.6 11.6-17.63 8.53-5.15 18.2-7.73 28.99-7.73 13.53 0 25.85 2.58 36.97 7.73 12.89 5.63 23.6 11.67 32.14 18.11l24.64-42.5a254.65 254.65 0 0 0-43.5-22.95c-13.36-5.8-30.52-8.7-51.46-8.7-19.81 0-36.89 3.22-51.22 9.66-14.66 5.96-26.1 14.82-34.32 26.57-7.73 11.6-11.6 25.04-11.6 40.34 0 15.3 3.39 27.7 10.15 37.2 8.22 11.27 17.72 18.92 28.52 22.94 3.86 1.61 18.2 5.72 43 12.32l25.38 7.25c14.01 3.86 23.44 7.08 28.27 9.66 5.8 2.74 8.7 7.97 8.7 15.7 0 8.53-4.03 15.22-12.08 20.05-8.22 5.15-19.33 7.73-33.35 7.73-15.62 0-30.44-3.06-44.46-9.18a165.99 165.99 0 0 1-39.87-24.88l-24.64 43c16.1 13.68 32.21 23.34 48.32 28.98 16.43 7.4 36.33 11.1 59.69 11.1 21.9 0 40.83-3.45 56.78-10.38 16.1-6.76 28.19-16.18 36.24-28.26 8.7-12.08 13.05-26.08 13.05-42.03 0-16.1-3.54-28.82-10.63-38.16z"/><path d="M2218.67 964.8h101.25v40.83h-101.49Z"/></g><g clip-path="url(#q)" transform="matrix(.078454 0 0 .078454 5.23 -.57)"><g clip-path="url(#r)"><g clip-path="url(#s)"><g clip-path="url(#t)"><g clip-path="url(#u)"><path fill="#003070" d="M6207.74 2812.19h2088.43v517.32H6207.74Z"/></g></g></g></g></g><path fill="#fff" d="M295.28 128.3a1.83 1.83 0 0 1-.13.65 1.66 1.66 0 0 1-.92.91 1.7 1.7 0 0 1-2.33-1.4 1.83 1.83 0 0 1 .07-.65 1.7 1.7 0 0 1 3.3.32v.17z" clip-path="url(#v)"/><g fill="#fff" stroke-width=".11" aria-label="Better search filters"><path d="M303.53 124.28h-3.48v7.35h3.62c1.73 0 2.83-.79 2.83-2.05 0-.94-.58-1.66-1.5-1.85a1.63 1.63 0 0 0 1.26-1.6c0-1.12-1.06-1.85-2.73-1.85zm-.1 2.93h-1.47v-1.43h1.47c.53 0 .86.25.86.7 0 .45-.33.73-.86.73zm0 2.93h-1.47v-1.54h1.47c.67-.01 1.09.28 1.09.74 0 .5-.42.8-1.09.8zM310.6 125.9c-1.78 0-2.96 1.16-2.96 2.92 0 1.73 1.14 2.87 3 2.87 1.04 0 1.9-.36 2.47-1l-.97-.98c-.38.38-.85.58-1.34.58-.63 0-1.1-.36-1.28-1h3.93c.13-2.06-.87-3.4-2.85-3.4zm-1.13 2.4c.13-.65.53-1.1 1.14-1.1.62 0 1.04.45 1.04 1.1zM318.16 130.01c-.27.12-.51.2-.7.2-.33 0-.52-.19-.52-.6v-2.14h1.47v-1.24h-1.47v-1.57h-1.85v1.57h-.79v1.24h.79v2.43c0 1.17.8 1.82 1.9 1.81.55 0 1.12-.13 1.52-.38zM322.84 130.01c-.27.12-.51.2-.7.2-.33 0-.51-.19-.51-.6v-2.14h1.46v-1.24h-1.46v-1.57h-1.86v1.57H319v1.24h.78v2.43c0 1.17.8 1.82 1.9 1.81.55 0 1.12-.13 1.53-.38zM326.69 125.9c-1.77 0-2.96 1.16-2.96 2.92 0 1.73 1.14 2.87 3 2.87 1.05 0 1.9-.36 2.47-1l-.97-.98c-.38.38-.85.58-1.33.58-.64 0-1.12-.36-1.3-1h3.95c.12-2.06-.88-3.4-2.86-3.4zm-1.13 2.4c.13-.65.53-1.1 1.14-1.1.62 0 1.04.45 1.04 1.1zM332.78 126.9v-.94h-1.86v5.67h1.86v-2.9c.1-.78.79-1.24 1.83-1.14v-1.7c-.8 0-1.44.36-1.83 1.01zM342.39 127.75l.63-1.21a4.6 4.6 0 0 0-2.36-.66c-1.33 0-2.33.65-2.33 1.83 0 1.96 2.93 1.57 2.93 2.35 0 .23-.25.34-.6.34-.63 0-1.36-.25-2.01-.7l-.59 1.2c.7.54 1.6.81 2.56.81 1.38 0 2.4-.66 2.4-1.82 0-1.97-2.97-1.61-2.97-2.36 0-.24.22-.35.54-.35.46 0 1.1.2 1.8.57zM346.83 125.9c-1.77 0-2.95 1.16-2.95 2.92 0 1.73 1.14 2.87 3 2.87 1.04 0 1.89-.36 2.46-1l-.97-.98c-.38.38-.85.58-1.33.58-.64 0-1.11-.36-1.29-1h3.94c.13-2.06-.88-3.4-2.86-3.4zm-1.12 2.4c.13-.65.52-1.1 1.13-1.1.63 0 1.05.45 1.05 1.1zM353.62 125.89c-.93 0-1.75.22-2.64.61l.51 1.26c.6-.3 1.23-.45 1.7-.45.71 0 1.08.32 1.08.85v.06h-1.48c-1.4.02-2.17.64-2.17 1.72 0 1.04.73 1.77 1.94 1.77.77 0 1.34-.25 1.7-.72v.64h1.84v-3.69c0-1.3-.92-2.05-2.48-2.05zm-.48 4.55c-.49 0-.77-.25-.77-.64 0-.4.26-.58.79-.58h1.1v.49c-.1.43-.57.73-1.12.73zM359.5 126.9v-.94h-1.86v5.67h1.87v-2.9c.09-.78.78-1.24 1.82-1.14v-1.7c-.8 0-1.44.36-1.82 1.01zM365.94 128.02l1.35-.78a2.8 2.8 0 0 0-2.54-1.34c-1.76 0-2.93 1.16-2.93 2.92 0 1.73 1.16 2.87 2.91 2.87 1.2 0 2.13-.5 2.58-1.36l-1.37-.79c-.23.44-.62.64-1.11.64-.67 0-1.13-.54-1.13-1.37 0-.82.46-1.37 1.13-1.37.48 0 .86.22 1.1.58zM372.4 125.89c-.84 0-1.49.34-1.88 1v-3.04h-1.87v7.78h1.87v-2.8c0-.74.41-1.27 1.1-1.28.6 0 .97.4.97 1.04v3.04h1.86v-3.57c0-1.34-.81-2.17-2.06-2.17zM381.77 125.26c.2 0 .45.08.65.23l.65-1.32a3.37 3.37 0 0 0-1.62-.4c-1.23-.01-2.18.7-2.18 1.94v.52h-.76v1.24h.76v4.16h1.86v-4.16h1.25v-1.24h-1.25v-.36c0-.41.27-.61.64-.61zM384.12 123.5c-.49 0-.85.36-.85.87 0 .49.36.85.85.85.5 0 .85-.36.85-.85 0-.5-.35-.86-.85-.86zm-.93 2.46v5.67h1.86v-5.67zM386.52 123.85v7.78h1.87v-7.78zM393.08 130.01c-.27.12-.51.2-.7.2-.33 0-.52-.19-.52-.6v-2.14h1.47v-1.24h-1.47v-1.57h-1.85v1.57h-.78v1.24h.78v2.43c0 1.17.8 1.82 1.9 1.81.55 0 1.12-.13 1.53-.38zM396.92 125.9c-1.77 0-2.95 1.16-2.95 2.92 0 1.73 1.14 2.87 3 2.87 1.04 0 1.9-.36 2.47-1l-.98-.98c-.37.38-.84.58-1.33.58-.63 0-1.1-.36-1.28-1h3.93c.13-2.06-.88-3.4-2.86-3.4zm-1.12 2.4c.13-.65.53-1.1 1.14-1.1.62 0 1.04.45 1.04 1.1zM403.02 126.9v-.94h-1.86v5.67h1.86v-2.9c.1-.78.79-1.24 1.82-1.14v-1.7c-.8 0-1.43.36-1.82 1.01zM409.58 127.75l.63-1.21a4.6 4.6 0 0 0-2.36-.66c-1.33 0-2.32.65-2.32 1.83 0 1.96 2.92 1.57 2.92 2.35 0 .23-.25.34-.6.34-.63 0-1.36-.25-2.01-.7l-.59 1.2c.7.54 1.6.81 2.56.81 1.38 0 2.4-.66 2.4-1.82 0-1.97-2.97-1.61-2.97-2.36 0-.24.22-.35.54-.35.46 0 1.1.2 1.8.57z"/></g><path fill="#fff" d="M295.28 148.6a1.83 1.83 0 0 1-.13.64 1.66 1.66 0 0 1-.92.92 1.7 1.7 0 0 1-2.33-1.4 1.83 1.83 0 0 1 .07-.66 1.7 1.7 0 0 1 2.81-.7 1.7 1.7 0 0 1 .5 1.2z" clip-path="url(#w)"/><g fill="#fff" stroke-width=".11" aria-label="Tool rankings based on votes"><path d="M299.4 144.58v1.58h2.19v5.76h1.91v-5.76h2.2v-1.58zM309.33 146.2c-1.87 0-3.1 1.15-3.1 2.89 0 1.74 1.23 2.9 3.1 2.9 1.86 0 3.1-1.16 3.1-2.9s-1.24-2.9-3.1-2.9zm0 1.5c.73 0 1.22.57 1.22 1.4 0 .85-.49 1.42-1.22 1.42s-1.22-.57-1.22-1.41.5-1.4 1.22-1.4zM316.3 146.2c-1.86 0-3.09 1.15-3.09 2.89 0 1.74 1.23 2.9 3.1 2.9 1.86 0 3.1-1.16 3.1-2.9s-1.24-2.9-3.1-2.9zm0 1.5c.74 0 1.23.57 1.23 1.4 0 .85-.5 1.42-1.23 1.42-.72 0-1.21-.57-1.21-1.41s.5-1.4 1.21-1.4zM320.7 144.15v7.77h1.87v-7.77zM328.84 147.2v-.94h-1.86v5.66h1.86v-2.89c.1-.78.79-1.24 1.83-1.14v-1.7c-.8 0-1.44.36-1.83 1zM334.18 146.18c-.94 0-1.75.22-2.64.62l.5 1.26c.62-.3 1.23-.45 1.7-.45.72 0 1.09.31 1.09.85v.06h-1.48c-1.4.02-2.17.64-2.17 1.72 0 1.03.72 1.77 1.94 1.77.76 0 1.34-.25 1.7-.73v.64h1.84v-3.68c-.01-1.3-.92-2.06-2.48-2.06zm-.49 4.56c-.48 0-.76-.25-.76-.64 0-.4.26-.59.78-.59h1.12v.5c-.12.43-.58.73-1.14.73zM341.94 146.18c-.83 0-1.48.35-1.88 1v-.92h-1.86v5.66h1.86v-3c.08-.63.48-1.06 1.11-1.07.59 0 .97.4.97 1.04v3.03h1.85v-3.57c0-1.33-.82-2.17-2.05-2.17zM349.18 151.92h2.2l-2.12-3.47 2.07-2.2h-2.11l-1.81 1.92v-4.02h-1.87v7.77h1.87v-1.54l.57-.6zM353.6 143.8c-.48 0-.84.36-.84.86s.36.85.85.85.85-.35.85-.85-.36-.85-.85-.85zm-.92 2.46v5.66h1.85v-5.66zM359.7 146.18c-.83 0-1.48.35-1.88 1v-.92h-1.87v5.66h1.87v-3c.07-.63.48-1.06 1.11-1.07.59 0 .96.4.96 1.04v3.03h1.86v-3.57c0-1.33-.82-2.17-2.06-2.17zM366.82 146.26v.69a2.01 2.01 0 0 0-1.66-.76c-1.4 0-2.38 1.07-2.38 2.69 0 1.64 1.01 2.73 2.42 2.73.7 0 1.25-.26 1.62-.74v.6c0 .66-.52 1.1-1.36 1.1-.61 0-1.24-.2-1.75-.56l-.65 1.29a4.7 4.7 0 0 0 2.53.73c1.84 0 3.08-1 3.08-2.6v-5.17zm-1.14 3.99c-.7 0-1.16-.55-1.16-1.32 0-.79.46-1.33 1.16-1.33.68 0 1.14.53 1.14 1.33 0 .77-.46 1.32-1.14 1.32zM374.41 148.05l.63-1.22a4.6 4.6 0 0 0-2.36-.66c-1.33 0-2.32.65-2.32 1.84 0 1.95 2.92 1.57 2.92 2.34 0 .23-.25.35-.6.35-.62 0-1.36-.25-2-.7l-.6 1.2c.7.54 1.6.8 2.56.8 1.38 0 2.4-.65 2.4-1.82.01-1.96-2.96-1.6-2.96-2.35 0-.24.22-.36.53-.36.46 0 1.1.21 1.8.58zM383 146.2c-.71 0-1.28.28-1.67.79v-2.84h-1.87v7.77h1.87v-.73c.4.51.98.8 1.7.8 1.58 0 2.6-1.15 2.6-2.87 0-1.76-1.06-2.93-2.64-2.93zm-.47 4.28c-.71 0-1.2-.57-1.2-1.4 0-.84.49-1.42 1.2-1.42.73 0 1.23.58 1.23 1.41 0 .84-.5 1.4-1.23 1.4zM389.25 146.18c-.94 0-1.75.22-2.64.62l.5 1.26c.62-.3 1.24-.45 1.7-.45.72 0 1.09.31 1.09.85v.06h-1.48c-1.4.02-2.17.64-2.17 1.72 0 1.03.72 1.77 1.94 1.77.76 0 1.34-.25 1.7-.73v.64h1.84v-3.68c-.01-1.3-.92-2.06-2.48-2.06zm-.49 4.56c-.48 0-.76-.25-.76-.64 0-.4.26-.59.79-.59h1.1v.5c-.11.43-.57.73-1.13.73zM397.05 148.05l.63-1.22a4.6 4.6 0 0 0-2.36-.66c-1.33 0-2.32.65-2.32 1.84 0 1.95 2.92 1.57 2.92 2.34 0 .23-.25.35-.6.35-.63 0-1.36-.25-2-.7l-.6 1.2c.7.54 1.6.8 2.56.8 1.38 0 2.4-.65 2.4-1.82 0-1.96-2.97-1.6-2.97-2.35 0-.24.22-.36.54-.36.46 0 1.1.21 1.8.58zM401.5 146.2c-1.78 0-2.96 1.16-2.96 2.92 0 1.72 1.14 2.87 3 2.87 1.04 0 1.89-.36 2.47-1l-.98-.98c-.38.37-.85.57-1.33.57-.64 0-1.1-.35-1.29-1h3.94c.13-2.06-.88-3.39-2.86-3.39zm-1.13 2.4c.13-.66.52-1.1 1.13-1.1.63 0 1.05.44 1.05 1.1zM409.58 144.15V147c-.4-.51-.99-.8-1.72-.8-1.56 0-2.6 1.14-2.6 2.86 0 1.76 1.05 2.94 2.64 2.94a2 2 0 0 0 1.68-.8v.72h1.86v-7.77zm-1.22 6.38c-.73 0-1.22-.58-1.22-1.41 0-.84.5-1.42 1.22-1.42.73 0 1.22.57 1.22 1.42 0 .83-.5 1.41-1.22 1.41zM418.71 146.2c-1.86 0-3.09 1.15-3.09 2.89 0 1.74 1.23 2.9 3.1 2.9 1.86 0 3.1-1.16 3.1-2.9s-1.24-2.9-3.1-2.9zm0 1.5c.74 0 1.23.57 1.23 1.4 0 .85-.5 1.42-1.23 1.42-.72 0-1.21-.57-1.21-1.41s.5-1.4 1.21-1.4zM426.8 146.18c-.83 0-1.48.35-1.87 1v-.92h-1.87v5.66h1.87v-3c.07-.63.48-1.06 1.1-1.07.6 0 .97.4.97 1.04v3.03h1.85v-3.57c0-1.33-.81-2.17-2.05-2.17zM432.64 146.26l2.11 5.66h1.92l2.13-5.66h-1.87l-1.2 3.94-1.18-3.94zM442.52 146.2c-1.86 0-3.09 1.15-3.09 2.89 0 1.74 1.23 2.9 3.1 2.9 1.86 0 3.1-1.16 3.1-2.9s-1.24-2.9-3.1-2.9zm0 1.5c.74 0 1.23.57 1.23 1.4 0 .85-.5 1.42-1.23 1.42-.72 0-1.21-.57-1.21-1.41s.5-1.4 1.21-1.4zM450.2 150.31c-.27.12-.51.19-.7.19-.32.01-.51-.18-.51-.6v-2.13h1.46v-1.24H449v-1.57h-1.86v1.57h-.78v1.24h.78v2.43c0 1.17.8 1.82 1.9 1.8.56 0 1.12-.13 1.53-.37zM454.05 146.2c-1.77 0-2.96 1.16-2.96 2.92 0 1.72 1.15 2.87 3 2.87 1.05 0 1.9-.36 2.47-1l-.97-.98c-.38.37-.85.57-1.33.57-.64 0-1.11-.35-1.3-1h3.95c.12-2.06-.88-3.39-2.86-3.39zm-1.12 2.4c.12-.66.52-1.1 1.13-1.1.63 0 1.05.44 1.05 1.1zM462.06 148.05l.63-1.22a4.6 4.6 0 0 0-2.36-.66c-1.33 0-2.32.65-2.32 1.84 0 1.95 2.92 1.57 2.92 2.34 0 .23-.25.35-.6.35-.63 0-1.36-.25-2-.7l-.6 1.2c.7.54 1.6.8 2.56.8 1.38 0 2.4-.65 2.4-1.82.01-1.96-2.96-1.6-2.96-2.35 0-.24.22-.36.53-.36.46 0 1.1.21 1.8.58z"/></g><path fill="#fff" d="M295.28 168.9a1.83 1.83 0 0 1-.13.64 1.66 1.66 0 0 1-.92.91 1.7 1.7 0 0 1-2.33-1.4 1.83 1.83 0 0 1 .07-.65 1.7 1.7 0 0 1 2.81-.7 1.7 1.7 0 0 1 .5 1.2z" clip-path="url(#x)"/><g fill="#fff" stroke-width=".11" aria-label="Added dynamic analysis tools"><path d="M305.44 172.22h2.04l-3.08-7.34h-1.97l-3.15 7.34h1.97l.51-1.3h3.18zm-3.1-2.77 1.03-2.61 1 2.61zM312.14 164.45v2.85c-.4-.52-.99-.81-1.72-.81-1.56 0-2.6 1.14-2.6 2.87 0 1.76 1.05 2.93 2.64 2.93a2 2 0 0 0 1.68-.8v.73H314v-7.77zm-1.22 6.38c-.73 0-1.23-.58-1.23-1.42s.5-1.41 1.23-1.41c.72 0 1.22.56 1.22 1.41 0 .84-.5 1.42-1.22 1.42zM319.45 164.45v2.85c-.4-.52-.99-.81-1.72-.81-1.56 0-2.6 1.14-2.6 2.87 0 1.76 1.05 2.93 2.64 2.93a2 2 0 0 0 1.68-.8v.73h1.86v-7.77zm-1.22 6.38c-.73 0-1.22-.58-1.22-1.42s.49-1.41 1.22-1.41c.72 0 1.22.56 1.22 1.41 0 .84-.5 1.42-1.22 1.42zM325.4 166.49c-1.77 0-2.96 1.16-2.96 2.92 0 1.73 1.14 2.87 3 2.87 1.05 0 1.9-.35 2.47-1l-.97-.98c-.38.38-.85.58-1.33.58-.64 0-1.11-.36-1.3-1h3.95c.12-2.06-.88-3.39-2.86-3.39zm-1.12 2.4c.12-.65.52-1.09 1.13-1.09.63 0 1.05.44 1.05 1.09zM333.48 164.45v2.85c-.4-.52-.98-.81-1.71-.81-1.56 0-2.6 1.14-2.6 2.87 0 1.76 1.05 2.93 2.64 2.93a2 2 0 0 0 1.67-.8v.73h1.87v-7.77zm-1.21 6.38c-.73 0-1.23-.58-1.23-1.42s.5-1.41 1.23-1.41c.72 0 1.21.56 1.21 1.41 0 .84-.49 1.42-1.21 1.42zM343.84 164.45v2.85c-.4-.52-.98-.81-1.71-.81-1.56 0-2.6 1.14-2.6 2.87 0 1.76 1.05 2.93 2.64 2.93a2 2 0 0 0 1.67-.8v.73h1.87v-7.77zm-1.21 6.38c-.73 0-1.23-.58-1.23-1.42s.5-1.41 1.23-1.41c.72 0 1.21.56 1.21 1.41 0 .84-.49 1.42-1.21 1.42zM350.36 172.78l2.43-6.23h-1.85l-1.2 3.69-1.36-3.69h-1.92l2.35 5.53-.14.27c-.14.28-.36.43-.68.43-.27 0-.49-.1-.75-.32l-.78 1.29c.52.4 1.04.59 1.68.59 1.07 0 1.8-.5 2.22-1.56zM357.54 166.48c-.83 0-1.48.35-1.88 1v-.93h-1.86v5.67h1.86v-3c.07-.63.48-1.06 1.11-1.07.59 0 .97.4.97 1.03v3.04h1.85v-3.57c0-1.33-.82-2.17-2.05-2.17zM363.64 166.48c-.93 0-1.75.22-2.64.62l.52 1.25c.6-.29 1.22-.45 1.7-.45.7 0 1.07.32 1.07.85v.07h-1.47c-1.4.02-2.17.63-2.17 1.71 0 1.04.72 1.77 1.94 1.77.76 0 1.34-.25 1.7-.72v.64h1.84v-3.69c-.01-1.3-.93-2.05-2.49-2.05zm-.48 4.56c-.48 0-.76-.25-.76-.64 0-.4.26-.59.78-.59h1.11v.5c-.11.42-.57.73-1.13.73zM375.23 166.48c-.92 0-1.61.43-1.98 1.27-.28-.8-.96-1.27-1.89-1.27-.81 0-1.45.35-1.84 1v-.93h-1.85v5.67h1.85v-2.8c0-.74.42-1.26 1.08-1.27.58 0 .93.38.93 1.03v3.04h1.87v-2.8c0-.74.4-1.26 1.06-1.27.58 0 .94.38.94 1.03v3.04h1.86v-3.57c0-1.33-.8-2.17-2.03-2.17zM379.55 164.1c-.5 0-.85.36-.85.86s.35.85.85.85c.49 0 .84-.36.84-.85 0-.5-.35-.86-.84-.86zm-.94 2.45v5.67h1.86v-5.67zM385.55 168.62l1.35-.79a2.8 2.8 0 0 0-2.54-1.34c-1.76 0-2.93 1.16-2.93 2.92 0 1.73 1.16 2.87 2.91 2.87 1.2 0 2.13-.49 2.58-1.36l-1.37-.78c-.23.44-.62.63-1.11.63-.67 0-1.13-.54-1.13-1.37 0-.81.46-1.37 1.13-1.37.48 0 .86.22 1.1.59zM393.81 166.48c-.93 0-1.75.22-2.64.62l.52 1.25c.6-.29 1.22-.45 1.7-.45.7 0 1.07.32 1.07.85v.07H393c-1.4.02-2.17.63-2.17 1.71 0 1.04.72 1.77 1.94 1.77.76 0 1.34-.25 1.7-.72v.64h1.84v-3.69c-.01-1.3-.93-2.05-2.49-2.05zm-.48 4.56c-.48 0-.76-.25-.76-.64 0-.4.26-.59.78-.59h1.11v.5c-.11.42-.57.73-1.13.73zM401.58 166.48c-.83 0-1.48.35-1.88 1v-.93h-1.86v5.67h1.86v-3c.07-.63.48-1.06 1.11-1.07.59 0 .96.4.96 1.03v3.04h1.86v-3.57c0-1.33-.82-2.17-2.05-2.17zM407.68 166.48c-.93 0-1.75.22-2.64.62l.52 1.25c.6-.29 1.22-.45 1.7-.45.7 0 1.07.32 1.07.85v.07h-1.47c-1.4.02-2.17.63-2.17 1.71 0 1.04.72 1.77 1.94 1.77.76 0 1.34-.25 1.7-.72v.64h1.84v-3.69c-.01-1.3-.93-2.05-2.49-2.05zm-.48 4.56c-.48 0-.76-.25-.76-.64 0-.4.26-.59.78-.59h1.11v.5c-.11.42-.57.73-1.13.73zM411.76 164.45v7.77h1.86v-7.77zM418.04 172.78l2.43-6.23h-1.85l-1.2 3.69-1.36-3.69h-1.91l2.34 5.53-.13.27c-.15.28-.37.43-.68.43-.28 0-.5-.1-.76-.32l-.77 1.29c.51.4 1.03.59 1.67.59 1.07 0 1.8-.5 2.22-1.56zM425.26 168.34l.63-1.21a4.6 4.6 0 0 0-2.36-.66c-1.33 0-2.32.65-2.32 1.83 0 1.96 2.92 1.57 2.92 2.35 0 .23-.25.34-.6.34-.63 0-1.36-.25-2-.7l-.6 1.2c.7.54 1.6.81 2.56.81 1.38 0 2.4-.66 2.4-1.82.01-1.97-2.96-1.61-2.96-2.36 0-.24.22-.35.53-.35.46 0 1.1.2 1.8.57zM428.14 164.1c-.49 0-.85.36-.85.86s.36.85.85.85c.5 0 .85-.36.85-.85 0-.5-.36-.86-.85-.86zm-.93 2.45v5.67h1.85v-5.67zM434.27 168.34l.63-1.21a4.6 4.6 0 0 0-2.36-.66c-1.33 0-2.32.65-2.32 1.83 0 1.96 2.92 1.57 2.92 2.35 0 .23-.25.34-.6.34-.63 0-1.36-.25-2.01-.7l-.59 1.2c.7.54 1.6.81 2.56.81 1.38 0 2.4-.66 2.4-1.82 0-1.97-2.97-1.61-2.97-2.36 0-.24.22-.35.54-.35.46 0 1.1.2 1.8.57zM442.6 170.6c-.27.12-.52.2-.7.2-.33 0-.52-.18-.52-.6v-2.14h1.47v-1.23h-1.47v-1.58h-1.85v1.58h-.79v1.23h.79v2.43c0 1.18.8 1.82 1.9 1.81.55 0 1.12-.13 1.52-.37zM446.58 166.49c-1.87 0-3.1 1.15-3.1 2.9 0 1.74 1.23 2.9 3.1 2.9 1.86 0 3.1-1.16 3.1-2.9 0-1.75-1.24-2.9-3.1-2.9zm0 1.5c.73 0 1.22.57 1.22 1.41 0 .85-.49 1.42-1.22 1.42-.72 0-1.22-.57-1.22-1.42 0-.84.5-1.4 1.22-1.4zM453.56 166.49c-1.87 0-3.1 1.15-3.1 2.9 0 1.74 1.23 2.9 3.1 2.9 1.86 0 3.1-1.16 3.1-2.9 0-1.75-1.24-2.9-3.1-2.9zm0 1.5c.73 0 1.22.57 1.22 1.41 0 .85-.5 1.42-1.22 1.42-.73 0-1.22-.57-1.22-1.42 0-.84.5-1.4 1.22-1.4zM457.96 164.45v7.77h1.86v-7.77zM464.96 168.34l.63-1.21a4.6 4.6 0 0 0-2.35-.66c-1.34 0-2.33.65-2.33 1.83 0 1.96 2.92 1.57 2.92 2.35 0 .23-.25.34-.6.34-.62 0-1.36-.25-2-.7l-.6 1.2c.7.54 1.61.81 2.56.81 1.39 0 2.4-.66 2.4-1.82.01-1.97-2.96-1.61-2.96-2.36 0-.24.22-.35.53-.35.46 0 1.1.2 1.8.57z"/></g><path fill="#fff" d="M295.28 189.19a1.83 1.83 0 0 1-.13.65 1.66 1.66 0 0 1-.92.91 1.7 1.7 0 0 1-2.33-1.4 1.83 1.83 0 0 1 .07-.65 1.7 1.7 0 0 1 2.55-.92 1.67 1.67 0 0 1 .76 1.4z" clip-path="url(#y)"/><g fill="#fff" stroke-width=".11" aria-label="Star history visualization"><path d="m305.1 187.44.73-1.52a5.63 5.63 0 0 0-2.93-.83c-1.77 0-2.94.87-2.94 2.24 0 2.6 3.87 1.85 3.87 3.1 0 .38-.36.59-.92.59-.77 0-1.91-.46-2.66-1.11l-.75 1.5a5.52 5.52 0 0 0 3.39 1.17c1.63 0 2.95-.76 2.95-2.26 0-2.64-3.87-1.95-3.87-3.17 0-.33.3-.5.77-.5.6 0 1.6.35 2.37.79zM310.16 190.9c-.28.12-.52.2-.7.2-.33 0-.52-.19-.52-.6v-2.14h1.47v-1.24h-1.47v-1.57h-1.85v1.57h-.79v1.24h.79v2.43c0 1.17.8 1.82 1.9 1.81.55 0 1.11-.14 1.52-.38zM314.06 186.78c-.93 0-1.75.22-2.64.61l.52 1.26c.6-.3 1.22-.45 1.7-.45.7 0 1.07.32 1.07.85v.06h-1.47c-1.4.02-2.17.64-2.17 1.72 0 1.04.72 1.77 1.93 1.77.77 0 1.35-.25 1.71-.72v.64h1.84v-3.7c-.02-1.29-.93-2.04-2.49-2.04zm-.48 4.55c-.48 0-.76-.25-.76-.64 0-.4.26-.58.78-.58h1.11v.49c-.11.43-.57.73-1.13.73zM319.95 187.8v-.95h-1.86v5.67h1.86v-2.9c.1-.78.79-1.24 1.82-1.14v-1.7c-.8 0-1.43.36-1.82 1.01zM329.57 186.78c-.83 0-1.48.34-1.88 1v-3.04h-1.86v7.78h1.86v-2.8c0-.74.42-1.27 1.11-1.28.6 0 .97.4.97 1.04v3.04h1.86v-3.58c0-1.33-.82-2.16-2.06-2.16zM334 184.4c-.5 0-.85.35-.85.86 0 .49.36.85.85.85s.85-.36.85-.85c0-.5-.36-.86-.85-.86zm-.93 2.45v5.67h1.85v-5.67zM340.13 188.64l.62-1.21a4.6 4.6 0 0 0-2.35-.66c-1.33 0-2.33.65-2.33 1.83 0 1.96 2.92 1.57 2.92 2.35 0 .23-.25.34-.6.34-.62 0-1.35-.25-2-.7l-.6 1.2c.7.54 1.61.81 2.57.81 1.38 0 2.4-.66 2.4-1.82 0-1.97-2.97-1.62-2.97-2.36 0-.24.22-.36.53-.36.46 0 1.1.21 1.8.58zM345.4 190.9c-.27.12-.5.2-.7.2-.32 0-.51-.19-.51-.6v-2.14h1.47v-1.24h-1.47v-1.57h-1.85v1.57h-.79v1.24h.79v2.43c0 1.17.8 1.82 1.9 1.81.55 0 1.11-.14 1.52-.38zM349.39 186.79c-1.87 0-3.1 1.15-3.1 2.89 0 1.75 1.23 2.9 3.1 2.9 1.86 0 3.1-1.15 3.1-2.9 0-1.74-1.24-2.9-3.1-2.9zm0 1.5c.73 0 1.22.57 1.22 1.4 0 .86-.49 1.42-1.22 1.42s-1.22-.56-1.22-1.41c0-.84.5-1.4 1.22-1.4zM355.6 187.8v-.95h-1.87v5.67h1.87v-2.9c.1-.78.78-1.24 1.82-1.14v-1.7c-.8 0-1.43.36-1.82 1.01zM361.43 193.07l2.43-6.22h-1.85l-1.2 3.69-1.36-3.69h-1.91l2.34 5.53-.13.26c-.15.29-.37.43-.68.43-.28 0-.5-.1-.76-.31l-.77 1.29c.51.4 1.03.58 1.67.58 1.07 0 1.8-.5 2.22-1.56zM367.15 186.85l2.12 5.67h1.92l2.12-5.67h-1.86l-1.2 3.94-1.18-3.94zM375.34 184.4c-.49 0-.84.35-.84.86 0 .49.35.85.84.85.5 0 .85-.36.85-.85 0-.5-.35-.86-.85-.86zm-.93 2.45v5.67h1.86v-5.67zM381.47 188.64l.63-1.21a4.6 4.6 0 0 0-2.36-.66c-1.33 0-2.32.65-2.32 1.83 0 1.96 2.92 1.57 2.92 2.35 0 .23-.25.34-.6.34-.62 0-1.36-.25-2-.7l-.6 1.2c.7.54 1.6.81 2.56.81 1.39 0 2.4-.66 2.4-1.82.01-1.97-2.96-1.62-2.96-2.36 0-.24.22-.36.53-.36.46 0 1.1.21 1.8.58zM387.09 186.85v2.8c0 .74-.4 1.26-1.06 1.27-.56 0-.91-.38-.91-1.02v-3.05h-1.87v3.58c0 1.32.8 2.17 2.03 2.17a2 2 0 0 0 1.8-1v.92h1.87v-5.67zM393.23 186.78c-.94 0-1.75.22-2.64.61l.51 1.26c.6-.3 1.23-.45 1.7-.45.71 0 1.08.32 1.08.85v.06h-1.48c-1.4.02-2.17.64-2.17 1.72 0 1.04.72 1.77 1.94 1.77.76 0 1.34-.25 1.7-.72v.64h1.84v-3.7c-.01-1.29-.92-2.04-2.48-2.04zm-.49 4.55c-.48 0-.76-.25-.76-.64 0-.4.26-.58.79-.58h1.1v.49c-.1.43-.57.73-1.13.73zM397.3 184.74v7.78h1.87v-7.78zM401.46 184.4c-.5 0-.85.35-.85.86 0 .49.36.85.85.85.5 0 .85-.36.85-.85 0-.5-.36-.86-.85-.86zm-.93 2.45v5.67h1.85v-5.67zM403.55 186.85v1.43h2.62l-2.72 3.1v1.14h5.17v-1.43h-2.83l2.72-3.1v-1.13zM412.19 186.78c-.93 0-1.75.22-2.64.61l.51 1.26c.6-.3 1.23-.45 1.7-.45.71 0 1.08.32 1.08.85v.06h-1.48c-1.4.02-2.17.64-2.17 1.72 0 1.04.72 1.77 1.94 1.77.76 0 1.34-.25 1.7-.72v.64h1.84v-3.7c-.01-1.29-.92-2.04-2.48-2.04zm-.48 4.55c-.49 0-.77-.25-.77-.64 0-.4.26-.58.79-.58h1.1v.49c-.1.43-.57.73-1.12.73zM419.54 190.9c-.27.12-.51.2-.7.2-.33 0-.51-.19-.51-.6v-2.14h1.46v-1.24h-1.46v-1.57h-1.86v1.57h-.78v1.24h.78v2.43c0 1.17.8 1.82 1.9 1.81.55 0 1.12-.14 1.53-.38zM421.83 184.4c-.5 0-.85.35-.85.86 0 .49.35.85.85.85.49 0 .84-.36.84-.85 0-.5-.35-.86-.84-.86zm-.94 2.45v5.67h1.86v-5.67zM426.8 186.79c-1.86 0-3.09 1.15-3.09 2.89 0 1.75 1.23 2.9 3.1 2.9 1.86 0 3.1-1.15 3.1-2.9 0-1.74-1.24-2.9-3.1-2.9zm0 1.5c.73 0 1.23.57 1.23 1.4 0 .86-.5 1.42-1.23 1.42-.72 0-1.21-.56-1.21-1.41 0-.84.49-1.4 1.21-1.4zM434.89 186.78c-.83 0-1.48.34-1.88 1v-.93h-1.86v5.67H433v-3c.08-.64.48-1.07 1.11-1.08.59 0 .97.4.97 1.04v3.04h1.85v-3.58c0-1.33-.82-2.16-2.05-2.16z"/></g><path fill="#fff" d="M295.28 209.49a1.83 1.83 0 0 1-.13.64 1.67 1.67 0 0 1-.92.92 1.67 1.67 0 0 1-1.44-.07 1.7 1.7 0 0 1-.82-1.99 1.7 1.7 0 0 1 2.55-.91 1.67 1.67 0 0 1 .76 1.4z" clip-path="url(#z)"/><g fill="#fff" stroke-width=".11" aria-label="Modern design"><path d="M300.05 205.47v7.34h1.7v-4.65l1.71 3.92h1.26l1.7-3.92.02 4.65h1.7v-7.34h-2.1l-1.95 4.28-1.95-4.28zM312.67 207.08c-1.87 0-3.1 1.16-3.1 2.9s1.23 2.9 3.1 2.9c1.86 0 3.1-1.16 3.1-2.9s-1.24-2.9-3.1-2.9zm0 1.51c.73 0 1.22.57 1.22 1.4 0 .85-.49 1.42-1.22 1.42-.72 0-1.22-.57-1.22-1.41s.5-1.4 1.22-1.4zM320.87 205.04v2.85c-.4-.51-.98-.8-1.72-.8-1.56 0-2.6 1.14-2.6 2.86 0 1.76 1.05 2.94 2.65 2.94a2 2 0 0 0 1.67-.81v.73h1.87v-7.77zm-1.21 6.38c-.74 0-1.23-.58-1.23-1.41 0-.84.5-1.42 1.23-1.42.72 0 1.21.57 1.21 1.42 0 .83-.5 1.41-1.21 1.41zM326.82 207.08c-1.77 0-2.95 1.17-2.95 2.93 0 1.72 1.14 2.87 3 2.87 1.04 0 1.89-.36 2.47-1l-.98-.98c-.38.37-.85.57-1.33.57-.64 0-1.1-.35-1.29-1h3.94c.13-2.06-.88-3.39-2.86-3.39zm-1.12 2.4c.13-.65.52-1.09 1.13-1.09.63 0 1.05.44 1.05 1.1zM332.92 208.09v-.94h-1.87v5.66h1.87v-2.89c.1-.78.78-1.24 1.82-1.14v-1.7c-.8 0-1.43.36-1.82 1zM339.43 207.07c-.82 0-1.47.35-1.87 1v-.92h-1.87v5.66h1.87v-3c.07-.63.48-1.06 1.11-1.07.59 0 .96.4.96 1.04v3.03h1.86v-3.57c0-1.33-.82-2.17-2.06-2.17zM349.89 205.04v2.85c-.4-.51-.99-.8-1.72-.8-1.56 0-2.6 1.14-2.6 2.86 0 1.76 1.05 2.94 2.64 2.94a2 2 0 0 0 1.68-.81v.73h1.86v-7.77zm-1.22 6.38c-.73 0-1.22-.58-1.22-1.41 0-.84.5-1.42 1.22-1.42.73 0 1.22.57 1.22 1.42 0 .83-.5 1.41-1.22 1.41zM355.84 207.08c-1.77 0-2.95 1.17-2.95 2.93 0 1.72 1.14 2.87 3 2.87 1.04 0 1.89-.36 2.46-1l-.97-.98c-.38.37-.85.57-1.33.57-.64 0-1.11-.35-1.29-1h3.94c.12-2.06-.88-3.39-2.86-3.39zm-1.12 2.4c.12-.65.52-1.09 1.13-1.09.63 0 1.05.44 1.05 1.1zM363.85 208.94l.63-1.22a4.6 4.6 0 0 0-2.36-.66c-1.33 0-2.32.65-2.32 1.84 0 1.95 2.92 1.57 2.92 2.34 0 .23-.25.35-.6.35-.62 0-1.36-.25-2-.7l-.6 1.2c.7.53 1.6.8 2.56.8 1.39 0 2.4-.65 2.4-1.82.01-1.96-2.96-1.6-2.96-2.35 0-.24.22-.36.53-.36.46 0 1.1.21 1.8.58zM366.73 204.7c-.49 0-.84.35-.84.85s.35.85.84.85c.5 0 .85-.35.85-.85s-.35-.86-.85-.86zm-.93 2.45v5.66h1.86v-5.66zM372.65 207.15v.69a2.01 2.01 0 0 0-1.65-.76c-1.4 0-2.38 1.07-2.38 2.68 0 1.65 1 2.74 2.42 2.74.7 0 1.25-.26 1.61-.74v.6c0 .66-.51 1.1-1.36 1.1-.6 0-1.24-.2-1.75-.56l-.65 1.29a4.7 4.7 0 0 0 2.54.73c1.83 0 3.08-1 3.08-2.6v-5.17zm-1.14 3.99c-.7 0-1.15-.55-1.15-1.32 0-.79.46-1.33 1.15-1.33.68 0 1.14.53 1.14 1.33 0 .77-.46 1.32-1.14 1.32zM380.2 207.07c-.82 0-1.47.35-1.87 1v-.92h-1.86v5.66h1.86v-3c.07-.63.48-1.06 1.11-1.07.59 0 .96.4.96 1.04v3.03h1.86v-3.57c0-1.33-.82-2.17-2.05-2.17z"/></g><g fill="#fff" stroke-width=".12" aria-label="We redesigned"><path d="m37.11 159.2 6.32 19.24h5.16l3.57-12.99 3.46 12.99h5.19l6.34-19.25h-5.16l-3.63 13.92-3.65-13.92H49.8l-3.63 13.92-3.65-13.92zM76.98 163.42c-4.64 0-7.74 3.05-7.74 7.66 0 4.53 2.99 7.53 7.85 7.53 2.75 0 4.97-.94 6.48-2.64l-2.55-2.55a4.92 4.92 0 0 1-3.5 1.5 3.33 3.33 0 0 1-3.37-2.6h10.33c.33-5.41-2.31-8.9-7.5-8.9zm-2.94 6.29c.33-1.7 1.37-2.86 2.97-2.86 1.65 0 2.74 1.16 2.74 2.86zM99.99 166.06v-2.47H95.1v14.85H100v-7.58c.25-2.06 2.06-3.27 4.78-3v-4.47c-2.09 0-3.76.96-4.78 2.67zM113.17 163.42c-4.64 0-7.74 3.05-7.74 7.66 0 4.53 2.99 7.53 7.85 7.53 2.75 0 4.97-.94 6.48-2.64l-2.55-2.55a4.92 4.92 0 0 1-3.5 1.5 3.33 3.33 0 0 1-3.37-2.6h10.33c.33-5.41-2.31-8.9-7.5-8.9zm-2.94 6.29c.33-1.7 1.38-2.86 2.97-2.86 1.65 0 2.74 1.16 2.74 2.86zM133.82 158.07v7.46a5.48 5.48 0 0 0-4.5-2.11c-4.1 0-6.81 3-6.81 7.52 0 4.62 2.74 7.7 6.92 7.7 1.86 0 3.37-.75 4.39-2.12v1.92h4.89v-20.37zm-3.19 16.72c-1.92 0-3.2-1.51-3.2-3.7 0-2.2 1.28-3.72 3.2-3.72 1.9 0 3.19 1.49 3.19 3.71 0 2.2-1.3 3.7-3.19 3.7zM149.11 163.42c-4.64 0-7.74 3.05-7.74 7.66 0 4.53 3 7.53 7.85 7.53 2.75 0 4.97-.94 6.48-2.64l-2.55-2.55a4.92 4.92 0 0 1-3.49 1.5 3.33 3.33 0 0 1-3.37-2.6h10.32c.33-5.41-2.3-8.9-7.5-8.9zm-2.93 6.29c.32-1.7 1.37-2.86 2.96-2.86 1.65 0 2.75 1.16 2.75 2.86zM169.57 168.28l1.65-3.18a12.06 12.06 0 0 0-6.18-1.73c-3.49 0-6.1 1.7-6.1 4.8 0 5.14 7.66 4.12 7.66 6.15 0 .6-.65.9-1.56.9a9.65 9.65 0 0 1-5.27-1.83l-1.54 3.16c1.81 1.4 4.2 2.11 6.7 2.11 3.62 0 6.29-1.73 6.29-4.78.02-5.16-7.77-4.23-7.77-6.18 0-.63.57-.93 1.4-.93 1.2 0 2.88.55 4.72 1.51zM176.24 157.16c-1.29 0-2.22.93-2.22 2.25 0 1.3.93 2.23 2.22 2.23 1.3 0 2.23-.94 2.23-2.23 0-1.32-.94-2.25-2.23-2.25zm-2.44 6.43v14.85h4.86v-14.85zM191.1 163.59v1.8a5.28 5.28 0 0 0-4.34-1.97c-3.68 0-6.23 2.8-6.23 7.03 0 4.31 2.63 7.17 6.34 7.17 1.84 0 3.27-.69 4.23-1.95v1.59c0 1.73-1.35 2.86-3.57 2.86-1.6 0-3.24-.53-4.59-1.46l-1.7 3.38a12.33 12.33 0 0 0 6.64 1.92c4.81 0 8.08-2.64 8.08-6.84V163.6zm-3 10.46c-1.8 0-3.02-1.43-3.02-3.46 0-2.06 1.21-3.49 3.02-3.49 1.79 0 3 1.4 3 3.49 0 2.03-1.21 3.46-3 3.46zM210.6 163.4c-2.18 0-3.88.9-4.92 2.6v-2.41h-4.89v14.85h4.89v-7.85c.19-1.68 1.26-2.8 2.9-2.83 1.55 0 2.53 1.04 2.53 2.72v7.96h4.86v-9.36c0-3.49-2.14-5.69-5.38-5.69zM226.13 163.42c-4.64 0-7.74 3.05-7.74 7.66 0 4.53 3 7.53 7.85 7.53 2.75 0 4.97-.94 6.48-2.64l-2.55-2.55a4.92 4.92 0 0 1-3.49 1.5 3.33 3.33 0 0 1-3.37-2.6h10.32c.33-5.41-2.3-8.9-7.5-8.9zm-2.93 6.29c.33-1.7 1.37-2.86 2.96-2.86 1.65 0 2.75 1.16 2.75 2.86zM246.78 158.07v7.46a5.48 5.48 0 0 0-4.5-2.11c-4.1 0-6.81 3-6.81 7.52 0 4.62 2.75 7.7 6.92 7.7 1.87 0 3.38-.75 4.4-2.12v1.92h4.88v-20.37zm-3.18 16.72c-1.92 0-3.21-1.51-3.21-3.7 0-2.2 1.29-3.72 3.2-3.72 1.9 0 3.2 1.49 3.2 3.71 0 2.2-1.3 3.7-3.2 3.7z"/></g><g fill="#fff" stroke-width=".12" aria-label="our website"><path d="M45.92 198.25c-4.88 0-8.1 3.02-8.1 7.58 0 4.59 3.22 7.6 8.1 7.6 4.9 0 8.13-3.01 8.13-7.6 0-4.56-3.24-7.58-8.13-7.58zm0 3.96c1.93 0 3.22 1.48 3.22 3.68 0 2.22-1.3 3.7-3.22 3.7-1.89 0-3.18-1.48-3.18-3.7 0-2.2 1.29-3.68 3.18-3.68zM66.35 198.42v7.33c0 1.95-1.04 3.32-2.77 3.35-1.45 0-2.39-1.02-2.39-2.7v-7.98H56.3v9.39c0 3.46 2.1 5.68 5.3 5.68a5.24 5.24 0 0 0 4.75-2.63v2.41h4.9v-14.85zM80.33 200.89v-2.47h-4.89v14.85h4.89v-7.57c.25-2.06 2.06-3.27 4.78-3v-4.47c-2.09 0-3.76.96-4.78 2.66zM92.55 198.42l5.4 14.85h4.84l2.86-9.17 2.82 9.17h4.84l5.43-14.85h-4.77L111 208.47l-2.94-10.05h-4.66l-2.92 10.05-2.96-10.05zM126.32 198.25c-4.64 0-7.74 3.05-7.74 7.67 0 4.53 3 7.52 7.85 7.52 2.75 0 4.97-.93 6.48-2.64l-2.55-2.55a4.92 4.92 0 0 1-3.49 1.5 3.33 3.33 0 0 1-3.38-2.6h10.33c.33-5.4-2.3-8.9-7.5-8.9zm-2.94 6.3c.33-1.71 1.38-2.86 2.97-2.86 1.65 0 2.75 1.15 2.75 2.85zM146.26 198.25a5.3 5.3 0 0 0-4.37 2.1v-7.45H137v20.37h4.9v-1.92a5.44 5.44 0 0 0 4.47 2.09c4.12 0 6.8-3 6.8-7.52 0-4.62-2.77-7.67-6.91-7.67zm-1.21 11.23c-1.87 0-3.16-1.48-3.16-3.67 0-2.2 1.3-3.71 3.16-3.71 1.92 0 3.21 1.5 3.21 3.7s-1.29 3.68-3.21 3.68zM165.62 203.11l1.64-3.18a12.06 12.06 0 0 0-6.17-1.73c-3.5 0-6.1 1.7-6.1 4.8 0 5.14 7.66 4.12 7.66 6.16 0 .6-.66.9-1.56.9a9.65 9.65 0 0 1-5.28-1.84l-1.53 3.16c1.8 1.4 4.2 2.11 6.7 2.11 3.62 0 6.28-1.73 6.28-4.77.03-5.17-7.77-4.23-7.77-6.18 0-.63.58-.94 1.4-.94 1.21 0 2.89.55 4.73 1.51zM172.29 192c-1.3 0-2.23.93-2.23 2.25 0 1.29.94 2.22 2.23 2.22s2.22-.93 2.22-2.22c0-1.32-.93-2.26-2.22-2.26zm-2.45 6.42v14.85h4.86v-14.85zM186.51 209.05c-.71.3-1.34.49-1.84.49-.85.03-1.34-.47-1.34-1.57v-5.6h3.84v-3.24h-3.84v-4.12h-4.86v4.12h-2.06v3.24h2.06v6.37c0 3.08 2.08 4.78 4.97 4.75 1.45 0 2.93-.35 4-.98zM195.96 198.25c-4.64 0-7.75 3.05-7.75 7.67 0 4.53 3 7.52 7.86 7.52 2.74 0 4.97-.93 6.48-2.64l-2.56-2.55a4.92 4.92 0 0 1-3.48 1.5 3.33 3.33 0 0 1-3.38-2.6h10.32c.33-5.4-2.3-8.9-7.5-8.9zm-2.94 6.3c.33-1.71 1.37-2.86 2.96-2.86 1.65 0 2.75 1.15 2.75 2.85z"/></g><g fill="#fff" stroke-width=".07" aria-label="A huge thank you to our sponsors"><path d="M44.94 137.12h1.6l-3.9-8.91h-1.53l-3.93 8.9h1.56l.86-2h4.49zm-4.78-3.35 1.67-3.96 1.68 3.96zM54.74 130.3c-1.16 0-2.03.42-2.51 1.37v-4h-1.46v9.45h1.46v-3.34c0-1.2.73-2.1 1.93-2.11 1.02 0 1.63.62 1.63 1.64v3.8h1.47v-4.2c0-1.62-.95-2.61-2.52-2.61zM64 130.35v3.33c0 1.18-.69 2.09-1.86 2.11-.98 0-1.58-.62-1.58-1.64v-3.8H59.1v4.2c0 1.62.93 2.62 2.48 2.62 1.1-.02 1.96-.44 2.42-1.38v1.33h1.46v-6.77zM72.54 130.35v1.1a2.52 2.52 0 0 0-2.3-1.15c-1.79 0-3 1.3-3 3.21 0 1.95 1.22 3.27 3.06 3.27 1.01 0 1.78-.4 2.24-1.14v.85c0 1.17-.84 1.92-2.13 1.92-.83 0-1.49-.26-2.12-.73l-.63 1.05c.83.56 1.76.9 2.82.9 2.12 0 3.5-1.23 3.5-3.18v-6.1zm-1.95 5.29c-1.17 0-1.96-.87-1.97-2.09.01-1.2.81-2.07 1.97-2.07 1.14 0 1.95.85 1.95 2.07 0 1.22-.8 2.09-1.95 2.09zM79.4 130.3a3.29 3.29 0 0 0-3.43 3.44c0 2.04 1.38 3.43 3.46 3.43 1.17 0 2.14-.42 2.8-1.15l-.77-.83c-.5.51-1.18.8-1.91.8a2.06 2.06 0 0 1-2.1-1.7h5.11c.18-2.44-.79-4-3.17-4zm-1.98 2.92c.15-1.08.92-1.75 1.99-1.75 1.1 0 1.83.66 1.88 1.75zM91.09 135.56c-.4.2-.72.3-1.02.3-.46 0-.73-.22-.73-.92v-3.24h2v-1.1h-2v-1.86H87.9v1.86h-.95v1.1h.95v3.5c0 1.4.88 1.98 1.9 1.98.57 0 1.13-.18 1.67-.5zM96.83 130.3c-1.16 0-2.03.42-2.51 1.37v-4h-1.46v9.45h1.46v-3.34c0-1.2.72-2.1 1.93-2.11 1.02 0 1.63.62 1.63 1.64v3.8h1.46v-4.2c0-1.62-.94-2.61-2.51-2.61zM106.9 137.12l-.01-4.44c-.01-1.5-1-2.38-2.74-2.38-1.28 0-1.97.29-2.91.85l.6 1.02a3.57 3.57 0 0 1 2-.7c1.06 0 1.61.52 1.61 1.37v.2h-2.05c-1.63.02-2.55.8-2.55 2.04 0 1.2.91 2.1 2.38 2.1.97 0 1.75-.3 2.23-.9v.84zm-3.37-1.1c-.81 0-1.31-.4-1.31-1 0-.65.45-.9 1.4-.9h1.83v.62c-.07.73-.88 1.28-1.92 1.28zM112.87 130.3c-1.15 0-2.01.4-2.5 1.34v-1.3h-1.46v6.78h1.47v-3.6c.1-1.06.8-1.84 1.92-1.85 1.01 0 1.63.62 1.63 1.64v3.8h1.46v-4.2c0-1.62-.94-2.61-2.52-2.61zM122.18 137.12h1.73l-2.7-4.15 2.51-2.62h-1.68l-2.99 3.02v-5.7h-1.46v9.45h1.46v-1.9l1.15-1.2zM131.17 138.04l3.07-7.7h-1.46l-1.88 5.13-2.02-5.12h-1.52l2.8 6.66-.23.51c-.23.51-.58.75-1.03.75-.3 0-.56-.1-.88-.33l-.62 1.14c.47.39.95.57 1.56.57 1.02 0 1.79-.54 2.2-1.6zM138.3 130.3c-2.1 0-3.53 1.38-3.53 3.42 0 2.05 1.43 3.45 3.53 3.45 2.09 0 3.53-1.4 3.53-3.45 0-2.04-1.44-3.42-3.53-3.42zm0 1.24c1.21 0 2.06.9 2.06 2.2 0 1.31-.85 2.2-2.06 2.2-1.22 0-2.07-.89-2.07-2.2 0-1.3.85-2.2 2.07-2.2zM148.06 130.35v3.33c0 1.18-.68 2.09-1.86 2.11-.98 0-1.57-.62-1.57-1.64v-3.8h-1.47v4.2c0 1.62.93 2.62 2.48 2.62 1.11-.02 1.96-.44 2.42-1.38v1.33h1.47v-6.77zM158.74 135.56c-.4.2-.72.3-1.02.3-.46 0-.73-.22-.73-.92v-3.24h2v-1.1h-2v-1.86h-1.45v1.86h-.95v1.1h.95v3.5c0 1.4.88 1.98 1.9 1.98.57 0 1.13-.18 1.67-.5zM163.34 130.3c-2.1 0-3.53 1.38-3.53 3.42 0 2.05 1.43 3.45 3.53 3.45 2.09 0 3.53-1.4 3.53-3.45 0-2.04-1.44-3.42-3.53-3.42zm0 1.24c1.21 0 2.06.9 2.06 2.2 0 1.31-.85 2.2-2.06 2.2-1.22 0-2.07-.89-2.07-2.2 0-1.3.85-2.2 2.07-2.2zM174.65 130.3c-2.1 0-3.53 1.38-3.53 3.42 0 2.05 1.43 3.45 3.53 3.45 2.1 0 3.53-1.4 3.53-3.45 0-2.04-1.44-3.42-3.53-3.42zm0 1.24c1.21 0 2.07.9 2.07 2.2 0 1.31-.86 2.2-2.07 2.2-1.22 0-2.07-.89-2.07-2.2 0-1.3.85-2.2 2.07-2.2zM184.41 130.35v3.33c0 1.18-.68 2.09-1.85 2.11-.98 0-1.58-.62-1.58-1.64v-3.8h-1.47v4.2c0 1.62.93 2.62 2.49 2.62 1.1-.02 1.95-.44 2.41-1.38v1.33h1.47v-6.77zM189.76 131.7v-1.35h-1.47v6.77h1.47v-3.54c.11-1.16.98-1.96 2.34-1.88v-1.4c-1.07 0-1.89.48-2.34 1.4zM200.58 132.05l.54-1.08a4.28 4.28 0 0 0-2.37-.69c-1.3 0-2.5.59-2.5 1.96 0 2.45 3.56 1.67 3.56 3.06 0 .5-.49.72-1.1.72-.75 0-1.69-.32-2.27-.84l-.53 1.04c.68.62 1.74.95 2.73.95 1.36 0 2.6-.63 2.6-2.01 0-2.46-3.6-1.79-3.6-3.03 0-.49.43-.68 1-.68.6 0 1.35.23 1.94.6zM206.84 130.3c-1.05 0-1.87.43-2.36 1.22v-1.17H203v9.23h1.47v-3.63c.5.78 1.3 1.22 2.39 1.22 1.93 0 3.2-1.39 3.2-3.41 0-2.06-1.3-3.46-3.23-3.46zm-.3 5.62c-1.21 0-2.06-.9-2.06-2.21 0-1.28.85-2.2 2.06-2.2 1.2 0 2.06.94 2.06 2.2 0 1.3-.85 2.21-2.06 2.21zM214.48 130.3c-2.1 0-3.54 1.38-3.54 3.42 0 2.05 1.44 3.45 3.54 3.45 2.08 0 3.52-1.4 3.52-3.45 0-2.04-1.44-3.42-3.52-3.42zm0 1.24c1.2 0 2.06.9 2.06 2.2 0 1.31-.85 2.2-2.06 2.2-1.22 0-2.08-.89-2.08-2.2 0-1.3.86-2.2 2.08-2.2zM223.51 130.3c-1.14 0-2 .4-2.5 1.34v-1.3h-1.46v6.78h1.47v-3.6c.1-1.06.8-1.84 1.92-1.85 1.02 0 1.63.62 1.63 1.64v3.8h1.46v-4.2c0-1.62-.94-2.61-2.52-2.61zM232.02 132.05l.54-1.08a4.28 4.28 0 0 0-2.37-.69c-1.3 0-2.5.59-2.5 1.96 0 2.45 3.56 1.67 3.56 3.06 0 .5-.49.72-1.1.72-.75 0-1.69-.32-2.27-.84l-.53 1.04c.68.62 1.73.95 2.73.95 1.36 0 2.6-.63 2.6-2.01 0-2.46-3.6-1.79-3.6-3.03 0-.49.42-.68 1-.68.6 0 1.35.23 1.94.6zM237.3 130.3c-2.1 0-3.55 1.38-3.55 3.42 0 2.05 1.44 3.45 3.54 3.45 2.09 0 3.53-1.4 3.53-3.45 0-2.04-1.44-3.42-3.53-3.42zm0 1.24c1.2 0 2.05.9 2.05 2.2 0 1.31-.85 2.2-2.06 2.2-1.22 0-2.07-.89-2.07-2.2 0-1.3.85-2.2 2.07-2.2zM243.83 131.7v-1.35h-1.46v6.77h1.46v-3.54c.12-1.16.98-1.96 2.34-1.88v-1.4c-1.07 0-1.88.48-2.34 1.4zM251.33 132.05l.53-1.08a4.28 4.28 0 0 0-2.37-.69c-1.3 0-2.5.59-2.5 1.96 0 2.45 3.56 1.67 3.56 3.06 0 .5-.48.72-1.1.72-.75 0-1.69-.32-2.27-.84l-.52 1.04c.67.62 1.73.95 2.72.95 1.36 0 2.6-.63 2.6-2.01 0-2.46-3.6-1.79-3.6-3.03 0-.49.43-.68 1-.68.6 0 1.35.23 1.95.6z"/></g><g fill="#fff" stroke-width=".09" aria-label="Open website"><path d="M518.56 234.31c-3.7 0-6.47 2.58-6.47 6.06 0 3.5 2.77 6.13 6.47 6.13 3.7 0 6.47-2.63 6.47-6.13 0-3.46-2.76-6.06-6.47-6.06zm.04 2.67c1.79 0 3.22 1.46 3.22 3.41 0 1.95-1.43 3.45-3.22 3.45-1.78 0-3.3-1.5-3.3-3.45 0-1.95 1.5-3.41 3.3-3.41zM533.07 237.03a3.3 3.3 0 0 0-2.71 1.3v-1.2h-3.04v12.55h3.04v-4.51c.65.84 1.6 1.3 2.78 1.3 2.56 0 4.23-1.86 4.23-4.68 0-2.87-1.72-4.76-4.3-4.76zm-.75 6.98c-1.16 0-1.96-.92-1.96-2.29 0-1.36.8-2.3 1.96-2.3 1.2 0 2 .94 2 2.3 0 1.37-.8 2.29-2 2.29zM543 237.03c-2.88 0-4.8 1.9-4.8 4.76 0 2.82 1.85 4.68 4.87 4.68 1.7 0 3.1-.58 4.03-1.64l-1.59-1.59c-.61.62-1.38.94-2.16.94-1.05 0-1.81-.58-2.1-1.62h6.41c.2-3.36-1.43-5.53-4.66-5.53zm-1.82 3.9c.2-1.05.85-1.77 1.84-1.77 1.03 0 1.7.72 1.7 1.78zM555.65 237.01a3.4 3.4 0 0 0-3.05 1.62v-1.5h-3.04v9.23h3.04v-4.88c.12-1.04.78-1.74 1.8-1.76.96 0 1.58.65 1.58 1.7v4.94H559v-5.82c0-2.16-1.33-3.53-3.35-3.53zM564.71 237.13l3.37 9.23h3l1.78-5.7 1.75 5.7h3l3.39-9.23h-2.97l-1.85 6.25-1.82-6.25h-2.9l-1.81 6.25-1.85-6.25zM585.7 237.03c-2.88 0-4.8 1.9-4.8 4.76 0 2.82 1.85 4.68 4.88 4.68 1.7 0 3.09-.58 4.02-1.64l-1.58-1.59c-.62.62-1.39.94-2.17.94-1.04 0-1.81-.58-2.1-1.62h6.42c.2-3.36-1.44-5.53-4.66-5.53zm-1.82 3.9c.2-1.05.85-1.77 1.84-1.77 1.03 0 1.71.72 1.71 1.78zM598.1 237.03a3.3 3.3 0 0 0-2.71 1.3v-4.63h-3.04v12.66h3.04v-1.2c.64.85 1.6 1.3 2.78 1.3 2.56 0 4.23-1.85 4.23-4.67 0-2.87-1.72-4.76-4.3-4.76zm-.75 6.98c-1.16 0-1.96-.92-1.96-2.29 0-1.36.8-2.3 1.96-2.3 1.2 0 2 .94 2 2.3 0 1.37-.8 2.29-2 2.29zM610.13 240.05l1.03-1.98a7.5 7.5 0 0 0-3.84-1.08c-2.17 0-3.8 1.06-3.8 3 0 3.18 4.77 2.55 4.77 3.81 0 .38-.41.57-.97.57a6 6 0 0 1-3.28-1.15l-.96 1.97a6.8 6.8 0 0 0 4.17 1.31c2.25 0 3.9-1.07 3.9-2.97.02-3.2-4.82-2.63-4.82-3.84 0-.4.35-.58.87-.58a7 7 0 0 1 2.93.94zM614.28 233.14c-.8 0-1.38.58-1.38 1.4 0 .8.58 1.38 1.38 1.38.8 0 1.38-.58 1.38-1.38 0-.82-.58-1.4-1.38-1.4zm-1.52 3.99v9.23h3.02v-9.23zM623.12 243.74c-.44.18-.84.3-1.14.3-.53.02-.84-.29-.84-.97v-3.48h2.39v-2.02h-2.39v-2.56h-3.02v2.56h-1.28v2.02h1.28v3.96c0 1.9 1.3 2.97 3.09 2.95.9 0 1.83-.22 2.5-.61zM629 237.03c-2.9 0-4.82 1.9-4.82 4.76 0 2.82 1.86 4.68 4.88 4.68 1.7 0 3.09-.58 4.03-1.64l-1.59-1.59c-.61.62-1.38.94-2.17.94-1.04 0-1.8-.58-2.1-1.62h6.42c.2-3.36-1.43-5.53-4.66-5.53zm-1.83 3.9c.2-1.05.85-1.77 1.84-1.77 1.02 0 1.7.72 1.7 1.78z"/></g></svg>